NotoSerifBengali-SemiCondensedBold.ufo
<glyph name="exclam" format="2">
  <advance width="356.6333333333333"/>
  <unicode hex="0021"/>
  <outline>
    <contour>
      <point x="157.86666666666667" y="218.93333333333334" type="line"/>
      <point x="211.06666666666666" y="218.93333333333334" type="line"/>
      <point x="258.33333333333337" y="714.0" type="line"/>
      <point x="110.60000000000001" y="714.0" type="line"/>
    </contour>
    <contour>
      <point x="185.33333333333334" y="-8.0" type="curve" smooth="yes"/>
      <point x="223.23333333333332" y="-8.0"/>
      <point x="256.1333333333333" y="10.633333333333333"/>
      <point x="256.1333333333333" y="66.63333333333333" type="curve" smooth="yes"/>
      <point x="256.1333333333333" y="122.63333333333333"/>
      <point x="223.23333333333332" y="140.63333333333333"/>
      <point x="185.33333333333334" y="140.63333333333333" type="curve" smooth="yes"/>
      <point x="145.0666666666667" y="140.63333333333333"/>
      <point x="113.53333333333335" y="122.63333333333333"/>
      <point x="113.53333333333335" y="66.63333333333333" type="curve" smooth="yes"/>
      <point x="113.53333333333335" y="10.633333333333333"/>
      <point x="145.0666666666667" y="-8.0"/>
    </contour>
  </outline>
</glyph>
<glyph name="numbersign" format="2">
  <advance width="521.2333333333333"/>
  <unicode hex="0023"/>
  <outline>
    <contour>
      <point x="69.89999999999999" y="0.0" type="line"/>
      <point x="137.0" y="0.0" type="line"/>
      <point x="175.0" y="202.0" type="line"/>
      <point x="283.3333333333333" y="202.0" type="line"/>
      <point x="245.7" y="0.0" type="line"/>
      <point x="312.79999999999995" y="0.0" type="line"/>
      <point x="349.79999999999995" y="202.0" type="line"/>
      <point x="468.1" y="202.0" type="line"/>
      <point x="468.1" y="266.09999999999997" type="line"/>
      <point x="363.1666666666667" y="266.09999999999997" type="line"/>
      <point x="397.79999999999995" y="452.9" type="line"/>
      <point x="500.09999999999997" y="452.9" type="line"/>
      <point x="500.09999999999997" y="518.0" type="line"/>
      <point x="410.43333333333334" y="518.0" type="line"/>
      <point x="447.8" y="714.0" type="line"/>
      <point x="380.3333333333333" y="714.0" type="line"/>
      <point x="343.3333333333333" y="518.0" type="line"/>
      <point x="235.0" y="518.0" type="line"/>
      <point x="272.0" y="714.0" type="line"/>
      <point x="203.9" y="714.0" type="line"/>
      <point x="168.53333333333333" y="518.0" type="line"/>
      <point x="53.13333333333333" y="518.0" type="line"/>
      <point x="53.13333333333333" y="452.9" type="line"/>
      <point x="156.16666666666666" y="452.9" type="line"/>
      <point x="119.9" y="266.09999999999997" type="line"/>
      <point x="20.5" y="266.09999999999997" type="line"/>
      <point x="20.5" y="202.0" type="line"/>
      <point x="108.53333333333333" y="202.0" type="line"/>
    </contour>
    <contour>
      <point x="187.63333333333333" y="266.09999999999997" type="line"/>
      <point x="223.0" y="452.9" type="line"/>
      <point x="332.3333333333333" y="452.9" type="line"/>
      <point x="296.7" y="266.09999999999997" type="line"/>
    </contour>
  </outline>
</glyph>
<glyph name="percent" format="2">
  <advance width="841.9666666666666"/>
  <unicode hex="0025"/>
  <outline>
    <contour>
      <point x="222.33333333333334" y="0.0" type="line"/>
      <point x="291.76666666666665" y="0.0" type="line"/>
      <point x="616.3666666666667" y="714.0" type="line"/>
      <point x="547.5666666666667" y="714.0" type="line"/>
    </contour>
    <contour>
      <point x="197.79999999999998" y="280.0" type="curve" smooth="yes"/>
      <point x="308.93333333333334" y="280.0"/>
      <point x="362.6333333333333" y="369.0"/>
      <point x="362.6333333333333" y="503.0" type="curve"/>
      <point x="362.6333333333333" y="637.0"/>
      <point x="308.93333333333334" y="724.0"/>
      <point x="198.79999999999998" y="724.0" type="curve" smooth="yes"/>
      <point x="82.66666666666666" y="724.0"/>
      <point x="34.233333333333334" y="637.0"/>
      <point x="34.233333333333334" y="503.0" type="curve" smooth="yes"/>
      <point x="34.233333333333334" y="369.0"/>
      <point x="82.66666666666667" y="280.0"/>
    </contour>
    <contour>
      <point x="197.79999999999998" y="325.6333333333333" type="curve" smooth="yes"/>
      <point x="150.1" y="325.6333333333333"/>
      <point x="131.29999999999998" y="390.2666666666667"/>
      <point x="131.29999999999998" y="503.0" type="curve"/>
      <point x="131.29999999999998" y="613.7333333333333"/>
      <point x="149.46666666666667" y="677.3666666666667"/>
      <point x="198.8" y="677.3666666666667" type="curve" smooth="yes"/>
      <point x="247.76666666666668" y="677.3666666666667"/>
      <point x="263.93333333333334" y="613.7333333333333"/>
      <point x="263.93333333333334" y="503.0" type="curve" smooth="yes"/>
      <point x="263.93333333333334" y="390.2666666666667"/>
      <point x="247.76666666666668" y="325.6333333333333"/>
    </contour>
    <contour>
      <point x="643.5333333333334" y="-10.0" type="curve" smooth="yes"/>
      <point x="754.3000000000001" y="-10.0"/>
      <point x="808.3666666666667" y="79.0"/>
      <point x="808.3666666666667" y="213.0" type="curve" smooth="yes"/>
      <point x="808.3666666666667" y="347.0"/>
      <point x="754.3000000000001" y="434.0"/>
      <point x="644.5333333333334" y="434.0" type="curve" smooth="yes"/>
      <point x="528.4" y="434.0"/>
      <point x="479.96666666666664" y="347.0"/>
      <point x="479.96666666666664" y="213.0" type="curve" smooth="yes"/>
      <point x="479.96666666666664" y="79.0"/>
      <point x="528.4" y="-10.0"/>
    </contour>
    <contour>
      <point x="643.5333333333334" y="35.63333333333333" type="curve" smooth="yes"/>
      <point x="595.8333333333334" y="35.63333333333333"/>
      <point x="577.0333333333334" y="100.26666666666667"/>
      <point x="577.0333333333334" y="213.0" type="curve" smooth="yes"/>
      <point x="577.0333333333334" y="323.7333333333333"/>
      <point x="595.2" y="387.3666666666667"/>
      <point x="644.1666666666667" y="387.3666666666667" type="curve" smooth="yes"/>
      <point x="693.5" y="387.3666666666667"/>
      <point x="709.0333333333333" y="323.73333333333335"/>
      <point x="709.0333333333333" y="213.0" type="curve" smooth="yes"/>
      <point x="709.0333333333333" y="100.26666666666667"/>
      <point x="693.5" y="35.63333333333333"/>
    </contour>
  </outline>
</glyph>
<glyph name="quotesingle" format="2">
  <advance width="253.86666666666667"/>
  <unicode hex="0027"/>
  <outline>
    <contour>
      <point x="98.16666666666666" y="455.1666666666667" type="line"/>
      <point x="155.06666666666666" y="455.1666666666667" type="line"/>
      <point x="193.4333333333333" y="714.0" type="line"/>
      <point x="59.800000000000004" y="714.0" type="line"/>
    </contour>
  </outline>
</glyph>
<glyph name="parenleft" format="2">
  <advance width="387.73333333333335"/>
  <unicode hex="0028"/>
  <outline>
    <contour>
      <point x="319.0333333333333" y="-134.73333333333335" type="curve"/>
      <point x="319.0333333333333" y="-77.63333333333334" type="line"/>
      <point x="200.03333333333333" y="4.366666666666666"/>
      <point x="178.66666666666666" y="159.0"/>
      <point x="178.66666666666666" y="318.0" type="curve" smooth="yes"/>
      <point x="178.66666666666666" y="476.0"/>
      <point x="200.03333333333333" y="629.2666666666667"/>
      <point x="319.0333333333333" y="711.6333333333333" type="curve"/>
      <point x="319.0333333333333" y="766.7333333333333" type="line"/>
      <point x="120.63333333333333" y="685.0"/>
      <point x="42.199999999999996" y="542.5333333333333"/>
      <point x="42.199999999999996" y="318.0" type="curve" smooth="yes"/>
      <point x="42.199999999999996" y="91.46666666666667"/>
      <point x="120.63333333333333" y="-52.266666666666666"/>
    </contour>
  </outline>
</glyph>
<glyph name="parenright" format="2">
  <advance width="406.1"/>
  <unicode hex="0029"/>
  <outline>
    <contour>
      <point x="87.43333333333334" y="-134.73333333333335" type="line"/>
      <point x="285.83333333333337" y="-52.266666666666666"/>
      <point x="363.9" y="91.46666666666667"/>
      <point x="363.9" y="318.0" type="curve" smooth="yes"/>
      <point x="363.9" y="542.5333333333333"/>
      <point x="285.83333333333337" y="685.0"/>
      <point x="87.43333333333334" y="766.7333333333333" type="curve"/>
      <point x="87.43333333333334" y="711.6333333333333" type="line"/>
      <point x="205.43333333333334" y="629.2666666666667"/>
      <point x="227.8" y="476.0"/>
      <point x="227.8" y="318.0" type="curve" smooth="yes"/>
      <point x="227.8" y="159.0"/>
      <point x="205.43333333333334" y="4.366666666666666"/>
      <point x="87.43333333333334" y="-77.63333333333334" type="curve"/>
    </contour>
  </outline>
</glyph>
<glyph name="asterisk" format="2">
  <advance width="462.43333333333334"/>
  <unicode hex="002A"/>
  <outline>
    <contour>
      <point x="183.23333333333332" y="370.53333333333336" type="line"/>
      <point x="279.6666666666667" y="370.53333333333336" type="line"/>
      <point x="248.76666666666665" y="532.6333333333333" type="line"/>
      <point x="388.03333333333336" y="432.26666666666665" type="line"/>
      <point x="427.93333333333334" y="521.6333333333333" type="line"/>
      <point x="281.5" y="565.2666666666667" type="line"/>
      <point x="427.93333333333334" y="608.9" type="line"/>
      <point x="388.03333333333336" y="698.2666666666667" type="line"/>
      <point x="248.76666666666665" y="597.5333333333333" type="line"/>
      <point x="280.6666666666667" y="760.0" type="line"/>
      <point x="183.23333333333332" y="760.0" type="line"/>
      <point x="211.86666666666667" y="596.5333333333333" type="line"/>
      <point x="73.23333333333333" y="700.2666666666667" type="line"/>
      <point x="34.333333333333336" y="609.9" type="line"/>
      <point x="180.76666666666665" y="565.2666666666667" type="line"/>
      <point x="34.333333333333336" y="520.6333333333333" type="line"/>
      <point x="73.23333333333333" y="430.26666666666665" type="line"/>
      <point x="211.5" y="533.0" type="line"/>
    </contour>
  </outline>
</glyph>
<glyph name="plus" format="2">
  <advance width="509.8666666666667"/>
  <unicode hex="002B"/>
  <outline>
    <contour>
      <point x="220.7" y="143.0" type="line"/>
      <point x="288.1666666666667" y="143.0" type="line"/>
      <point x="288.1666666666667" y="324.6333333333333" type="line"/>
      <point x="454.76666666666665" y="324.6333333333333" type="line"/>
      <point x="454.76666666666665" y="390.3666666666667" type="line"/>
      <point x="288.1666666666667" y="390.3666666666667" type="line"/>
      <point x="288.1666666666667" y="572.0" type="line"/>
      <point x="220.7" y="572.0" type="line"/>
      <point x="220.7" y="390.3666666666667" type="line"/>
      <point x="55.099999999999994" y="390.3666666666667" type="line"/>
      <point x="55.099999999999994" y="324.6333333333333" type="line"/>
      <point x="220.7" y="324.6333333333333" type="line"/>
    </contour>
  </outline>
</glyph>
<glyph name="comma" format="2">
  <advance width="303.9"/>
  <unicode hex="002C"/>
  <outline>
    <contour>
      <point x="77.73333333333333" y="-154.0" type="line"/>
      <point x="194.4" y="-119.73333333333333"/>
      <point x="238.46666666666667" y="-45.46666666666666"/>
      <point x="238.46666666666667" y="37.43333333333334" type="curve" smooth="yes"/>
      <point x="238.46666666666667" y="102.16666666666666"/>
      <point x="208.76666666666665" y="140.63333333333333"/>
      <point x="160.5" y="140.63333333333333" type="curve" smooth="yes"/>
      <point x="123.33333333333333" y="140.63333333333333"/>
      <point x="93.16666666666667" y="117.63333333333333"/>
      <point x="93.16666666666667" y="76.36666666666667" type="curve" smooth="yes"/>
      <point x="93.16666666666667" y="5.633333333333334"/>
      <point x="160.29999999999998" y="13.533333333333333"/>
      <point x="160.29999999999998" y="-24.366666666666667" type="curve" smooth="yes"/>
      <point x="160.29999999999998" y="-61.0"/>
      <point x="133.13333333333333" y="-86.36666666666667"/>
      <point x="77.73333333333333" y="-107.0" type="curve"/>
    </contour>
  </outline>
</glyph>
<glyph name="hyphen" format="2">
  <advance width="289.4666666666667"/>
  <unicode hex="002D"/>
  <outline>
    <contour>
      <point x="23.533333333333335" y="225.9" type="line"/>
      <point x="265.93333333333334" y="225.9" type="line"/>
      <point x="265.93333333333334" y="319.1" type="line"/>
      <point x="23.533333333333335" y="319.1" type="line"/>
    </contour>
  </outline>
</glyph>
<glyph name="period" format="2">
  <advance width="300.09999999999997"/>
  <unicode hex="002E"/>
  <outline>
    <contour>
      <point x="169.23333333333335" y="-8.0" type="curve" smooth="yes"/>
      <point x="207.13333333333333" y="-8.0"/>
      <point x="239.76666666666668" y="10.633333333333333"/>
      <point x="239.76666666666668" y="66.63333333333333" type="curve" smooth="yes"/>
      <point x="239.76666666666668" y="122.63333333333333"/>
      <point x="207.13333333333333" y="140.63333333333333"/>
      <point x="169.23333333333335" y="140.63333333333333" type="curve" smooth="yes"/>
      <point x="128.96666666666667" y="140.63333333333333"/>
      <point x="97.7" y="122.63333333333333"/>
      <point x="97.7" y="66.63333333333333" type="curve" smooth="yes"/>
      <point x="97.7" y="10.633333333333333"/>
      <point x="128.96666666666667" y="-8.0"/>
    </contour>
  </outline>
</glyph>
<glyph name="slash" format="2">
  <advance width="268.56666666666666"/>
  <unicode hex="002F"/>
  <outline>
    <contour>
      <point x="0.0" y="-121.0" type="line"/>
      <point x="64.16666666666666" y="-121.0" type="line"/>
      <point x="268.56666666666666" y="760.0" type="line"/>
      <point x="206.76666666666665" y="760.0" type="line"/>
    </contour>
  </outline>
</glyph>
<glyph name="zero" format="2">
  <advance width="521.2333333333333"/>
  <unicode hex="0030"/>
  <outline>
    <contour>
      <point x="260.93333333333334" y="-10.0" type="curve" smooth="yes"/>
      <point x="419.8666666666667" y="-10.0"/>
      <point x="486.6333333333333" y="134.43333333333334"/>
      <point x="486.6333333333333" y="358.0" type="curve" smooth="yes"/>
      <point x="486.6333333333333" y="582.9333333333333"/>
      <point x="420.6" y="724.0"/>
      <point x="261.93333333333334" y="724.0" type="curve" smooth="yes"/>
      <point x="94.0" y="724.0"/>
      <point x="34.233333333333334" y="581.8333333333333"/>
      <point x="34.233333333333334" y="359.0" type="curve" smooth="yes"/>
      <point x="34.233333333333334" y="133.7"/>
      <point x="94.36666666666667" y="-10.0"/>
    </contour>
    <contour>
      <point x="260.93333333333334" y="50.0" type="curve" smooth="yes"/>
      <point x="186.10000000000002" y="50.0"/>
      <point x="166.86666666666667" y="163.63333333333333"/>
      <point x="166.86666666666667" y="358.0" type="curve" smooth="yes"/>
      <point x="166.86666666666667" y="552.3666666666667"/>
      <point x="186.10000000000002" y="664.0"/>
      <point x="261.93333333333334" y="664.0" type="curve" smooth="yes"/>
      <point x="335.4" y="664.0"/>
      <point x="354.3666666666667" y="552.3666666666667"/>
      <point x="354.3666666666667" y="358.0" type="curve" smooth="yes"/>
      <point x="354.3666666666667" y="163.63333333333333"/>
      <point x="335.4" y="50.0"/>
    </contour>
  </outline>
</glyph>
<glyph name="one" format="2">
  <advance width="521.2333333333333"/>
  <unicode hex="0031"/>
  <outline>
    <contour>
      <point x="87.1" y="0.0" type="line"/>
      <point x="464.83333333333337" y="0.0" type="line"/>
      <point x="464.83333333333337" y="48.733333333333334" type="line"/>
      <point x="405.90000000000003" y="48.733333333333334" type="line" smooth="yes"/>
      <point x="365.2" y="48.733333333333334"/>
      <point x="344.83333333333337" y="66.73333333333333"/>
      <point x="344.83333333333337" y="116.0" type="curve" smooth="yes"/>
      <point x="344.83333333333337" y="718.0" type="line"/>
      <point x="251.73333333333335" y="718.0" type="line"/>
      <point x="186.5" y="667.1" type="line" smooth="yes"/>
      <point x="124.53333333333333" y="618.4666666666667"/>
      <point x="81.73333333333333" y="600.8333333333334"/>
      <point x="44.3" y="590.8333333333334" type="curve"/>
      <point x="44.3" y="550.1"/>
      <point x="67.2" y="524.4666666666667"/>
      <point x="96.73333333333333" y="524.4666666666667" type="curve" smooth="yes"/>
      <point x="134.16666666666666" y="524.4666666666667"/>
      <point x="170.33333333333334" y="564.2666666666668"/>
      <point x="217.3" y="624.4333333333334" type="curve"/>
      <point x="217.3" y="116.0" type="line" smooth="yes"/>
      <point x="217.3" y="61.0"/>
      <point x="192.3" y="48.733333333333334"/>
      <point x="155.86666666666667" y="48.733333333333334" type="curve" smooth="yes"/>
      <point x="87.1" y="48.733333333333334" type="line"/>
    </contour>
  </outline>
</glyph>
<glyph name="two" format="2">
  <advance width="521.2333333333333"/>
  <unicode hex="0032"/>
  <outline>
    <contour>
      <point x="39.400000000000006" y="0.0" type="line"/>
      <point x="471.6666666666667" y="0.0" type="line"/>
      <point x="476.3" y="195.83333333333334" type="line"/>
      <point x="424.6666666666667" y="195.83333333333334" type="line"/>
      <point x="418.3" y="169.73333333333332" type="line" smooth="yes"/>
      <point x="407.3" y="125.89999999999999"/>
      <point x="382.5666666666667" y="98.46666666666667"/>
      <point x="340.16666666666663" y="98.46666666666667" type="curve" smooth="yes"/>
      <point x="126.86666666666666" y="98.46666666666667" type="line"/>
      <point x="253.3" y="235.03333333333333" type="line" smooth="yes"/>
      <point x="390.56666666666666" y="374.6"/>
      <point x="453.5" y="455.46666666666664"/>
      <point x="453.5" y="555.8" type="curve" smooth="yes"/>
      <point x="453.5" y="657.8"/>
      <point x="378.9" y="724.0"/>
      <point x="244.66666666666669" y="724.0" type="curve" smooth="yes"/>
      <point x="111.9" y="724.0"/>
      <point x="45.300000000000004" y="661.4333333333333"/>
      <point x="45.300000000000004" y="588.2666666666667" type="curve" smooth="yes"/>
      <point x="45.300000000000004" y="524.9000000000001"/>
      <point x="93.13333333333334" y="505.3666666666667"/>
      <point x="153.46666666666667" y="505.3666666666667" type="curve"/>
      <point x="153.46666666666667" y="605.8333333333334"/>
      <point x="175.10000000000002" y="667.2666666666667"/>
      <point x="244.66666666666669" y="667.2666666666667" type="curve" smooth="yes"/>
      <point x="294.7" y="667.2666666666667"/>
      <point x="323.5" y="626.7333333333333"/>
      <point x="323.5" y="548.9" type="curve" smooth="yes"/>
      <point x="323.5" y="451.6333333333333"/>
      <point x="291.9666666666667" y="379.96666666666664"/>
      <point x="182.56666666666666" y="254.60000000000002" type="curve" smooth="yes"/>
      <point x="39.400000000000006" y="89.26666666666667" type="line"/>
    </contour>
  </outline>
</glyph>
<glyph name="three" format="2">
  <advance width="521.2333333333333"/>
  <unicode hex="0033"/>
  <outline>
    <contour>
      <point x="229.96666666666667" y="-10.0" type="curve" smooth="yes"/>
      <point x="353.2" y="-10.0"/>
      <point x="477.56666666666666" y="43.0"/>
      <point x="477.56666666666666" y="203.53333333333333" type="curve" smooth="yes"/>
      <point x="477.56666666666666" y="323.33333333333337"/>
      <point x="385.56666666666666" y="367.53333333333336"/>
      <point x="310.8666666666667" y="380.26666666666665" type="curve"/>
      <point x="392.5333333333333" y="406.6333333333334"/>
      <point x="454.40000000000003" y="471.1666666666667"/>
      <point x="454.40000000000003" y="561.1666666666666" type="curve" smooth="yes"/>
      <point x="454.40000000000003" y="664.6333333333333"/>
      <point x="372.5333333333333" y="724.0"/>
      <point x="244.5" y="724.0" type="curve" smooth="yes"/>
      <point x="112.10000000000001" y="724.0"/>
      <point x="44.86666666666667" y="665.0666666666666"/>
      <point x="44.86666666666667" y="592.5333333333333" type="curve" smooth="yes"/>
      <point x="44.86666666666667" y="536.2666666666667"/>
      <point x="87.76666666666667" y="515.3666666666667"/>
      <point x="152.1" y="515.3666666666667" type="curve"/>
      <point x="152.1" y="594.3666666666667"/>
      <point x="169.56666666666666" y="667.2666666666667"/>
      <point x="240.03333333333333" y="667.2666666666667" type="curve" smooth="yes"/>
      <point x="295.9666666666667" y="667.2666666666667"/>
      <point x="323.1333333333333" y="622.2666666666667"/>
      <point x="323.1333333333333" y="548.0" type="curve" smooth="yes"/>
      <point x="323.1333333333333" y="457.0"/>
      <point x="280.03333333333336" y="398.3666666666667"/>
      <point x="199.26666666666665" y="398.3666666666667" type="curve"/>
      <point x="146.43333333333334" y="398.3666666666667" type="line"/>
      <point x="146.43333333333334" y="341.3666666666666" type="line"/>
      <point x="196.53333333333333" y="341.3666666666666" type="line" smooth="yes"/>
      <point x="292.73333333333335" y="341.3666666666666"/>
      <point x="345.6666666666667" y="286.0"/>
      <point x="345.6666666666667" y="204.53333333333333" type="curve" smooth="yes"/>
      <point x="345.6666666666667" y="89.36666666666666"/>
      <point x="289.6333333333333" y="53.733333333333334"/>
      <point x="225.96666666666667" y="53.733333333333334" type="curve" smooth="yes"/>
      <point x="156.20000000000002" y="53.733333333333334"/>
      <point x="110.13333333333334" y="102.19999999999999"/>
      <point x="110.13333333333334" y="180.93333333333334" type="curve"/>
      <point x="68.5" y="180.93333333333334"/>
      <point x="34.4" y="155.93333333333334"/>
      <point x="34.4" y="108.56666666666666" type="curve" smooth="yes"/>
      <point x="34.4" y="44.63333333333333"/>
      <point x="91.36666666666667" y="-10.0"/>
    </contour>
  </outline>
</glyph>
<glyph name="four" format="2">
  <advance width="521.2333333333333"/>
  <unicode hex="0034"/>
  <outline>
    <contour>
      <point x="176.29999999999998" y="0.0" type="line"/>
      <point x="492.0" y="0.0" type="line"/>
      <point x="492.0" y="48.733333333333334" type="line"/>
      <point x="480.1" y="48.733333333333334" type="line" smooth="yes"/>
      <point x="438.0333333333333" y="48.733333333333334"/>
      <point x="403.2333333333333" y="57.733333333333334"/>
      <point x="403.2333333333333" y="120.73333333333333" type="curve" smooth="yes"/>
      <point x="403.2333333333333" y="189.63333333333335" type="line"/>
      <point x="504.23333333333335" y="189.63333333333335" type="line"/>
      <point x="504.23333333333335" y="252.0" type="line"/>
      <point x="403.2333333333333" y="252.0" type="line"/>
      <point x="403.2333333333333" y="714.0" type="line"/>
      <point x="281.8666666666667" y="714.0" type="line"/>
      <point x="13.533333333333333" y="243.36666666666665" type="line"/>
      <point x="13.533333333333333" y="189.63333333333335" type="line"/>
      <point x="278.6" y="189.63333333333335" type="line"/>
      <point x="278.6" y="120.73333333333333" type="line" smooth="yes"/>
      <point x="278.6" y="57.733333333333334"/>
      <point x="244.53333333333333" y="48.733333333333334"/>
      <point x="202.1" y="48.733333333333334" type="curve" smooth="yes"/>
      <point x="176.29999999999998" y="48.733333333333334" type="line"/>
    </contour>
    <contour>
      <point x="81.96666666666667" y="252.0" type="line"/>
      <point x="208.56666666666666" y="475.1333333333334" type="line" smooth="yes"/>
      <point x="227.66666666666669" y="511.0"/>
      <point x="271.5" y="592.3"/>
      <point x="285.23333333333335" y="626.7" type="curve"/>
      <point x="280.23333333333335" y="564.7"/>
      <point x="278.6" y="491.56666666666666"/>
      <point x="278.6" y="433.56666666666666" type="curve" smooth="yes"/>
      <point x="278.6" y="252.0" type="line"/>
    </contour>
  </outline>
</glyph>
<glyph name="five" format="2">
  <advance width="521.2333333333333"/>
  <unicode hex="0035"/>
  <outline>
    <contour>
      <point x="228.5" y="-10.0" type="curve" smooth="yes"/>
      <point x="348.2" y="-10.0"/>
      <point x="467.56666666666666" y="60.16666666666667"/>
      <point x="467.56666666666666" y="219.0" type="curve" smooth="yes"/>
      <point x="467.56666666666666" y="361.0"/>
      <point x="373.16666666666663" y="432.3666666666667"/>
      <point x="233.93333333333334" y="432.3666666666667" type="curve" smooth="yes"/>
      <point x="193.63333333333333" y="432.3666666666667"/>
      <point x="150.36666666666665" y="424.3666666666667"/>
      <point x="130.1" y="416.0" type="curve"/>
      <point x="147.36666666666667" y="615.9" type="line"/>
      <point x="336.90000000000003" y="615.9" type="line" smooth="yes"/>
      <point x="369.23333333333335" y="615.9"/>
      <point x="375.4" y="602.2666666666667"/>
      <point x="381.50000000000006" y="574.4333333333333" type="curve" smooth="yes"/>
      <point x="388.2333333333333" y="543.9" type="line"/>
      <point x="438.5" y="543.9" type="line"/>
      <point x="433.8666666666667" y="714.0" type="line"/>
      <point x="95.4" y="714.0" type="line"/>
      <point x="64.5" y="365.1" type="line"/>
      <point x="98.3" y="350.6333333333333" type="line"/>
      <point x="125.56666666666666" y="360.6333333333333"/>
      <point x="155.2" y="371.3666666666666"/>
      <point x="205.5" y="371.3666666666666" type="curve" smooth="yes"/>
      <point x="286.79999999999995" y="371.3666666666666"/>
      <point x="335.66666666666663" y="321.0"/>
      <point x="335.66666666666663" y="219.0" type="curve" smooth="yes"/>
      <point x="335.66666666666663" y="93.26666666666667"/>
      <point x="282.0666666666667" y="54.26666666666667"/>
      <point x="216.4" y="54.26666666666667" type="curve" smooth="yes"/>
      <point x="140.26666666666665" y="54.26666666666667"/>
      <point x="111.3" y="112.2"/>
      <point x="111.3" y="169.93333333333334" type="curve"/>
      <point x="67.86666666666667" y="169.93333333333334"/>
      <point x="40.5" y="147.2"/>
      <point x="40.5" y="104.83333333333333" type="curve" smooth="yes"/>
      <point x="40.5" y="49.1"/>
      <point x="88.39999999999999" y="-10.0"/>
    </contour>
  </outline>
</glyph>
<glyph name="six" format="2">
  <advance width="521.2333333333333"/>
  <unicode hex="0036"/>
  <outline>
    <contour>
      <point x="273.2" y="-10.0" type="curve" smooth="yes"/>
      <point x="411.23333333333335" y="-10.0"/>
      <point x="484.73333333333335" y="88.0"/>
      <point x="484.73333333333335" y="230.0" type="curve" smooth="yes"/>
      <point x="484.73333333333335" y="359.0"/>
      <point x="411.23333333333335" y="436.0"/>
      <point x="298.6666666666667" y="436.0" type="curve" smooth="yes"/>
      <point x="235.33333333333334" y="436.0"/>
      <point x="196.1" y="414.6333333333334"/>
      <point x="169.66666666666666" y="393.3666666666666" type="curve"/>
      <point x="176.3" y="571.2666666666667"/>
      <point x="219.33333333333334" y="669.2666666666667"/>
      <point x="296.8" y="669.2666666666667" type="curve" smooth="yes"/>
      <point x="349.3" y="669.2666666666667"/>
      <point x="368.40000000000003" y="610.2"/>
      <point x="368.40000000000003" y="544.9" type="curve"/>
      <point x="438.56666666666666" y="544.9"/>
      <point x="467.09999999999997" y="574.5333333333333"/>
      <point x="467.09999999999997" y="615.6333333333333" type="curve" smooth="yes"/>
      <point x="467.09999999999997" y="672.0"/>
      <point x="417.93333333333334" y="724.0"/>
      <point x="302.0666666666667" y="724.0" type="curve" smooth="yes"/>
      <point x="128.26666666666665" y="724.0"/>
      <point x="45.766666666666666" y="562.1"/>
      <point x="45.766666666666666" y="340.06666666666666" type="curve" smooth="yes"/>
      <point x="45.766666666666666" y="97.0"/>
      <point x="138.53333333333333" y="-10.0"/>
    </contour>
    <contour>
      <point x="275.09999999999997" y="50.63333333333333" type="curve" smooth="yes"/>
      <point x="210.86666666666667" y="50.63333333333333"/>
      <point x="171.03333333333333" y="136.03333333333333"/>
      <point x="169.03333333333333" y="329.93333333333334" type="curve"/>
      <point x="188.83333333333334" y="352.3666666666667"/>
      <point x="227.13333333333333" y="378.90000000000003"/>
      <point x="268.3" y="378.90000000000003" type="curve" smooth="yes"/>
      <point x="325.59999999999997" y="378.90000000000003"/>
      <point x="359.56666666666666" y="331.0"/>
      <point x="359.56666666666666" y="220.0" type="curve" smooth="yes"/>
      <point x="359.56666666666666" y="103.0"/>
      <point x="328.23333333333335" y="50.63333333333333"/>
    </contour>
  </outline>
</glyph>
<glyph name="seven" format="2">
  <advance width="521.2333333333333"/>
  <unicode hex="0037"/>
  <outline>
    <contour>
      <point x="157.3" y="0.0" type="line"/>
      <point x="237.29999999999998" y="0.0" type="line"/>
      <point x="484.06666666666666" y="672.2666666666667" type="line"/>
      <point x="484.06666666666666" y="714.0" type="line"/>
      <point x="50.233333333333334" y="714.0" type="line"/>
      <point x="45.233333333333334" y="514.9" type="line"/>
      <point x="98.23333333333333" y="514.9" type="line"/>
      <point x="103.60000000000001" y="564.1666666666666" type="line" smooth="yes"/>
      <point x="106.60000000000001" y="598.2666666666667"/>
      <point x="123.39999999999999" y="615.9"/>
      <point x="157.20000000000002" y="615.9" type="curve" smooth="yes"/>
      <point x="398.20000000000005" y="615.9" type="line"/>
    </contour>
  </outline>
</glyph>
<glyph name="eight" format="2">
  <advance width="521.2333333333333"/>
  <unicode hex="0038"/>
  <outline>
    <contour>
      <point x="255.03333333333333" y="-10.0" type="curve" smooth="yes"/>
      <point x="401.6" y="-10.0"/>
      <point x="489.3666666666667" y="63.733333333333334"/>
      <point x="489.3666666666667" y="187.06666666666666" type="curve" smooth="yes"/>
      <point x="489.3666666666667" y="277.0333333333333"/>
      <point x="439.5" y="333.09999999999997"/>
      <point x="336.93333333333334" y="385.0" type="curve"/>
      <point x="413.43333333333334" y="424.8"/>
      <point x="462.03333333333336" y="467.73333333333335"/>
      <point x="462.03333333333336" y="553.3000000000001" type="curve" smooth="yes"/>
      <point x="462.03333333333336" y="651.7333333333333"/>
      <point x="394.06666666666666" y="724.0"/>
      <point x="265.93333333333334" y="724.0" type="curve" smooth="yes"/>
      <point x="112.19999999999999" y="724.0"/>
      <point x="53.4" y="638.9333333333333"/>
      <point x="53.4" y="543.7333333333333" type="curve" smooth="yes"/>
      <point x="53.4" y="460.06666666666666"/>
      <point x="99.19999999999999" y="405.6333333333334"/>
      <point x="171.70000000000002" y="362.09999999999997" type="curve"/>
      <point x="90.66666666666667" y="322.40000000000003"/>
      <point x="31.866666666666667" y="273.2"/>
      <point x="31.866666666666667" y="178.43333333333334" type="curve" smooth="yes"/>
      <point x="31.866666666666667" y="74.26666666666667"/>
      <point x="102.73333333333333" y="-10.0"/>
    </contour>
    <contour>
      <point x="259.3" y="43.833333333333336" type="curve" smooth="yes"/>
      <point x="191.1" y="43.833333333333336"/>
      <point x="149.03333333333333" y="95.16666666666667"/>
      <point x="149.03333333333333" y="178.1" type="curve" smooth="yes"/>
      <point x="149.03333333333333" y="249.0"/>
      <point x="179.53333333333333" y="297.73333333333335"/>
      <point x="226.29999999999998" y="329.46666666666664" type="curve"/>
      <point x="326.73333333333335" y="278.83333333333337"/>
      <point x="368.9" y="235.9"/>
      <point x="368.9" y="169.16666666666669" type="curve" smooth="yes"/>
      <point x="368.9" y="93.8"/>
      <point x="325.4" y="43.833333333333336"/>
    </contour>
    <contour>
      <point x="282.03333333333336" y="414.6333333333333" type="curve"/>
      <point x="212.46666666666667" y="449.2666666666667"/>
      <point x="174.03333333333333" y="485.73333333333335"/>
      <point x="174.03333333333333" y="557.2" type="curve" smooth="yes"/>
      <point x="174.03333333333333" y="622.8333333333334"/>
      <point x="205.0" y="669.5333333333333"/>
      <point x="261.03333333333336" y="669.5333333333333" type="curve" smooth="yes"/>
      <point x="323.6" y="669.5333333333333"/>
      <point x="352.0333333333333" y="613.2"/>
      <point x="352.0333333333333" y="553.4666666666667" type="curve" smooth="yes"/>
      <point x="352.0333333333333" y="485.3666666666667"/>
      <point x="332.1333333333333" y="444.90000000000003"/>
    </contour>
  </outline>
</glyph>
<glyph name="nine" format="2">
  <advance width="521.2333333333333"/>
  <unicode hex="0039"/>
  <outline>
    <contour>
      <point x="211.60000000000002" y="-10.0" type="curve"/>
      <point x="400.23333333333335" y="-10.0"/>
      <point x="475.8333333333333" y="166.13333333333335"/>
      <point x="475.8333333333333" y="388.0" type="curve" smooth="yes"/>
      <point x="475.8333333333333" y="625.5666666666667"/>
      <point x="378.59999999999997" y="724.0"/>
      <point x="245.66666666666669" y="724.0" type="curve" smooth="yes"/>
      <point x="114.36666666666667" y="724.0"/>
      <point x="36.5" y="624.7333333333333"/>
      <point x="36.5" y="481.8333333333333" type="curve" smooth="yes"/>
      <point x="36.5" y="347.2"/>
      <point x="112.0" y="276.46666666666664"/>
      <point x="218.93333333333334" y="276.46666666666664" type="curve" smooth="yes"/>
      <point x="282.5333333333333" y="276.46666666666664"/>
      <point x="325.1333333333333" y="306.3666666666667"/>
      <point x="351.93333333333334" y="341.9" type="curve"/>
      <point x="345.6666666666667" y="147.36666666666665"/>
      <point x="303.0666666666667" y="49.733333333333334"/>
      <point x="216.06666666666666" y="49.733333333333334" type="curve" smooth="yes"/>
      <point x="153.63333333333333" y="49.733333333333334"/>
      <point x="124.03333333333333" y="93.83333333333334"/>
      <point x="106.13333333333333" y="146.93333333333334" type="curve"/>
      <point x="77.2" y="140.56666666666666"/>
      <point x="62.93333333333333" y="118.63333333333334"/>
      <point x="62.93333333333333" y="90.63333333333334" type="curve" smooth="yes"/>
      <point x="62.93333333333333" y="39.9"/>
      <point x="100.93333333333334" y="-10.0"/>
    </contour>
    <contour>
      <point x="253.66666666666669" y="342.0" type="curve" smooth="yes"/>
      <point x="192.63333333333335" y="342.3666666666667"/>
      <point x="161.66666666666669" y="390.56666666666666"/>
      <point x="161.66666666666669" y="488.0" type="curve" smooth="yes"/>
      <point x="161.66666666666669" y="602.0"/>
      <point x="193.63333333333333" y="662.3666666666667"/>
      <point x="250.76666666666665" y="662.3666666666667" type="curve" smooth="yes"/>
      <point x="312.16666666666663" y="662.3666666666667"/>
      <point x="350.3" y="589.1"/>
      <point x="352.93333333333334" y="408.8666666666667" type="curve"/>
      <point x="334.3" y="371.9"/>
      <point x="301.8" y="342.3666666666667"/>
    </contour>
  </outline>
</glyph>
<glyph name="colon" format="2">
  <advance width="299.7333333333333"/>
  <unicode hex="003A"/>
  <outline>
    <contour>
      <point x="168.86666666666667" y="393.26666666666665" type="curve" smooth="yes"/>
      <point x="206.76666666666665" y="393.26666666666665"/>
      <point x="239.4" y="411.26666666666665"/>
      <point x="239.4" y="466.9" type="curve" smooth="yes"/>
      <point x="239.4" y="523.5333333333333"/>
      <point x="206.76666666666665" y="540.9"/>
      <point x="168.86666666666667" y="540.9" type="curve" smooth="yes"/>
      <point x="128.96666666666667" y="540.9"/>
      <point x="97.7" y="523.5333333333333"/>
      <point x="97.7" y="466.9" type="curve" smooth="yes"/>
      <point x="97.7" y="411.26666666666665"/>
      <point x="128.96666666666667" y="393.26666666666665"/>
    </contour>
    <contour>
      <point x="168.86666666666667" y="-8.0" type="curve" smooth="yes"/>
      <point x="206.76666666666665" y="-8.0"/>
      <point x="239.4" y="10.633333333333333"/>
      <point x="239.4" y="66.63333333333333" type="curve" smooth="yes"/>
      <point x="239.4" y="122.63333333333333"/>
      <point x="206.76666666666665" y="140.63333333333333"/>
      <point x="168.86666666666667" y="140.63333333333333" type="curve" smooth="yes"/>
      <point x="128.96666666666667" y="140.63333333333333"/>
      <point x="97.7" y="122.63333333333333"/>
      <point x="97.7" y="66.63333333333333" type="curve" smooth="yes"/>
      <point x="97.7" y="10.633333333333333"/>
      <point x="128.96666666666667" y="-8.0"/>
    </contour>
  </outline>
</glyph>
<glyph name="semicolon" format="2">
  <advance width="307.6"/>
  <unicode hex="003B"/>
  <outline>
    <contour>
      <point x="77.73333333333333" y="-154.0" type="line"/>
      <point x="194.76666666666665" y="-119.73333333333333"/>
      <point x="238.83333333333334" y="-45.46666666666666"/>
      <point x="238.83333333333334" y="37.43333333333334" type="curve" smooth="yes"/>
      <point x="238.83333333333334" y="102.16666666666666"/>
      <point x="208.5" y="140.63333333333333"/>
      <point x="159.86666666666665" y="140.63333333333333" type="curve" smooth="yes"/>
      <point x="123.7" y="140.63333333333333"/>
      <point x="93.53333333333333" y="117.63333333333333"/>
      <point x="93.53333333333333" y="76.36666666666667" type="curve" smooth="yes"/>
      <point x="93.53333333333333" y="5.633333333333334"/>
      <point x="160.66666666666669" y="13.533333333333333"/>
      <point x="160.66666666666669" y="-24.366666666666667" type="curve"/>
      <point x="160.66666666666669" y="-62.36666666666667"/>
      <point x="133.23333333333335" y="-86.36666666666667"/>
      <point x="77.73333333333333" y="-107.0" type="curve"/>
    </contour>
    <contour>
      <point x="167.76666666666668" y="393.26666666666665" type="curve" smooth="yes"/>
      <point x="205.4" y="393.26666666666665"/>
      <point x="238.93333333333334" y="411.26666666666665"/>
      <point x="238.93333333333334" y="466.9" type="curve" smooth="yes"/>
      <point x="238.93333333333334" y="523.5333333333333"/>
      <point x="205.4" y="540.9"/>
      <point x="167.76666666666668" y="540.9" type="curve" smooth="yes"/>
      <point x="127.23333333333333" y="540.9"/>
      <point x="96.60000000000001" y="523.5333333333333"/>
      <point x="96.60000000000001" y="466.9" type="curve" smooth="yes"/>
      <point x="96.60000000000001" y="411.26666666666665"/>
      <point x="127.23333333333333" y="393.26666666666665"/>
    </contour>
  </outline>
</glyph>
<glyph name="less" format="2">
  <advance width="509.8666666666667"/>
  <unicode hex="003C"/>
  <outline>
    <contour>
      <point x="454.76666666666665" y="106.63333333333334" type="line"/>
      <point x="454.76666666666665" y="180.1" type="line"/>
      <point x="150.06666666666666" y="357.0" type="line"/>
      <point x="454.76666666666665" y="535.9" type="line"/>
      <point x="454.76666666666665" y="609.3666666666667" type="line"/>
      <point x="55.1" y="377.0" type="line"/>
      <point x="55.1" y="338.0" type="line"/>
    </contour>
  </outline>
</glyph>
<glyph name="equal" format="2">
  <advance width="509.8666666666667"/>
  <unicode hex="003D"/>
  <outline>
    <contour>
      <point x="53.733333333333334" y="419.70000000000005" type="line"/>
      <point x="456.76666666666665" y="419.70000000000005" type="line"/>
      <point x="456.76666666666665" y="484.79999999999995" type="line"/>
      <point x="53.733333333333334" y="484.79999999999995" type="line"/>
    </contour>
    <contour>
      <point x="53.733333333333334" y="229.2" type="line"/>
      <point x="456.76666666666665" y="229.2" type="line"/>
      <point x="456.76666666666665" y="294.29999999999995" type="line"/>
      <point x="53.733333333333334" y="294.29999999999995" type="line"/>
    </contour>
  </outline>
</glyph>
<glyph name="question" format="2">
  <advance width="496.6"/>
  <unicode hex="003F"/>
  <outline>
    <contour>
      <point x="192.83333333333331" y="222.0" type="line"/>
      <point x="260.5" y="222.0" type="line"/>
      <point x="274.9666666666667" y="320.4666666666667" type="line"/>
      <point x="399.53333333333336" y="374.73333333333335"/>
      <point x="458.76666666666665" y="433.73333333333335"/>
      <point x="458.76666666666665" y="541.1" type="curve" smooth="yes"/>
      <point x="458.76666666666665" y="656.7333333333333"/>
      <point x="368.7333333333333" y="724.0"/>
      <point x="231.16666666666669" y="724.0" type="curve" smooth="yes"/>
      <point x="93.7" y="724.0"/>
      <point x="31.0" y="666.1"/>
      <point x="31.0" y="601.9333333333333" type="curve" smooth="yes"/>
      <point x="31.0" y="547.0333333333333"/>
      <point x="76.43333333333334" y="528.1333333333333"/>
      <point x="154.4" y="528.1333333333333" type="curve"/>
      <point x="154.4" y="615.4666666666666"/>
      <point x="178.2" y="665.1"/>
      <point x="233.70000000000002" y="665.1" type="curve" smooth="yes"/>
      <point x="283.93333333333334" y="665.1"/>
      <point x="310.09999999999997" y="620.8000000000001"/>
      <point x="310.09999999999997" y="553.8000000000001" type="curve" smooth="yes"/>
      <point x="310.09999999999997" y="470.8"/>
      <point x="284.0333333333333" y="399.43333333333334"/>
      <point x="178.36666666666667" y="349.9" type="curve"/>
    </contour>
    <contour>
      <point x="224.53333333333336" y="-8.0" type="curve" smooth="yes"/>
      <point x="265.96666666666664" y="-8.0"/>
      <point x="301.1333333333333" y="11.266666666666667"/>
      <point x="301.1333333333333" y="71.06666666666666" type="curve" smooth="yes"/>
      <point x="301.1333333333333" y="130.86666666666667"/>
      <point x="265.96666666666664" y="150.13333333333333"/>
      <point x="224.53333333333336" y="150.13333333333333" type="curve" smooth="yes"/>
      <point x="182.73333333333335" y="150.13333333333333"/>
      <point x="149.3" y="130.86666666666667"/>
      <point x="149.3" y="71.06666666666666" type="curve" smooth="yes"/>
      <point x="149.3" y="11.266666666666667"/>
      <point x="182.73333333333335" y="-8.0"/>
    </contour>
  </outline>
</glyph>
<glyph name="bracketleft" format="2">
  <advance width="379.46666666666664"/>
  <unicode hex="005B"/>
  <outline>
    <contour>
      <point x="73.39999999999999" y="-128.0" type="line"/>
      <point x="319.06666666666666" y="-128.0" type="line"/>
      <point x="319.06666666666666" y="-79.26666666666668" type="line"/>
      <point x="278.3666666666667" y="-79.26666666666668" type="line" smooth="yes"/>
      <point x="236.66666666666666" y="-79.26666666666668"/>
      <point x="202.5" y="-70.26666666666668"/>
      <point x="202.5" y="-7.266666666666667" type="curve" smooth="yes"/>
      <point x="202.5" y="639.2666666666667" type="line" smooth="yes"/>
      <point x="202.5" y="702.2666666666667"/>
      <point x="236.66666666666666" y="711.2666666666667"/>
      <point x="278.3666666666667" y="711.2666666666667" type="curve" smooth="yes"/>
      <point x="319.06666666666666" y="711.2666666666667" type="line"/>
      <point x="319.06666666666666" y="760.0" type="line"/>
      <point x="73.39999999999999" y="760.0" type="line"/>
    </contour>
  </outline>
</glyph>
<glyph name="backslash" format="2">
  <advance width="268.56666666666666"/>
  <unicode hex="005C"/>
  <outline>
    <contour>
      <point x="204.76666666666665" y="-121.0" type="line"/>
      <point x="268.56666666666666" y="-121.0" type="line"/>
      <point x="63.166666666666664" y="760.0" type="line"/>
      <point x="0.0" y="760.0" type="line"/>
    </contour>
  </outline>
</glyph>
<glyph name="bracketright" format="2">
  <advance width="406.06666666666666"/>
  <unicode hex="005D"/>
  <outline>
    <contour>
      <point x="88.0" y="-128.0" type="line"/>
      <point x="332.6666666666667" y="-128.0" type="line"/>
      <point x="332.6666666666667" y="760.0" type="line"/>
      <point x="88.0" y="760.0" type="line"/>
      <point x="88.0" y="711.2666666666667" type="line"/>
      <point x="128.33333333333334" y="711.2666666666667" type="line" smooth="yes"/>
      <point x="170.4" y="711.2666666666667"/>
      <point x="204.2" y="702.2666666666667"/>
      <point x="204.2" y="639.2666666666667" type="curve" smooth="yes"/>
      <point x="204.2" y="-7.266666666666667" type="line" smooth="yes"/>
      <point x="204.2" y="-70.26666666666668"/>
      <point x="170.4" y="-79.26666666666668"/>
      <point x="128.33333333333334" y="-79.26666666666668" type="curve" smooth="yes"/>
      <point x="88.0" y="-79.26666666666668" type="line"/>
    </contour>
  </outline>
</glyph>
<glyph name="asciicircum" format="2">
  <advance width="509.5"/>
  <unicode hex="005E"/>
  <outline>
    <contour>
      <point x="38.099999999999994" y="264.0" type="line"/>
      <point x="107.53333333333333" y="264.0" type="line"/>
      <point x="253.43333333333334" y="612.5333333333333" type="line"/>
      <point x="400.96666666666664" y="264.0" type="line"/>
      <point x="470.1333333333333" y="264.0" type="line"/>
      <point x="272.7" y="714.0" type="line"/>
      <point x="235.16666666666666" y="714.0" type="line"/>
    </contour>
  </outline>
</glyph>
<glyph name="underscore" format="2">
  <advance width="427.8333333333333"/>
  <unicode hex="005F"/>
  <outline>
    <contour>
      <point x="-5.0" y="-141.36666666666667" type="line"/>
      <point x="432.46666666666664" y="-141.36666666666667" type="line"/>
      <point x="432.46666666666664" y="-83.0" type="line"/>
      <point x="-5.0" y="-83.0" type="line"/>
    </contour>
  </outline>
</glyph>
<glyph name="braceleft" format="2">
  <advance width="433.8333333333333"/>
  <unicode hex="007B"/>
  <outline>
    <contour>
      <point x="287.5" y="-126.0" type="curve" smooth="yes"/>
      <point x="369.1333333333333" y="-126.0" type="line"/>
      <point x="369.1333333333333" y="-77.26666666666668" type="line"/>
      <point x="334.23333333333335" y="-77.26666666666668" type="line" smooth="yes"/>
      <point x="281.26666666666665" y="-77.26666666666668"/>
      <point x="265.8333333333333" y="-41.266666666666666"/>
      <point x="265.8333333333333" y="23.366666666666667" type="curve" smooth="yes"/>
      <point x="265.8333333333333" y="195.0" type="line" smooth="yes"/>
      <point x="265.8333333333333" y="258.0"/>
      <point x="234.03333333333333" y="299.6333333333333"/>
      <point x="164.16666666666666" y="316.0" type="curve"/>
      <point x="164.16666666666666" y="321.3666666666667" type="line"/>
      <point x="234.76666666666668" y="336.73333333333335"/>
      <point x="265.8333333333333" y="378.0"/>
      <point x="265.8333333333333" y="440.0" type="curve" smooth="yes"/>
      <point x="265.8333333333333" y="611.0" type="line" smooth="yes"/>
      <point x="265.8333333333333" y="676.6333333333333"/>
      <point x="281.26666666666665" y="711.2666666666667"/>
      <point x="334.8666666666667" y="711.2666666666667" type="curve" smooth="yes"/>
      <point x="369.1333333333333" y="711.2666666666667" type="line"/>
      <point x="369.1333333333333" y="760.0" type="line"/>
      <point x="287.5" y="760.0" type="line" smooth="yes"/>
      <point x="187.16666666666669" y="760.0"/>
      <point x="134.36666666666667" y="707.0"/>
      <point x="134.36666666666667" y="615.6333333333333" type="curve" smooth="yes"/>
      <point x="134.36666666666667" y="442.0" type="line" smooth="yes"/>
      <point x="134.36666666666667" y="364.73333333333335"/>
      <point x="87.03333333333333" y="346.73333333333335"/>
      <point x="25.8" y="344.73333333333335" type="curve"/>
      <point x="25.8" y="291.6333333333333" type="line"/>
      <point x="87.03333333333333" y="288.6333333333333"/>
      <point x="134.36666666666667" y="271.0"/>
      <point x="134.36666666666667" y="192.0" type="curve" smooth="yes"/>
      <point x="134.36666666666667" y="20.366666666666667" type="line" smooth="yes"/>
      <point x="134.36666666666667" y="-70.0"/>
      <point x="187.16666666666669" y="-126.0"/>
    </contour>
  </outline>
</glyph>
<glyph name="bar" format="2">
  <advance width="521.2333333333333"/>
  <unicode hex="007C"/>
  <outline>
    <contour>
      <point x="228.03333333333333" y="-240.0" type="line"/>
      <point x="292.2" y="-240.0" type="line"/>
      <point x="292.2" y="760.0" type="line"/>
      <point x="228.03333333333333" y="760.0" type="line"/>
    </contour>
  </outline>
</glyph>
<glyph name="braceright" format="2">
  <advance width="453.4666666666667"/>
  <unicode hex="007D"/>
  <outline>
    <contour>
      <point x="84.7" y="-126.0" type="line"/>
      <point x="166.33333333333334" y="-126.0" type="line" smooth="yes"/>
      <point x="266.6666666666667" y="-126.0"/>
      <point x="318.4666666666667" y="-70.0"/>
      <point x="318.4666666666667" y="20.366666666666667" type="curve" smooth="yes"/>
      <point x="318.4666666666667" y="192.0" type="line" smooth="yes"/>
      <point x="318.4666666666667" y="271.0"/>
      <point x="367.43333333333334" y="288.6333333333333"/>
      <point x="428.0333333333333" y="291.6333333333333" type="curve"/>
      <point x="428.0333333333333" y="344.73333333333335" type="line"/>
      <point x="367.43333333333334" y="346.73333333333335"/>
      <point x="318.4666666666667" y="364.73333333333335"/>
      <point x="318.4666666666667" y="442.0" type="curve" smooth="yes"/>
      <point x="318.4666666666667" y="615.6333333333333" type="line" smooth="yes"/>
      <point x="318.4666666666667" y="707.0"/>
      <point x="266.6666666666667" y="760.0"/>
      <point x="166.33333333333334" y="760.0" type="curve" smooth="yes"/>
      <point x="84.7" y="760.0" type="line"/>
      <point x="84.7" y="711.2666666666667" type="line"/>
      <point x="119.6" y="711.2666666666667" type="line" smooth="yes"/>
      <point x="173.2" y="711.2666666666667"/>
      <point x="187.63333333333333" y="676.6333333333333"/>
      <point x="187.63333333333333" y="611.0" type="curve" smooth="yes"/>
      <point x="187.63333333333333" y="440.0" type="line" smooth="yes"/>
      <point x="187.63333333333333" y="378.0"/>
      <point x="219.70000000000002" y="336.73333333333335"/>
      <point x="290.66666666666663" y="321.3666666666667" type="curve"/>
      <point x="290.66666666666663" y="316.0" type="line"/>
      <point x="219.06666666666666" y="299.6333333333333"/>
      <point x="187.63333333333333" y="258.0"/>
      <point x="187.63333333333333" y="195.0" type="curve" smooth="yes"/>
      <point x="187.63333333333333" y="23.366666666666667" type="line" smooth="yes"/>
      <point x="187.63333333333333" y="-41.266666666666666"/>
      <point x="173.2" y="-77.26666666666668"/>
      <point x="119.60000000000001" y="-77.26666666666668" type="curve" smooth="yes"/>
      <point x="84.7" y="-77.26666666666668" type="line"/>
    </contour>
  </outline>
</glyph>
<glyph name="asciitilde" format="2">
  <advance width="509.8666666666667"/>
  <unicode hex="007E"/>
  <outline>
    <contour>
      <point x="38.266666666666666" y="264.6333333333333" type="curve"/>
      <point x="103.9" y="264.6333333333333" type="line"/>
      <point x="108.16666666666667" y="347.0"/>
      <point x="125.06666666666668" y="381.6333333333333"/>
      <point x="159.5" y="381.6333333333333" type="curve" smooth="yes"/>
      <point x="185.46666666666667" y="381.6333333333333"/>
      <point x="202.26666666666668" y="362.56666666666666"/>
      <point x="235.89999999999998" y="329.6333333333333" type="curve" smooth="yes"/>
      <point x="280.7333333333333" y="283.1333333333333"/>
      <point x="309.8" y="264.6333333333333"/>
      <point x="352.2" y="264.6333333333333" type="curve" smooth="yes"/>
      <point x="443.7" y="264.6333333333333"/>
      <point x="466.8" y="355.53333333333336"/>
      <point x="471.3333333333333" y="448.3666666666667" type="curve"/>
      <point x="405.06666666666666" y="448.3666666666667" type="line"/>
      <point x="400.5333333333333" y="368.8"/>
      <point x="385.90000000000003" y="331.3666666666667"/>
      <point x="352.1" y="331.3666666666667" type="curve" smooth="yes"/>
      <point x="327.93333333333334" y="331.3666666666667"/>
      <point x="309.3333333333333" y="350.90000000000003"/>
      <point x="278.06666666666666" y="381.3666666666667" type="curve" smooth="yes"/>
      <point x="229.0" y="428.3666666666667"/>
      <point x="202.36666666666667" y="448.3666666666667"/>
      <point x="159.66666666666669" y="448.3666666666667" type="curve" smooth="yes"/>
      <point x="67.53333333333333" y="448.3666666666667"/>
      <point x="41.9" y="359.1"/>
    </contour>
  </outline>
</glyph>
<glyph name="multiply" format="2">
  <advance width="509.8666666666667"/>
  <unicode hex="00D7"/>
  <outline>
    <contour>
      <point x="110.53333333333333" y="156.1" type="line"/>
      <point x="254.8" y="310.53333333333336" type="line"/>
      <point x="398.3333333333333" y="156.83333333333331" type="line"/>
      <point x="445.43333333333334" y="201.36666666666667" type="line"/>
      <point x="299.3333333333333" y="358.3666666666667" type="line"/>
      <point x="445.43333333333334" y="514.7333333333333" type="line"/>
      <point x="397.96666666666664" y="559.5333333333333" type="line"/>
      <point x="254.8" y="406.8333333333333" type="line"/>
      <point x="110.9" y="559.6333333333333" type="line"/>
      <point x="62.800000000000004" y="515.4666666666667" type="line"/>
      <point x="210.26666666666668" y="359.0" type="line"/>
      <point x="62.800000000000004" y="201.26666666666665" type="line"/>
    </contour>
  </outline>
</glyph>
<glyph name="divide" format="2">
  <advance width="509.8666666666667"/>
  <unicode hex="00F7"/>
  <outline>
    <contour>
      <point x="55.1" y="324.6333333333333" type="line"/>
      <point x="454.76666666666665" y="324.6333333333333" type="line"/>
      <point x="454.76666666666665" y="390.3666666666667" type="line"/>
      <point x="55.1" y="390.3666666666667" type="line"/>
    </contour>
    <contour>
      <point x="255.43333333333334" y="110.26666666666667" type="curve" smooth="yes"/>
      <point x="283.9666666666667" y="110.26666666666667"/>
      <point x="306.6" y="125.63333333333333"/>
      <point x="306.6" y="168.63333333333335" type="curve" smooth="yes"/>
      <point x="306.6" y="212.63333333333335"/>
      <point x="283.9666666666667" y="227.0"/>
      <point x="255.43333333333334" y="227.0" type="curve" smooth="yes"/>
      <point x="225.53333333333333" y="227.0"/>
      <point x="203.9" y="212.63333333333335"/>
      <point x="203.9" y="168.63333333333335" type="curve" smooth="yes"/>
      <point x="203.9" y="125.63333333333333"/>
      <point x="225.53333333333333" y="110.26666666666667"/>
    </contour>
    <contour>
      <point x="255.43333333333334" y="488.6333333333333" type="curve" smooth="yes"/>
      <point x="283.9666666666667" y="488.6333333333333"/>
      <point x="306.6" y="503.3666666666667"/>
      <point x="306.6" y="546.3666666666667" type="curve" smooth="yes"/>
      <point x="306.6" y="590.3666666666667"/>
      <point x="283.9666666666667" y="604.7333333333333"/>
      <point x="255.43333333333334" y="604.7333333333333" type="curve" smooth="yes"/>
      <point x="225.53333333333333" y="604.7333333333333"/>
      <point x="203.9" y="590.3666666666667"/>
      <point x="203.9" y="546.3666666666667" type="curve" smooth="yes"/>
      <point x="203.9" y="503.3666666666667"/>
      <point x="225.53333333333333" y="488.6333333333333"/>
    </contour>
  </outline>
</glyph>
<glyph name="udatta-deva" format="2">
  <unicode hex="0951"/>
  <anchor x="-299.0" y="-275.0" name="_vedic"/>
  <outline>
    <contour>
      <point x="-343.9" y="706.0" type="line"/>
      <point x="-255.36666666666667" y="706.0" type="line"/>
      <point x="-255.36666666666667" y="916.0" type="line"/>
      <point x="-343.9" y="916.0" type="line"/>
    </contour>
  </outline>
</glyph>
<glyph name="anudatta-deva" format="2">
  <unicode hex="0952"/>
  <anchor x="-299.0" y="420.0" name="_vedic"/>
  <outline>
    <contour>
      <point x="-518.0333333333333" y="-154.0" type="line"/>
      <point x="-79.6" y="-154.0" type="line"/>
      <point x="-79.6" y="-82.0" type="line"/>
      <point x="-518.0333333333333" y="-82.0" type="line"/>
    </contour>
  </outline>
</glyph>
<glyph name="danda-deva" format="2">
  <advance width="429.43333333333334"/>
  <unicode hex="0964"/>
  <outline>
    <contour>
      <point x="354.43333333333334" y="-35.0" type="line"/>
      <point x="362.43333333333334" y="-32.0" type="line"/>
      <point x="362.43333333333334" y="588.0" type="line"/>
      <point x="275.43333333333334" y="625.0" type="line"/>
      <point x="272.43333333333334" y="625.0" type="line"/>
      <point x="272.43333333333334" y="2.0" type="line"/>
    </contour>
  </outline>
</glyph>
<glyph name="dbldanda-deva" format="2">
  <advance width="601.7"/>
  <unicode hex="0965"/>
  <outline>
    <contour>
      <point x="527.7" y="-35.0" type="line"/>
      <point x="534.7" y="-32.0" type="line"/>
      <point x="534.7" y="588.0" type="line"/>
      <point x="448.7" y="625.0" type="line"/>
      <point x="445.7" y="625.0" type="line"/>
      <point x="445.7" y="2.0" type="line"/>
    </contour>
    <contour>
      <point x="354.43333333333334" y="-35.0" type="line"/>
      <point x="362.43333333333334" y="-32.0" type="line"/>
      <point x="362.43333333333334" y="588.0" type="line"/>
      <point x="275.43333333333334" y="625.0" type="line"/>
      <point x="272.43333333333334" y="625.0" type="line"/>
      <point x="272.43333333333334" y="2.0" type="line"/>
    </contour>
  </outline>
</glyph>
<glyph name="anji-beng" format="2">
  <advance width="556.7333333333333"/>
  <unicode hex="0980"/>
  <anchor x="299.33333333333337" y="583.0" name="top"/>
  <outline>
    <contour>
      <point x="459.8" y="-34.266666666666666" type="curve" smooth="yes"/>
      <point x="512.6" y="-34.266666666666666"/>
      <point x="540.9666666666666" y="-2.2666666666666666"/>
      <point x="540.9666666666666" y="45.733333333333334" type="curve" smooth="yes"/>
      <point x="540.9666666666666" y="93.63333333333333"/>
      <point x="508.70000000000005" y="124.63333333333334"/>
      <point x="468.1666666666667" y="124.63333333333334" type="curve" smooth="yes"/>
      <point x="423.3666666666667" y="124.63333333333334"/>
      <point x="407.73333333333335" y="91.63333333333334"/>
      <point x="406.09999999999997" y="62.0" type="curve"/>
      <point x="446.2666666666667" y="57.0" type="line"/>
      <point x="446.2666666666667" y="470.09999999999997" type="line" smooth="yes"/>
      <point x="446.2666666666667" y="561.7333333333333"/>
      <point x="381.1" y="631.0"/>
      <point x="273.7" y="631.0" type="curve" smooth="yes"/>
      <point x="146.9" y="631.0"/>
      <point x="46.766666666666666" y="538.7333333333333"/>
      <point x="46.766666666666666" y="404.8333333333333" type="curve" smooth="yes"/>
      <point x="46.766666666666666" y="276.46666666666664"/>
      <point x="126.63333333333334" y="203.03333333333333"/>
      <point x="224.83333333333334" y="203.03333333333333" type="curve" smooth="yes"/>
      <point x="289.96666666666664" y="203.03333333333333"/>
      <point x="327.1333333333333" y="242.29999999999998"/>
      <point x="327.1333333333333" y="300.2" type="curve" smooth="yes"/>
      <point x="327.1333333333333" y="355.73333333333335"/>
      <point x="294.33333333333337" y="390.6333333333333"/>
      <point x="244.46666666666667" y="390.6333333333333" type="curve" smooth="yes"/>
      <point x="199.03333333333333" y="390.6333333333333"/>
      <point x="167.60000000000002" y="358.1"/>
      <point x="167.60000000000002" y="310.2" type="curve" smooth="yes"/>
      <point x="167.60000000000002" y="292.8333333333333"/>
      <point x="170.6" y="275.2"/>
      <point x="175.23333333333335" y="264.93333333333334" type="curve"/>
      <point x="223.56666666666666" y="288.2" type="line"/>
      <point x="212.3" y="285.2"/>
      <point x="200.03333333333333" y="284.2"/>
      <point x="188.76666666666668" y="284.2" type="curve" smooth="yes"/>
      <point x="155.8" y="284.2"/>
      <point x="135.73333333333335" y="314.8333333333333"/>
      <point x="135.73333333333335" y="371.3666666666667" type="curve" smooth="yes"/>
      <point x="135.73333333333335" y="468.16666666666663"/>
      <point x="237.83333333333334" y="537.3666666666667"/>
      <point x="304.1333333333333" y="537.3666666666667" type="curve" smooth="yes"/>
      <point x="344.1" y="537.3666666666667"/>
      <point x="357.73333333333335" y="517.3666666666667"/>
      <point x="357.73333333333335" y="476.2" type="curve" smooth="yes"/>
      <point x="357.73333333333335" y="91.53333333333333" type="line" smooth="yes"/>
      <point x="357.73333333333335" y="19.633333333333333"/>
      <point x="395.0" y="-34.266666666666666"/>
    </contour>
  </outline>
</glyph>
<glyph name="anusvara-beng" format="2">
  <advance width="364.5"/>
  <unicode hex="0982"/>
  <anchor x="-214.1" y="0.0" name="vedic"/>
  <outline>
    <contour>
      <point x="177.26666666666665" y="335.0" type="curve" smooth="yes"/>
      <point x="258.76666666666665" y="335.0"/>
      <point x="317.73333333333335" y="395.3666666666667"/>
      <point x="317.73333333333335" y="481.0" type="curve" smooth="yes"/>
      <point x="317.73333333333335" y="559.0"/>
      <point x="266.66666666666663" y="622.0"/>
      <point x="186.8" y="622.0" type="curve" smooth="yes"/>
      <point x="105.93333333333334" y="622.0"/>
      <point x="48.23333333333333" y="560.0"/>
      <point x="48.23333333333333" y="476.0" type="curve" smooth="yes"/>
      <point x="48.23333333333333" y="400.26666666666665"/>
      <point x="97.5" y="335.0"/>
    </contour>
    <contour>
      <point x="151.83333333333331" y="407.0" type="curve" smooth="yes"/>
      <point x="134.66666666666666" y="407.0"/>
      <point x="120.5" y="419.0"/>
      <point x="120.5" y="442.3666666666667" type="curve" smooth="yes"/>
      <point x="120.5" y="489.6333333333333"/>
      <point x="175.1" y="548.0"/>
      <point x="216.23333333333335" y="548.0" type="curve" smooth="yes"/>
      <point x="236.3" y="548.0"/>
      <point x="246.83333333333331" y="534.6333333333333"/>
      <point x="246.83333333333331" y="517.0" type="curve" smooth="yes"/>
      <point x="246.83333333333331" y="472.3666666666667"/>
      <point x="193.96666666666667" y="407.0"/>
    </contour>
    <contour>
      <point x="305.79999999999995" y="-67.0" type="curve"/>
      <point x="353.8" y="-49.0" type="line"/>
      <point x="292.1" y="97.46666666666667"/>
      <point x="208.33333333333334" y="231.63333333333333"/>
      <point x="112.3" y="299.26666666666665" type="curve"/>
      <point x="46.96666666666666" y="180.0" type="line"/>
      <point x="139.63333333333333" y="130.0"/>
      <point x="208.3" y="81.36666666666667"/>
    </contour>
  </outline>
</glyph>
<glyph name="visarga-beng" format="2">
  <advance width="374.8333333333333"/>
  <unicode hex="0983"/>
  <anchor x="-214.1" y="0.0" name="vedic"/>
  <outline>
    <contour>
      <point x="181.7" y="333.73333333333335" type="curve" smooth="yes"/>
      <point x="266.3666666666667" y="333.73333333333335"/>
      <point x="327.23333333333335" y="394.73333333333335"/>
      <point x="327.23333333333335" y="481.0" type="curve" smooth="yes"/>
      <point x="327.23333333333335" y="560.2666666666667"/>
      <point x="274.9" y="623.2666666666667"/>
      <point x="191.23333333333335" y="623.2666666666667" type="curve" smooth="yes"/>
      <point x="107.83333333333333" y="623.2666666666667"/>
      <point x="48.23333333333333" y="561.2666666666667"/>
      <point x="48.23333333333333" y="476.0" type="curve" smooth="yes"/>
      <point x="48.23333333333333" y="399.6333333333333"/>
      <point x="99.4" y="333.73333333333335"/>
    </contour>
    <contour>
      <point x="156.89999999999998" y="405.73333333333335" type="curve" smooth="yes"/>
      <point x="139.73333333333332" y="405.73333333333335"/>
      <point x="124.93333333333332" y="417.73333333333335"/>
      <point x="124.93333333333332" y="440.4666666666667" type="curve" smooth="yes"/>
      <point x="124.93333333333332" y="488.3666666666667"/>
      <point x="178.9" y="549.2666666666667"/>
      <point x="220.66666666666669" y="549.2666666666667" type="curve" smooth="yes"/>
      <point x="241.36666666666667" y="549.2666666666667"/>
      <point x="251.9" y="535.9"/>
      <point x="251.9" y="518.2666666666667" type="curve" smooth="yes"/>
      <point x="251.9" y="473.6333333333333"/>
      <point x="200.93333333333334" y="405.73333333333335"/>
    </contour>
    <contour>
      <point x="182.33333333333334" y="-18.900000000000002" type="curve" smooth="yes"/>
      <point x="265.73333333333335" y="-18.900000000000002"/>
      <point x="325.3333333333333" y="41.1"/>
      <point x="325.3333333333333" y="127.1" type="curve" smooth="yes"/>
      <point x="325.3333333333333" y="205.1"/>
      <point x="273.6333333333333" y="267.1"/>
      <point x="191.23333333333335" y="267.1" type="curve" smooth="yes"/>
      <point x="109.1" y="267.1"/>
      <point x="49.49999999999999" y="205.73333333333332"/>
      <point x="49.49999999999999" y="121.73333333333333" type="curve" smooth="yes"/>
      <point x="49.49999999999999" y="46.0"/>
      <point x="100.03333333333333" y="-18.900000000000002"/>
    </contour>
    <contour>
      <point x="157.53333333333333" y="51.833333333333336" type="curve" smooth="yes"/>
      <point x="139.73333333333332" y="51.833333333333336"/>
      <point x="125.56666666666666" y="63.46666666666667"/>
      <point x="125.56666666666666" y="86.56666666666666" type="curve" smooth="yes"/>
      <point x="125.56666666666666" y="134.46666666666667"/>
      <point x="178.9" y="194.73333333333332"/>
      <point x="220.66666666666669" y="194.73333333333332" type="curve" smooth="yes"/>
      <point x="240.73333333333335" y="194.73333333333332"/>
      <point x="251.26666666666665" y="181.36666666666665"/>
      <point x="251.26666666666665" y="164.36666666666665" type="curve" smooth="yes"/>
      <point x="251.26666666666665" y="119.73333333333333"/>
      <point x="200.93333333333334" y="51.833333333333336"/>
    </contour>
  </outline>
</glyph>
<glyph name="a-beng" format="2">
  <advance width="758.6333333333333"/>
  <unicode hex="0985"/>
  <anchor x="688.9" y="0.0" name="bottom"/>
  <anchor x="689.2666666666667" y="87.0" name="bottom.rakaar"/>
  <anchor x="688.9" y="11.0" name="bottom.rvocalic"/>
  <anchor x="670.3666666666667" y="14.0" name="bottom.virama"/>
  <anchor x="688.9" y="550.0" name="top"/>
  <anchor x="688.9" y="550.0" name="topright"/>
  <anchor x="379.1333333333333" y="0.0" name="vedic"/>
  <outline>
    <contour>
      <point x="679.8000000000001" y="-24.0" type="line"/>
      <point x="688.1666666666667" y="-22.0" type="line"/>
      <point x="688.1666666666667" y="550.0" type="line"/>
      <point x="792.1666666666667" y="550.0" type="line"/>
      <point x="751.6333333333333" y="622.0" type="line"/>
      <point x="-33.53333333333333" y="622.0" type="line"/>
      <point x="6.366666666666666" y="550.0" type="line"/>
      <point x="600.2666666666667" y="550.0" type="line"/>
      <point x="600.2666666666667" y="82.96666666666667" type="line"/>
      <point x="615.7333333333333" y="93.36666666666667" type="line"/>
      <point x="582.3333333333333" y="168.86666666666667"/>
      <point x="540.2666666666667" y="213.79999999999998"/>
      <point x="499.1666666666667" y="242.1" type="curve"/>
      <point x="467.96666666666664" y="160.0" type="line"/>
      <point x="527.4" y="128.26666666666665"/>
      <point x="574.6666666666666" y="83.16666666666667"/>
      <point x="613.8333333333334" y="16.533333333333335" type="curve"/>
    </contour>
    <contour>
      <point x="335.8" y="48.56666666666667" type="curve" smooth="yes"/>
      <point x="447.90000000000003" y="48.56666666666667"/>
      <point x="533.1666666666667" y="128.0"/>
      <point x="533.1666666666667" y="277.0" type="curve" smooth="yes"/>
      <point x="533.1666666666667" y="399.7333333333333"/>
      <point x="460.56666666666666" y="500.0"/>
      <point x="323.0" y="500.0" type="curve" smooth="yes"/>
      <point x="240.66666666666666" y="500.0"/>
      <point x="188.6" y="454.0"/>
      <point x="188.6" y="380.0" type="curve" smooth="yes"/>
      <point x="188.6" y="315.0"/>
      <point x="232.4" y="269.0"/>
      <point x="297.2" y="269.0" type="curve" smooth="yes"/>
      <point x="362.26666666666665" y="269.0"/>
      <point x="396.43333333333334" y="316.0"/>
      <point x="396.43333333333334" y="379.0" type="curve" smooth="yes"/>
      <point x="396.43333333333334" y="464.6333333333333"/>
      <point x="337.53333333333336" y="531.0"/>
      <point x="296.73333333333335" y="563.0" type="curve"/>
      <point x="137.2" y="562.0" type="line"/>
      <point x="270.6333333333334" y="531.0"/>
      <point x="317.2666666666667" y="460.0"/>
      <point x="327.53333333333336" y="374.0" type="curve"/>
      <point x="340.7" y="382.0"/>
      <point x="358.7" y="390.0"/>
      <point x="380.96666666666664" y="390.0" type="curve" smooth="yes"/>
      <point x="420.6666666666667" y="390.0"/>
      <point x="463.3666666666667" y="362.7333333333333"/>
      <point x="464.6333333333333" y="294.0" type="curve" smooth="yes"/>
      <point x="465.9" y="216.0"/>
      <point x="408.93333333333334" y="180.36666666666667"/>
      <point x="330.0" y="180.36666666666667" type="curve" smooth="yes"/>
      <point x="217.60000000000002" y="180.36666666666667"/>
      <point x="127.73333333333333" y="252.73333333333335"/>
      <point x="65.16666666666667" y="480.4666666666667" type="curve"/>
      <point x="10.166666666666666" y="467.2" type="line"/>
      <point x="76.36666666666667" y="172.6"/>
      <point x="180.20000000000002" y="48.56666666666667"/>
    </contour>
  </outline>
</glyph>
<glyph name="i-beng" format="2">
  <advance width="475.3666666666667"/>
  <unicode hex="0987"/>
  <anchor x="293.8333333333333" y="52.0" name="bottom"/>
  <anchor x="416.06666666666666" y="-83.36666666666667" name="bottom.rakaar"/>
  <anchor x="369.73333333333335" y="48.0" name="bottom.rvocalic"/>
  <anchor x="282.3" y="55.0" name="bottom.virama"/>
  <anchor x="319.56666666666666" y="610.0" name="top"/>
  <anchor x="266.5" y="612.0" name="topright"/>
  <anchor x="237.5" y="0.0" name="vedic"/>
  <outline>
    <contour>
      <point x="365.3333333333333" y="598.0" type="curve"/>
      <point x="423.1333333333333" y="598.0" type="line"/>
      <point x="418.76666666666665" y="741.6666666666666"/>
      <point x="366.33333333333337" y="817.4333333333333"/>
      <point x="270.8333333333333" y="817.4333333333333" type="curve" smooth="yes"/>
      <point x="220.4" y="817.4333333333333"/>
      <point x="185.33333333333331" y="807.4333333333333"/>
      <point x="132.73333333333335" y="807.4333333333333" type="curve" smooth="yes"/>
      <point x="65.86666666666666" y="807.4333333333333"/>
      <point x="37.699999999999996" y="828.5333333333333"/>
      <point x="37.699999999999996" y="889.4333333333334" type="curve" smooth="yes"/>
      <point x="37.699999999999996" y="901.8000000000001"/>
      <point x="38.699999999999996" y="916.1666666666666"/>
      <point x="40.06666666666666" y="927.2666666666667" type="curve"/>
      <point x="-9.466666666666667" y="932.6333333333333" type="line"/>
      <point x="-13.833333333333332" y="909.9"/>
      <point x="-16.46666666666667" y="883.5333333333333"/>
      <point x="-16.46666666666667" y="856.7333333333333" type="curve" smooth="yes"/>
      <point x="-16.46666666666667" y="756.7333333333333"/>
      <point x="34.599999999999994" y="694.1"/>
      <point x="135.93333333333334" y="694.1" type="curve" smooth="yes"/>
      <point x="201.96666666666667" y="694.1"/>
      <point x="244.36666666666667" y="705.3666666666667"/>
      <point x="284.53333333333336" y="705.3666666666667" type="curve" smooth="yes"/>
      <point x="332.9666666666667" y="705.3666666666667"/>
      <point x="363.23333333333335" y="681.3666666666667"/>
    </contour>
    <component base="ha-beng"/>
  </outline>
</glyph>
<glyph name="ii-beng" format="2">
  <advance width="648.4000000000001"/>
  <unicode hex="0988"/>
  <anchor x="574.9666666666667" y="-22.0" name="bottom"/>
  <anchor x="577.9666666666667" y="47.0" name="bottom.rakaar"/>
  <anchor x="563.9000000000001" y="-26.0" name="bottom.rvocalic"/>
  <anchor x="561.8000000000001" y="-38.0" name="bottom.virama"/>
  <anchor x="399.70000000000005" y="610.0" name="top"/>
  <anchor x="352.3666666666667" y="612.0" name="topright"/>
  <anchor x="324.20000000000005" y="0.0" name="vedic"/>
  <outline>
    <contour>
      <point x="531.6333333333333" y="-69.43333333333334" type="curve"/>
      <point x="580.6333333333333" y="-49.8" type="line"/>
      <point x="559.3666666666667" y="17.133333333333333"/>
      <point x="550.4666666666667" y="67.13333333333334"/>
      <point x="550.4666666666667" y="128.5" type="curve" smooth="yes"/>
      <point x="550.4666666666667" y="217.86666666666665"/>
      <point x="575.3666666666667" y="311.93333333333334"/>
      <point x="619.9666666666666" y="391.0" type="curve"/>
      <point x="503.43333333333334" y="487.8" type="line"/>
      <point x="418.06666666666666" y="425.56666666666666"/>
      <point x="369.7666666666667" y="350.5"/>
      <point x="326.9" y="273.70000000000005" type="curve"/>
      <point x="363.1" y="247.83333333333334" type="line"/>
      <point x="368.1" y="267.8333333333333"/>
      <point x="369.4666666666667" y="290.46666666666664"/>
      <point x="369.4666666666667" y="310.83333333333337" type="curve" smooth="yes"/>
      <point x="369.4666666666667" y="409.4666666666667"/>
      <point x="322.7666666666667" y="498.0"/>
      <point x="178.83333333333334" y="498.0" type="curve" smooth="yes"/>
      <point x="94.6" y="498.0"/>
      <point x="46.8" y="458.0"/>
      <point x="46.8" y="393.0" type="curve" smooth="yes"/>
      <point x="46.8" y="329.0"/>
      <point x="90.06666666666666" y="294.0"/>
      <point x="145.5" y="294.0" type="curve" smooth="yes"/>
      <point x="202.93333333333334" y="294.0"/>
      <point x="241.56666666666666" y="334.26666666666665"/>
      <point x="241.20000000000002" y="403.6333333333333" type="curve" smooth="yes"/>
      <point x="240.46666666666667" y="468.6333333333333"/>
      <point x="197.56666666666666" y="535.0"/>
      <point x="166.23333333333332" y="557.0" type="curve"/>
      <point x="31.933333333333334" y="557.0" type="line"/>
      <point x="79.8" y="542.0"/>
      <point x="135.56666666666666" y="509.6333333333333"/>
      <point x="170.66666666666666" y="460.0" type="curve"/>
      <point x="143.16666666666666" y="379.0" type="line"/>
      <point x="164.13333333333333" y="398.0"/>
      <point x="194.76666666666668" y="411.8"/>
      <point x="223.73333333333332" y="411.8" type="curve" smooth="yes"/>
      <point x="279.50000000000006" y="411.8"/>
      <point x="305.1333333333333" y="376.0"/>
      <point x="305.1333333333333" y="323.9" type="curve" smooth="yes"/>
      <point x="305.1333333333333" y="287.5333333333333"/>
      <point x="295.5" y="251.86666666666667"/>
      <point x="275.96666666666664" y="221.13333333333333" type="curve" smooth="yes"/>
      <point x="253.90000000000003" y="185.23333333333335"/>
      <point x="226.36666666666667" y="166.76666666666668"/>
      <point x="188.23333333333332" y="166.76666666666668" type="curve" smooth="yes"/>
      <point x="152.5" y="166.76666666666668"/>
      <point x="124.6" y="191.06666666666666"/>
      <point x="98.43333333333334" y="241.06666666666666" type="curve"/>
      <point x="48.53333333333333" y="216.8" type="line"/>
      <point x="90.6" y="111.43333333333334"/>
      <point x="146.76666666666665" y="43.43333333333334"/>
      <point x="226.56666666666666" y="43.43333333333334" type="curve" smooth="yes"/>
      <point x="298.73333333333335" y="43.43333333333334"/>
      <point x="346.26666666666665" y="108.86666666666666"/>
      <point x="401.5" y="192.43333333333334" type="curve" smooth="yes"/>
      <point x="443.8333333333333" y="256.8"/>
      <point x="485.7666666666667" y="325.73333333333335"/>
      <point x="546.9666666666667" y="381.3333333333333" type="curve"/>
      <point x="515.9000000000001" y="394.9" type="line"/>
      <point x="486.3666666666667" y="320.56666666666666"/>
      <point x="469.3" y="252.76666666666665"/>
      <point x="469.3" y="175.66666666666666" type="curve" smooth="yes"/>
      <point x="469.3" y="83.1"/>
      <point x="497.8333333333333" y="1.1999999999999997"/>
    </contour>
    <contour>
      <point x="6.366666666666666" y="550.0" type="line"/>
      <point x="681.9333333333334" y="550.0" type="line"/>
      <point x="642.4000000000001" y="622.0" type="line"/>
      <point x="-33.53333333333333" y="622.0" type="line"/>
    </contour>
    <contour>
      <point x="500.53333333333336" y="598.0" type="curve"/>
      <point x="559.0666666666667" y="598.0" type="line"/>
      <point x="548.4333333333333" y="738.0"/>
      <point x="499.2" y="822.1666666666666"/>
      <point x="377.3333333333333" y="822.1666666666666" type="curve" smooth="yes"/>
      <point x="313.70000000000005" y="822.1666666666666"/>
      <point x="276.96666666666664" y="808.8"/>
      <point x="204.66666666666666" y="808.8" type="curve" smooth="yes"/>
      <point x="127.36666666666667" y="808.8"/>
      <point x="95.66666666666667" y="829.9"/>
      <point x="95.66666666666667" y="892.6333333333333" type="curve" smooth="yes"/>
      <point x="95.66666666666667" y="902.9"/>
      <point x="96.03333333333333" y="915.9"/>
      <point x="98.03333333333333" y="927.2666666666667" type="curve"/>
      <point x="48.86666666666667" y="932.6333333333333" type="line"/>
      <point x="43.86666666666667" y="910.2666666666667"/>
      <point x="41.5" y="885.6333333333333"/>
      <point x="41.5" y="862.0" type="curve" smooth="yes"/>
      <point x="41.5" y="760.0"/>
      <point x="97.46666666666667" y="694.3666666666667"/>
      <point x="216.6" y="694.3666666666667" type="curve" smooth="yes"/>
      <point x="292.0333333333333" y="694.3666666666667"/>
      <point x="345.5" y="709.7333333333333"/>
      <point x="402.03333333333336" y="709.7333333333333" type="curve" smooth="yes"/>
      <point x="466.1" y="709.7333333333333"/>
      <point x="492.90000000000003" y="681.0"/>
    </contour>
  </outline>
</glyph>
<glyph name="u-beng" format="2">
  <advance width="589.6"/>
  <unicode hex="0989"/>
  <anchor x="458.8" y="-0.2666666666666667" name="bottom"/>
  <anchor x="515.2333333333333" y="-9.0" name="bottom.rakaar"/>
  <anchor x="444.1" y="26.733333333333334" name="bottom.rvocalic"/>
  <anchor x="385.1333333333333" y="-0.26666666666666666" name="bottom.virama"/>
  <anchor x="372.06666666666666" y="605.3666666666667" name="top"/>
  <anchor x="309.3666666666667" y="612.3666666666667" name="topright"/>
  <anchor x="294.8" y="0.0" name="vedic"/>
  <anchor x="317.3333333333333" y="-108.0" name="nukta"/>
  <outline>
    <contour>
      <point x="469.2" y="598.0" type="curve"/>
      <point x="527.3666666666667" y="598.0" type="line"/>
      <point x="515.9333333333334" y="740.6666666666666"/>
      <point x="464.03333333333336" y="817.8"/>
      <point x="352.40000000000003" y="817.8" type="curve" smooth="yes"/>
      <point x="296.06666666666666" y="817.8"/>
      <point x="262.1666666666667" y="808.4333333333333"/>
      <point x="206.83333333333334" y="808.4333333333333" type="curve" smooth="yes"/>
      <point x="125.46666666666667" y="808.4333333333333"/>
      <point x="94.5" y="830.0"/>
      <point x="94.5" y="889.6999999999999" type="curve" smooth="yes"/>
      <point x="94.5" y="900.4333333333333"/>
      <point x="95.5" y="914.1666666666667"/>
      <point x="96.86666666666667" y="926.6333333333333" type="curve"/>
      <point x="46.96666666666667" y="932.6333333333333" type="line"/>
      <point x="41.96666666666667" y="909.2666666666667"/>
      <point x="39.96666666666667" y="884.2666666666667"/>
      <point x="39.96666666666667" y="860.5333333333334" type="curve" smooth="yes"/>
      <point x="39.96666666666667" y="759.3666666666667"/>
      <point x="95.93333333333334" y="694.1"/>
      <point x="215.4" y="694.1" type="curve" smooth="yes"/>
      <point x="281.26666666666665" y="694.1"/>
      <point x="327.1333333333333" y="705.1"/>
      <point x="368.1" y="705.1" type="curve" smooth="yes"/>
      <point x="431.03333333333336" y="705.1"/>
      <point x="460.3" y="680.7333333333333"/>
    </contour>
    <component base="dda-beng"/>
  </outline>
</glyph>
<glyph name="uu-beng" format="2">
  <advance width="676.7"/>
  <unicode hex="098A"/>
  <anchor x="537.1666666666667" y="-7.0" name="bottom"/>
  <anchor x="593.5999999999999" y="-15.0" name="bottom.rakaar"/>
  <anchor x="522.1" y="20.0" name="bottom.rvocalic"/>
  <anchor x="462.76666666666665" y="-6.0" name="bottom.virama"/>
  <anchor x="425.8" y="608.0" name="top"/>
  <anchor x="402.0" y="612.0" name="topright"/>
  <anchor x="338.1666666666667" y="0.0" name="vedic"/>
  <outline>
    <contour>
      <point x="415.6" y="2.466666666666667" type="curve" smooth="yes"/>
      <point x="578.9666666666667" y="2.466666666666667"/>
      <point x="652.5666666666666" y="104.89999999999999"/>
      <point x="652.5666666666666" y="244.53333333333333" type="curve" smooth="yes"/>
      <point x="652.5666666666666" y="350.9"/>
      <point x="611.6666666666666" y="427.43333333333334"/>
      <point x="555.9666666666666" y="478.3333333333333" type="curve"/>
      <point x="508.3666666666667" y="403.1333333333334"/>
      <point x="457.5" y="358.23333333333335"/>
      <point x="419.1666666666667" y="358.23333333333335" type="curve" smooth="yes"/>
      <point x="402.73333333333335" y="358.23333333333335"/>
      <point x="388.1" y="365.59999999999997"/>
      <point x="388.1" y="388.23333333333335" type="curve" smooth="yes"/>
      <point x="388.1" y="550.0" type="line"/>
      <point x="710.2333333333333" y="550.0" type="line"/>
      <point x="668.3333333333334" y="622.0" type="line"/>
      <point x="-33.53333333333333" y="622.0" type="line"/>
      <point x="8.0" y="550.0" type="line"/>
      <point x="300.2" y="550.0" type="line"/>
      <point x="300.2" y="376.0" type="line" smooth="yes"/>
      <point x="300.2" y="330.3666666666666"/>
      <point x="314.3666666666667" y="299.0"/>
      <point x="339.0" y="274.0" type="curve" smooth="yes"/>
      <point x="363.6333333333333" y="249.63333333333333"/>
      <point x="394.7" y="235.73333333333335"/>
      <point x="432.96666666666664" y="235.73333333333335" type="curve" smooth="yes"/>
      <point x="492.7666666666667" y="235.73333333333335"/>
      <point x="561.9" y="284.0"/>
      <point x="605.0333333333333" y="357.0" type="curve"/>
      <point x="552.2333333333333" y="360.0" type="line"/>
      <point x="574.0333333333333" y="337.8333333333333"/>
      <point x="588.2" y="309.46666666666664"/>
      <point x="588.2" y="268.5" type="curve" smooth="yes"/>
      <point x="588.2" y="185.96666666666667"/>
      <point x="528.9666666666666" y="131.53333333333333"/>
      <point x="436.93333333333334" y="130.89999999999998" type="curve" smooth="yes"/>
      <point x="279.83333333333337" y="129.63333333333333"/>
      <point x="232.6" y="278.6333333333333"/>
      <point x="177.0" y="493.6333333333333" type="curve"/>
      <point x="124.46666666666667" y="479.26666666666665" type="line"/>
      <point x="155.0666666666667" y="307.6333333333333"/>
      <point x="192.5" y="195.63333333333335"/>
      <point x="251.33333333333334" y="116.63333333333334" type="curve"/>
      <point x="289.9666666666667" y="122.63333333333334" type="line"/>
      <point x="190.76666666666665" y="155.63333333333333"/>
      <point x="123.46666666666667" y="274.0"/>
      <point x="60.86666666666667" y="487.6333333333333" type="curve"/>
      <point x="8.333333333333334" y="473.6333333333333" type="line"/>
      <point x="72.10000000000001" y="160.63333333333333"/>
      <point x="203.3" y="2.466666666666667"/>
    </contour>
    <contour>
      <point x="553.2333333333333" y="598.0" type="curve"/>
      <point x="611.7666666666667" y="598.0" type="line"/>
      <point x="599.8666666666667" y="738.0"/>
      <point x="539.4333333333333" y="822.9"/>
      <point x="414.03333333333336" y="822.9" type="curve" smooth="yes"/>
      <point x="338.1666666666667" y="822.9"/>
      <point x="296.3666666666667" y="805.2666666666667"/>
      <point x="201.76666666666665" y="805.2666666666667" type="curve" smooth="yes"/>
      <point x="122.03333333333333" y="805.2666666666667"/>
      <point x="94.23333333333333" y="830.6333333333333"/>
      <point x="94.23333333333333" y="889.6999999999999" type="curve" smooth="yes"/>
      <point x="94.23333333333333" y="901.0666666666667"/>
      <point x="95.23333333333333" y="914.8000000000001"/>
      <point x="96.60000000000001" y="927.2666666666667" type="curve"/>
      <point x="46.699999999999996" y="932.6333333333333" type="line"/>
      <point x="42.33333333333333" y="909.9"/>
      <point x="39.33333333333333" y="884.9"/>
      <point x="39.33333333333333" y="860.5333333333334" type="curve" smooth="yes"/>
      <point x="39.33333333333333" y="758.1"/>
      <point x="91.5" y="692.1999999999999"/>
      <point x="218.23333333333335" y="692.1999999999999" type="curve" smooth="yes"/>
      <point x="307.90000000000003" y="692.1999999999999"/>
      <point x="363.0666666666667" y="711.8333333333334"/>
      <point x="433.5666666666667" y="711.8333333333334" type="curve" smooth="yes"/>
      <point x="505.06666666666666" y="711.8333333333334"/>
      <point x="543.9666666666667" y="681.0"/>
    </contour>
  </outline>
</glyph>
<glyph name="rVocalic-beng" format="2">
  <advance width="737.1666666666667"/>
  <unicode hex="098B"/>
  <anchor x="499.4666666666667" y="0.0" name="bottom"/>
  <anchor x="499.4666666666667" y="87.0" name="bottom.rakaar"/>
  <anchor x="431.2333333333333" y="109.23333333333332" name="bottom.rvocalic"/>
  <anchor x="480.56666666666666" y="14.0" name="bottom.virama"/>
  <anchor x="499.4666666666667" y="550.0" name="top"/>
  <anchor x="502.1" y="550.0" name="topright"/>
  <anchor x="368.40000000000003" y="0.0" name="vedic"/>
  <outline>
    <contour>
      <point x="490.46666666666664" y="-29.066666666666666" type="line"/>
      <point x="499.4666666666667" y="-26.433333333333334" type="line"/>
      <point x="499.4666666666667" y="639.0" type="line"/>
      <point x="417.5666666666667" y="687.0" type="line"/>
      <point x="410.93333333333334" y="685.0" type="line"/>
      <point x="410.93333333333334" y="437.3333333333333" type="line"/>
      <point x="420.20000000000005" y="487.1333333333333" type="line"/>
      <point x="300.5333333333333" y="447.93333333333334"/>
      <point x="173.29999999999998" y="388.1"/>
      <point x="73.3" y="322.9666666666667" type="curve"/>
      <point x="132.43333333333334" y="183.0" type="line"/>
      <point x="252.8" y="169.13333333333333"/>
      <point x="360.8" y="118.46666666666667"/>
      <point x="424.5" y="12.1" type="curve"/>
    </contour>
    <contour>
      <point x="410.93333333333334" y="78.53333333333333" type="line"/>
      <point x="426.40000000000003" y="88.3" type="line"/>
      <point x="367.06666666666666" y="220.63333333333333"/>
      <point x="261.9" y="259.93333333333334"/>
      <point x="175.6" y="279.06666666666666" type="curve"/>
      <point x="189.93333333333334" y="236.23333333333335" type="line"/>
      <point x="251.6" y="282.83333333333337"/>
      <point x="349.76666666666665" y="330.9666666666667"/>
      <point x="427.2" y="354.8666666666667" type="curve"/>
      <point x="410.93333333333334" y="387.26666666666665" type="line"/>
    </contour>
    <contour>
      <point x="131.56666666666666" y="424.06666666666666" type="curve" smooth="yes"/>
      <point x="194.73333333333332" y="424.06666666666666"/>
      <point x="283.09999999999997" y="457.9666666666667"/>
      <point x="331.16666666666663" y="534.4666666666666" type="curve"/>
      <point x="296.26666666666665" y="535.0" type="line"/>
      <point x="319.9666666666667" y="512.3666666666667"/>
      <point x="340.06666666666666" y="485.9"/>
      <point x="361.76666666666665" y="442.0" type="curve"/>
      <point x="409.66666666666663" y="454.0" type="line"/>
      <point x="383.8666666666667" y="528.0"/>
      <point x="343.06666666666666" y="595.6333333333333"/>
      <point x="290.1666666666667" y="632.6333333333333" type="curve"/>
      <point x="246.03333333333333" y="560.0"/>
      <point x="185.9" y="522.9333333333333"/>
      <point x="129.36666666666667" y="522.9333333333333" type="curve" smooth="yes"/>
      <point x="117.19999999999999" y="522.9333333333333"/>
      <point x="103.2" y="526.1999999999999"/>
      <point x="94.66666666666667" y="529.8333333333333" type="curve"/>
      <point x="138.66666666666669" y="482.5333333333333" type="line"/>
      <point x="157.5666666666667" y="499.5333333333333"/>
      <point x="164.20000000000002" y="515.5333333333334"/>
      <point x="164.20000000000002" y="543.5333333333334" type="curve" smooth="yes"/>
      <point x="164.20000000000002" y="579.5333333333334"/>
      <point x="140.66666666666669" y="611.5333333333334"/>
      <point x="92.13333333333334" y="611.5333333333334" type="curve" smooth="yes"/>
      <point x="44.233333333333334" y="611.5333333333334"/>
      <point x="13.966666666666667" y="579.9000000000001"/>
      <point x="13.966666666666667" y="529.9000000000001" type="curve" smooth="yes"/>
      <point x="13.966666666666667" y="459.8"/>
      <point x="65.23333333333333" y="424.06666666666666"/>
    </contour>
    <contour>
      <point x="658.9666666666667" y="57.733333333333334" type="line"/>
      <point x="666.7" y="59.733333333333334" type="line"/>
      <point x="666.7" y="550.0" type="line"/>
      <point x="770.7" y="550.0" type="line"/>
      <point x="729.5333333333334" y="622.0" type="line"/>
      <point x="658.9666666666667" y="622.0" type="line"/>
      <point x="651.6" y="677.0" type="line"/>
      <point x="586.5333333333334" y="713.0" type="line"/>
      <point x="579.5333333333334" y="710.0" type="line"/>
      <point x="579.5333333333334" y="168.23333333333332" type="line"/>
      <point x="595.0" y="178.26666666666668" type="line"/>
      <point x="561.6" y="259.93333333333334"/>
      <point x="520.9666666666667" y="301.70000000000005"/>
      <point x="468.0" y="336.06666666666666" type="curve"/>
      <point x="458.0" y="237.23333333333332" type="line"/>
      <point x="516.4" y="206.23333333333335"/>
      <point x="557.0333333333334" y="165.76666666666668"/>
      <point x="593.1" y="98.89999999999999" type="curve"/>
    </contour>
  </outline>
</glyph>
<glyph name="lVocalic-beng" format="2">
  <advance width="514.3333333333334"/>
  <unicode hex="098C"/>
  <anchor x="395.9" y="550.0" name="top"/>
  <anchor x="256.6666666666667" y="0.0" name="vedic"/>
  <outline>
    <contour>
      <point x="291.09999999999997" y="-9.0" type="line"/>
      <point x="385.76666666666665" y="6.0"/>
      <point x="497.26666666666665" y="91.26666666666667"/>
      <point x="497.26666666666665" y="270.6333333333333" type="curve" smooth="yes"/>
      <point x="497.26666666666665" y="416.1333333333333"/>
      <point x="426.1333333333333" y="473.43333333333334"/>
      <point x="278.23333333333335" y="506.26666666666665" type="curve" smooth="yes"/>
      <point x="192.53333333333333" y="526.1"/>
      <point x="135.3" y="541.0"/>
      <point x="135.3" y="617.2666666666667" type="curve" smooth="yes"/>
      <point x="135.3" y="647.0"/>
      <point x="141.29999999999998" y="671.0"/>
      <point x="152.29999999999998" y="699.0" type="curve"/>
      <point x="102.3" y="715.0" type="line"/>
      <point x="85.83333333333334" y="683.7"/>
      <point x="64.03333333333333" y="629.7333333333333"/>
      <point x="64.03333333333333" y="571.9" type="curve" smooth="yes"/>
      <point x="64.03333333333333" y="454.8333333333333"/>
      <point x="133.73333333333335" y="414.8333333333333"/>
      <point x="254.83333333333334" y="389.0" type="curve" smooth="yes"/>
      <point x="363.23333333333335" y="365.8"/>
      <point x="429.3666666666667" y="351.06666666666666"/>
      <point x="429.3666666666667" y="241.36666666666667" type="curve" smooth="yes"/>
      <point x="429.3666666666667" y="166.36666666666667"/>
      <point x="391.40000000000003" y="111.36666666666666"/>
      <point x="337.06666666666666" y="104.0" type="curve"/>
      <point x="383.79999999999995" y="76.0" type="line"/>
      <point x="384.43333333333334" y="210.0"/>
      <point x="323.16666666666663" y="325.0"/>
      <point x="198.5" y="325.0" type="curve" smooth="yes"/>
      <point x="88.83333333333333" y="325.0"/>
      <point x="39.03333333333334" y="244.73333333333332"/>
      <point x="39.03333333333334" y="157.1" type="curve" smooth="yes"/>
      <point x="39.03333333333334" y="56.733333333333334"/>
      <point x="90.46666666666667" y="6.0"/>
      <point x="157.43333333333334" y="6.0" type="curve" smooth="yes"/>
      <point x="211.6" y="6.0"/>
      <point x="235.5" y="43.9"/>
      <point x="235.5" y="89.0" type="curve" smooth="yes"/>
      <point x="235.5" y="135.36666666666667"/>
      <point x="205.33333333333334" y="166.0"/>
      <point x="162.16666666666666" y="166.0" type="curve" smooth="yes"/>
      <point x="124.63333333333333" y="166.0"/>
      <point x="91.93333333333332" y="139.0"/>
      <point x="92.3" y="104.0" type="curve"/>
      <point x="146.1" y="99.63333333333334" type="line"/>
      <point x="125.93333333333334" y="107.0"/>
      <point x="111.4" y="125.36666666666666"/>
      <point x="111.4" y="158.0" type="curve" smooth="yes"/>
      <point x="111.4" y="195.0"/>
      <point x="137.83333333333331" y="224.0"/>
      <point x="180.79999999999998" y="224.0" type="curve" smooth="yes"/>
      <point x="260.93333333333334" y="224.0"/>
      <point x="288.09999999999997" y="125.63333333333334"/>
      <point x="288.09999999999997" y="42.0" type="curve" smooth="yes"/>
      <point x="288.09999999999997" y="26.366666666666667"/>
      <point x="287.1" y="11.366666666666667"/>
      <point x="284.46666666666664" y="-4.0" type="curve"/>
    </contour>
  </outline>
</glyph>
<glyph name="e-beng" format="2">
  <advance width="630.2666666666667"/>
  <unicode hex="098F"/>
  <anchor x="568.4" y="0.0" name="bottom"/>
  <anchor x="568.4" y="-5.0" name="bottom.rvocalic"/>
  <anchor x="549.8666666666667" y="8.0" name="bottom.virama"/>
  <anchor x="481.26666666666665" y="550.0" name="top"/>
  <anchor x="484.26666666666665" y="550.0" name="topright"/>
  <anchor x="314.6333333333333" y="0.0" name="vedic"/>
  <outline>
    <contour>
      <point x="559.0333333333334" y="-29.0" type="line"/>
      <point x="568.0333333333334" y="-27.0" type="line"/>
      <point x="568.0333333333334" y="489.1" type="line" smooth="yes"/>
      <point x="568.0333333333334" y="574.7333333333333"/>
      <point x="517.7666666666667" y="633.0"/>
      <point x="428.2666666666667" y="633.0" type="curve" smooth="yes"/>
      <point x="304.06666666666666" y="633.0"/>
      <point x="189.03333333333333" y="513.0"/>
      <point x="189.03333333333333" y="386.0" type="curve" smooth="yes"/>
      <point x="189.03333333333333" y="304.0"/>
      <point x="240.76666666666668" y="259.0"/>
      <point x="306.1" y="258.0" type="curve" smooth="yes"/>
      <point x="372.8" y="257.0"/>
      <point x="408.96666666666664" y="300.3666666666667"/>
      <point x="408.96666666666664" y="354.0" type="curve" smooth="yes"/>
      <point x="408.96666666666664" y="403.0"/>
      <point x="379.06666666666666" y="438.0"/>
      <point x="332.09999999999997" y="438.0" type="curve" smooth="yes"/>
      <point x="310.83333333333337" y="438.0"/>
      <point x="289.03333333333336" y="428.0"/>
      <point x="276.76666666666665" y="408.0" type="curve"/>
      <point x="330.0" y="403.0" type="line"/>
      <point x="330.73333333333335" y="473.5"/>
      <point x="387.96666666666664" y="553.6333333333333"/>
      <point x="439.3666666666667" y="553.6333333333333" type="curve" smooth="yes"/>
      <point x="469.23333333333335" y="553.6333333333333"/>
      <point x="479.5" y="531.6333333333333"/>
      <point x="479.5" y="499.83333333333337" type="curve" smooth="yes"/>
      <point x="479.5" y="235.0" type="line" smooth="yes"/>
      <point x="479.5" y="188.46666666666667"/>
      <point x="483.8666666666667" y="128.36666666666667"/>
      <point x="490.8666666666667" y="91.73333333333333" type="curve"/>
      <point x="450.5333333333333" y="171.16666666666666"/>
      <point x="407.06666666666666" y="188.43333333333334"/>
      <point x="348.66666666666663" y="188.43333333333334" type="curve" smooth="yes"/>
      <point x="302.43333333333334" y="188.43333333333334"/>
      <point x="267.3666666666667" y="180.16666666666666"/>
      <point x="211.5" y="180.16666666666666" type="curve" smooth="yes"/>
      <point x="144.9" y="180.16666666666666"/>
      <point x="95.23333333333333" y="216.60000000000002"/>
      <point x="95.23333333333333" y="301.5" type="curve" smooth="yes"/>
      <point x="95.23333333333333" y="330.16666666666663"/>
      <point x="98.6" y="358.6333333333333"/>
      <point x="105.60000000000001" y="387.6333333333333" type="curve"/>
      <point x="52.6" y="396.9" type="line"/>
      <point x="40.6" y="355.53333333333336"/>
      <point x="33.6" y="306.5333333333333"/>
      <point x="33.6" y="260.0666666666667" type="curve" smooth="yes"/>
      <point x="33.6" y="103.8"/>
      <point x="122.2" y="49.36666666666667"/>
      <point x="219.33333333333334" y="49.36666666666667" type="curve" smooth="yes"/>
      <point x="287.93333333333334" y="49.36666666666667"/>
      <point x="336.16666666666663" y="67.26666666666667"/>
      <point x="394.56666666666666" y="67.26666666666667" type="curve" smooth="yes"/>
      <point x="437.0" y="67.26666666666667"/>
      <point x="469.1666666666667" y="53.53333333333334"/>
      <point x="502.23333333333335" y="6.533333333333333" type="curve"/>
    </contour>
  </outline>
</glyph>
<glyph name="ai-beng" format="2">
  <advance width="731.8000000000001"/>
  <unicode hex="0990"/>
  <anchor x="511.7" y="603.0" name="top"/>
  <anchor x="467.53333333333336" y="599.0" name="topright"/>
  <anchor x="365.40000000000003" y="0.0" name="vedic"/>
  <anchor x="568.4" y="0.0" name="bottom"/>
  <anchor x="568.4" y="-5.0" name="bottom.rvocalic"/>
  <anchor x="549.8666666666667" y="8.0" name="bottom.virama"/>
  <outline>
    <contour>
      <point x="552.7333333333333" y="304.8333333333333" type="line"/>
      <point x="619.6999999999999" y="369.1"/>
      <point x="674.4" y="448.0"/>
      <point x="674.4" y="564.4666666666667" type="curve" smooth="yes"/>
      <point x="674.4" y="748.4666666666667"/>
      <point x="534.5999999999999" y="771.9666666666667"/>
      <point x="409.7666666666667" y="792.0666666666666" type="curve" smooth="yes"/>
      <point x="293.9" y="810.6999999999999"/>
      <point x="220.70000000000002" y="827.3333333333334"/>
      <point x="220.70000000000002" y="912.4333333333333" type="curve" smooth="yes"/>
      <point x="220.70000000000002" y="941.1666666666666"/>
      <point x="227.7" y="972.5333333333333"/>
      <point x="239.96666666666667" y="998.8" type="curve"/>
      <point x="185.53333333333333" y="1017.0666666666667" type="line"/>
      <point x="165.0" y="973.4333333333334"/>
      <point x="153.0" y="930.1666666666667"/>
      <point x="153.0" y="881.8" type="curve" smooth="yes"/>
      <point x="153.0" y="737.0333333333333"/>
      <point x="273.8666666666666" y="709.2666666666667"/>
      <point x="399.1" y="691.0666666666667" type="curve" smooth="yes"/>
      <point x="526.8000000000001" y="673.3333333333334"/>
      <point x="613.8666666666667" y="657.0"/>
      <point x="613.8666666666667" y="552.7333333333333" type="curve" smooth="yes"/>
      <point x="613.8666666666667" y="486.3666666666667"/>
      <point x="586.8" y="439.7333333333333"/>
      <point x="528.5666666666666" y="394.1" type="curve"/>
    </contour>
    <component base="e-beng"/>
  </outline>
</glyph>
<glyph name="o-beng" format="2">
  <advance width="670.1666666666666"/>
  <unicode hex="0993"/>
  <anchor x="517.2666666666667" y="5.1" name="bottom"/>
  <anchor x="571.6999999999999" y="0.0" name="bottom.rakaar"/>
  <anchor x="504.2" y="29.733333333333334" name="bottom.rvocalic"/>
  <anchor x="447.23333333333335" y="6.0" name="bottom.virama"/>
  <anchor x="444.1333333333334" y="526.1" name="top"/>
  <anchor x="446.7666666666667" y="526.1" name="topright"/>
  <anchor x="334.9" y="0.0" name="vedic"/>
  <outline>
    <contour>
      <point x="413.76666666666665" y="31.0" type="curve" smooth="yes"/>
      <point x="549.4" y="31.0"/>
      <point x="633.0" y="111.9"/>
      <point x="633.0" y="225.8" type="curve" smooth="yes"/>
      <point x="633.0" y="345.6333333333333"/>
      <point x="523.2" y="425.43333333333334"/>
      <point x="455.6333333333334" y="425.43333333333334" type="curve" smooth="yes"/>
      <point x="411.4" y="425.43333333333334"/>
      <point x="377.0333333333333" y="395.8333333333333"/>
      <point x="377.0333333333333" y="343.3666666666667" type="curve" smooth="yes"/>
      <point x="377.0333333333333" y="293.0"/>
      <point x="408.93333333333334" y="259.3666666666667"/>
      <point x="460.0" y="259.3666666666667" type="curve" smooth="yes"/>
      <point x="540.2333333333333" y="259.3666666666667"/>
      <point x="607.4666666666667" y="364.73333333333335"/>
      <point x="607.4666666666667" y="468.3666666666667" type="curve" smooth="yes"/>
      <point x="607.4666666666667" y="562.3666666666667"/>
      <point x="542.7666666666667" y="630.0"/>
      <point x="427.7333333333333" y="630.0" type="curve" smooth="yes"/>
      <point x="286.3666666666667" y="630.0"/>
      <point x="171.70000000000002" y="531.8"/>
      <point x="171.70000000000002" y="418.73333333333335" type="curve" smooth="yes"/>
      <point x="171.70000000000002" y="347.3666666666667"/>
      <point x="214.5" y="309.3666666666667"/>
      <point x="268.56666666666666" y="309.3666666666667" type="curve" smooth="yes"/>
      <point x="323.90000000000003" y="309.3666666666667"/>
      <point x="356.06666666666666" y="344.3666666666667"/>
      <point x="356.06666666666666" y="397.6333333333333" type="curve" smooth="yes"/>
      <point x="356.06666666666666" y="441.59999999999997"/>
      <point x="330.1666666666667" y="469.53333333333336"/>
      <point x="293.2" y="469.53333333333336" type="curve" smooth="yes"/>
      <point x="266.93333333333334" y="469.53333333333336"/>
      <point x="247.13333333333333" y="456.53333333333336"/>
      <point x="239.6" y="440.6333333333333" type="curve"/>
      <point x="306.7" y="415.26666666666665" type="line"/>
      <point x="312.26666666666665" y="497.56666666666666"/>
      <point x="386.8666666666667" y="557.0"/>
      <point x="458.2666666666667" y="557.0" type="curve" smooth="yes"/>
      <point x="501.76666666666665" y="557.0"/>
      <point x="520.6666666666667" y="535.3666666666667"/>
      <point x="520.6666666666667" y="502.53333333333336" type="curve" smooth="yes"/>
      <point x="520.6666666666667" y="461.2666666666667"/>
      <point x="494.23333333333335" y="419.1666666666667"/>
      <point x="449.8" y="399.8" type="curve"/>
      <point x="468.7" y="340.43333333333334" type="line"/>
      <point x="507.8666666666667" y="342.06666666666666"/>
      <point x="560.2" y="315.70000000000005"/>
      <point x="560.2" y="259.06666666666666" type="curve" smooth="yes"/>
      <point x="560.2" y="193.06666666666666"/>
      <point x="503.23333333333335" y="154.26666666666668"/>
      <point x="412.4" y="154.26666666666668" type="curve" smooth="yes"/>
      <point x="263.3333333333333" y="154.26666666666668"/>
      <point x="151.10000000000002" y="241.70000000000002"/>
      <point x="69.73333333333333" y="539.2333333333333" type="curve"/>
      <point x="14.733333333333334" y="524.9666666666667" type="line"/>
      <point x="85.39999999999999" y="183.53333333333333"/>
      <point x="224.4" y="31.0"/>
    </contour>
  </outline>
</glyph>
<glyph name="au-beng" format="2">
  <advance width="749.2"/>
  <unicode hex="0994"/>
  <anchor x="569.0" y="7.0" name="bottom"/>
  <anchor x="628.0" y="-1.0" name="bottom.rakaar"/>
  <anchor x="552.0" y="33.0" name="bottom.rvocalic"/>
  <anchor x="489.0" y="7.0" name="bottom.virama"/>
  <anchor x="596.0" y="603.0" name="top"/>
  <anchor x="535.0" y="599.0" name="topright"/>
  <anchor x="374.6" y="0.0" name="vedic"/>
  <outline>
    <contour>
      <point x="570.1333333333333" y="311.8" type="line"/>
      <point x="637.4666666666667" y="376.06666666666666"/>
      <point x="691.8000000000001" y="451.8"/>
      <point x="691.8000000000001" y="565.7333333333333" type="curve" smooth="yes"/>
      <point x="691.8000000000001" y="746.2"/>
      <point x="552.3666666666667" y="771.9666666666667"/>
      <point x="426.9" y="792.0666666666666" type="curve" smooth="yes"/>
      <point x="326.8666666666667" y="808.1666666666666"/>
      <point x="238.46666666666667" y="822.2666666666667"/>
      <point x="238.46666666666667" y="912.4333333333333" type="curve" smooth="yes"/>
      <point x="238.46666666666667" y="941.1666666666666"/>
      <point x="245.46666666666667" y="972.5333333333333"/>
      <point x="257.3666666666667" y="998.8" type="curve"/>
      <point x="202.93333333333334" y="1017.0666666666667" type="line"/>
      <point x="182.76666666666668" y="973.4333333333334"/>
      <point x="170.76666666666668" y="930.1666666666667"/>
      <point x="170.76666666666668" y="881.8" type="curve" smooth="yes"/>
      <point x="170.76666666666668" y="737.0333333333333"/>
      <point x="291.6333333333333" y="709.2666666666667"/>
      <point x="416.8666666666667" y="691.0666666666667" type="curve" smooth="yes"/>
      <point x="530.0" y="674.6"/>
      <point x="631.6333333333334" y="661.4333333333334"/>
      <point x="631.6333333333334" y="551.4666666666667" type="curve" smooth="yes"/>
      <point x="631.6333333333334" y="481.93333333333334"/>
      <point x="603.9333333333334" y="437.8333333333333"/>
      <point x="546.3333333333333" y="391.56666666666666" type="curve"/>
    </contour>
    <component base="o-beng"/>
  </outline>
</glyph>
<glyph name="ka-beng" format="2">
  <advance width="693.8666666666667"/>
  <unicode hex="0995"/>
  <anchor x="430.8666666666667" y="34.0" name="bottom"/>
  <anchor x="436.29999999999995" y="33.8" name="bottom.rakaar"/>
  <anchor x="437.40000000000003" y="10.633333333333333" name="bottom.rvocalic"/>
  <anchor x="425.8333333333333" y="-9.666666666666668" name="bottom.virama"/>
  <anchor x="202.66666666666666" y="43.46666666666666" name="nukta"/>
  <anchor x="413.8333333333333" y="583.0" name="top"/>
  <anchor x="415.46666666666664" y="571.0" name="topright"/>
  <anchor x="346.43333333333334" y="0.0" name="vedic"/>
  <outline>
    <contour>
      <point x="428.40000000000003" y="-24.0" type="line"/>
      <point x="437.40000000000003" y="-22.0" type="line"/>
      <point x="437.40000000000003" y="410.7333333333333" type="line"/>
      <point x="420.76666666666665" y="385.3666666666667" type="line"/>
      <point x="426.40000000000003" y="387.3666666666667"/>
      <point x="433.03333333333336" y="388.3666666666667"/>
      <point x="438.6666666666667" y="388.3666666666667" type="curve" smooth="yes"/>
      <point x="542.3000000000001" y="388.3666666666667"/>
      <point x="616.4333333333333" y="330.66666666666663"/>
      <point x="616.4333333333333" y="263.4" type="curve" smooth="yes"/>
      <point x="616.4333333333333" y="248.03333333333333"/>
      <point x="613.8" y="238.03333333333333"/>
      <point x="605.1666666666667" y="225.03333333333333" type="curve"/>
      <point x="624.2666666666667" y="224.2" type="line"/>
      <point x="619.3666666666667" y="269.2"/>
      <point x="593.4666666666666" y="291.8333333333333"/>
      <point x="551.5666666666666" y="291.8333333333333" type="curve" smooth="yes"/>
      <point x="507.1333333333333" y="291.8333333333333"/>
      <point x="476.23333333333335" y="260.2"/>
      <point x="476.23333333333335" y="212.83333333333334" type="curve" smooth="yes"/>
      <point x="476.23333333333335" y="164.2"/>
      <point x="505.1333333333334" y="124.83333333333333"/>
      <point x="560.8333333333333" y="124.83333333333333" type="curve" smooth="yes"/>
      <point x="628.2666666666667" y="124.83333333333333"/>
      <point x="670.4333333333333" y="179.56666666666666"/>
      <point x="670.4333333333333" y="270.8333333333333" type="curve" smooth="yes"/>
      <point x="670.4333333333333" y="399.8333333333333"/>
      <point x="575.0333333333333" y="502.9"/>
      <point x="423.1333333333333" y="515.2666666666667" type="curve"/>
      <point x="437.40000000000003" y="491.0" type="line"/>
      <point x="437.40000000000003" y="550.0" type="line"/>
      <point x="727.0333333333334" y="550.0" type="line"/>
      <point x="687.1333333333333" y="622.0" type="line"/>
      <point x="-33.53333333333333" y="622.0" type="line"/>
      <point x="7.0" y="550.0" type="line"/>
      <point x="348.8666666666667" y="550.0" type="line"/>
      <point x="348.8666666666667" y="469.0" type="line"/>
      <point x="358.8666666666667" y="517.6333333333333" type="line"/>
      <point x="233.13333333333333" y="479.1666666666667"/>
      <point x="111.8" y="420.3333333333333"/>
      <point x="9.433333333333334" y="349.53333333333336" type="curve"/>
      <point x="68.46666666666665" y="203.26666666666668" type="line"/>
      <point x="193.9" y="184.33333333333334"/>
      <point x="295.8333333333333" y="125.43333333333332"/>
      <point x="363.06666666666666" y="17.166666666666668" type="curve"/>
    </contour>
    <contour>
      <point x="348.8666666666667" y="86.13333333333333" type="line"/>
      <point x="363.96666666666664" y="99.06666666666666" type="line"/>
      <point x="313.8666666666666" y="211.13333333333333"/>
      <point x="221.93333333333334" y="271.33333333333337"/>
      <point x="139.4333333333333" y="295.53333333333336" type="curve"/>
      <point x="145.96666666666667" y="274.0" type="line"/>
      <point x="209.63333333333333" y="320.3666666666667"/>
      <point x="295.3" y="360.43333333333334"/>
      <point x="365.1333333333333" y="384.43333333333334" type="curve"/>
      <point x="348.8666666666667" y="422.0" type="line"/>
    </contour>
  </outline>
</glyph>
<glyph name="kha-beng" format="2">
  <advance width="602.5333333333333"/>
  <unicode hex="0996"/>
  <anchor x="524.5333333333333" y="34.0" name="bottom"/>
  <anchor x="531.7" y="87.0" name="bottom.rakaar"/>
  <anchor x="531.7" y="10.266666666666667" name="bottom.rvocalic"/>
  <anchor x="512.4333333333333" y="9.966666666666667" name="bottom.virama"/>
  <anchor x="503.93333333333334" y="573.0" name="top"/>
  <anchor x="487.8666666666667" y="564.0" name="topright"/>
  <anchor x="283.46666666666664" y="0.0" name="vedic"/>
  <outline>
    <contour>
      <point x="523.0666666666667" y="-24.0" type="line"/>
      <point x="531.7" y="-22.0" type="line"/>
      <point x="531.7" y="550.0" type="line"/>
      <point x="636.0666666666666" y="550.0" type="line"/>
      <point x="594.9000000000001" y="622.0" type="line"/>
      <point x="524.3333333333333" y="622.0" type="line"/>
      <point x="516.3333333333334" y="677.0" type="line"/>
      <point x="450.53333333333336" y="713.0" type="line"/>
      <point x="443.53333333333336" y="710.0" type="line"/>
      <point x="443.53333333333336" y="83.7" type="line"/>
      <point x="458.26666666666665" y="95.2" type="line"/>
      <point x="410.33333333333337" y="202.7"/>
      <point x="332.0" y="260.16666666666663"/>
      <point x="248.8" y="290.06666666666666" type="curve"/>
      <point x="258.06666666666666" y="257.2" type="line"/>
      <point x="354.1666666666667" y="280.2"/>
      <point x="401.03333333333336" y="335.56666666666666"/>
      <point x="401.03333333333336" y="431.1666666666667" type="curve" smooth="yes"/>
      <point x="401.03333333333336" y="532.6333333333333"/>
      <point x="333.33333333333337" y="595.0"/>
      <point x="280.06666666666666" y="631.6333333333333" type="curve"/>
      <point x="235.76666666666668" y="557.1"/>
      <point x="185.26666666666668" y="505.53333333333336"/>
      <point x="128.73333333333332" y="505.53333333333336" type="curve" smooth="yes"/>
      <point x="117.83333333333333" y="505.53333333333336"/>
      <point x="104.46666666666667" y="507.1666666666667"/>
      <point x="97.83333333333333" y="511.1666666666667" type="curve"/>
      <point x="138.66666666666669" y="474.0" type="line"/>
      <point x="157.5666666666667" y="491.0"/>
      <point x="164.20000000000002" y="507.0"/>
      <point x="164.20000000000002" y="535.0" type="curve" smooth="yes"/>
      <point x="164.20000000000002" y="571.0"/>
      <point x="140.66666666666669" y="603.0"/>
      <point x="92.13333333333334" y="603.0" type="curve" smooth="yes"/>
      <point x="44.233333333333334" y="603.0"/>
      <point x="13.966666666666667" y="571.0"/>
      <point x="13.966666666666667" y="521.3666666666667" type="curve" smooth="yes"/>
      <point x="13.966666666666667" y="444.5666666666667"/>
      <point x="67.76666666666667" y="406.20000000000005"/>
      <point x="131.83333333333331" y="406.20000000000005" type="curve" smooth="yes"/>
      <point x="199.60000000000002" y="406.20000000000005"/>
      <point x="273.0" y="443.6333333333333"/>
      <point x="321.96666666666664" y="531.6333333333333" type="curve"/>
      <point x="279.53333333333336" y="536.3333333333333" type="line"/>
      <point x="300.33333333333337" y="516.8"/>
      <point x="315.9666666666667" y="493.16666666666663"/>
      <point x="315.9666666666667" y="460.70000000000005" type="curve" smooth="yes"/>
      <point x="315.9666666666667" y="379.0"/>
      <point x="227.6" y="345.2"/>
      <point x="107.46666666666667" y="344.4666666666667" type="curve"/>
      <point x="156.0" y="204.46666666666667" type="line"/>
      <point x="284.8333333333333" y="189.63333333333333"/>
      <point x="392.3" y="125.26666666666668"/>
      <point x="457.3666666666667" y="17.633333333333333" type="curve"/>
    </contour>
  </outline>
</glyph>
<glyph name="ga-beng" format="2">
  <advance width="601.6333333333334"/>
  <unicode hex="0997"/>
  <anchor x="515.3666666666667" y="62.13333333333333" name="bottom"/>
  <anchor x="531.1666666666667" y="-15.0" name="bottom.rakaar"/>
  <anchor x="531.1666666666667" y="-3.0" name="bottom.rvocalic"/>
  <anchor x="496.96666666666664" y="8.0" name="bottom.virama"/>
  <anchor x="504.1333333333333" y="573.0" name="top"/>
  <anchor x="488.06666666666666" y="564.0" name="topright"/>
  <anchor x="300.6333333333334" y="0.0" name="vedic"/>
  <outline>
    <contour>
      <point x="523.1666666666666" y="-35.0" type="line"/>
      <point x="531.1666666666667" y="-33.0" type="line"/>
      <point x="531.1666666666667" y="550.0" type="line"/>
      <point x="635.1666666666667" y="550.0" type="line"/>
      <point x="594.0" y="622.0" type="line"/>
      <point x="523.4333333333334" y="622.0" type="line"/>
      <point x="516.0666666666667" y="677.0" type="line"/>
      <point x="451.0" y="713.0" type="line"/>
      <point x="444.0" y="710.0" type="line"/>
      <point x="444.0" y="591.1666666666666" type="line" smooth="yes"/>
      <point x="444.0" y="533.3333333333333"/>
      <point x="447.3666666666667" y="475.7"/>
      <point x="452.6333333333333" y="426.2" type="curve"/>
      <point x="464.26666666666665" y="425.0" type="line"/>
      <point x="406.6" y="570.6333333333333"/>
      <point x="324.6333333333333" y="634.0"/>
      <point x="233.2" y="634.0" type="curve" smooth="yes"/>
      <point x="141.7" y="634.0"/>
      <point x="57.0" y="571.1666666666667"/>
      <point x="-1.1999999999999997" y="440.03333333333336" type="curve"/>
      <point x="97.2" y="352.53333333333336" type="line"/>
      <point x="128.86666666666667" y="382.5333333333333"/>
      <point x="168.56666666666666" y="406.1666666666667"/>
      <point x="205.9" y="406.1666666666667" type="curve" smooth="yes"/>
      <point x="238.43333333333334" y="406.1666666666667"/>
      <point x="255.96666666666667" y="389.1666666666667"/>
      <point x="255.96666666666667" y="359.6333333333333" type="curve" smooth="yes"/>
      <point x="255.96666666666667" y="316.53333333333336"/>
      <point x="207.16666666666669" y="281.9"/>
      <point x="117.3" y="252.8" type="curve"/>
      <point x="190.36666666666667" y="131.1" type="line"/>
      <point x="313.33333333333337" y="189.36666666666667"/>
      <point x="354.66666666666663" y="263.6333333333333"/>
      <point x="354.66666666666663" y="343.26666666666665" type="curve" smooth="yes"/>
      <point x="354.66666666666663" y="417.9"/>
      <point x="309.1333333333333" y="475.5333333333333"/>
      <point x="229.9" y="475.5333333333333" type="curve" smooth="yes"/>
      <point x="183.93333333333334" y="475.5333333333333"/>
      <point x="149.76666666666665" y="460.26666666666665"/>
      <point x="125.23333333333333" y="442.06666666666666" type="curve"/>
      <point x="142.76666666666665" y="421.73333333333335" type="line"/>
      <point x="165.43333333333334" y="484.3666666666667"/>
      <point x="214.03333333333333" y="531.4666666666667"/>
      <point x="266.93333333333334" y="531.4666666666667" type="curve" smooth="yes"/>
      <point x="329.1666666666667" y="531.4666666666667"/>
      <point x="392.50000000000006" y="483.43333333333334"/>
      <point x="455.43333333333334" y="330.59999999999997" type="curve"/>
      <point x="443.26666666666665" y="401.46666666666664" type="line"/>
      <point x="443.26666666666665" y="1.0" type="line"/>
    </contour>
  </outline>
</glyph>
<glyph name="gha-beng" format="2">
  <advance width="527.8333333333334"/>
  <unicode hex="0998"/>
  <anchor x="451.1" y="34.0" name="bottom"/>
  <anchor x="456.5333333333333" y="87.0" name="bottom.rakaar"/>
  <anchor x="457.6333333333334" y="9.533333333333333" name="bottom.rvocalic"/>
  <anchor x="439.09999999999997" y="9.966666666666667" name="bottom.virama"/>
  <anchor x="434.06666666666666" y="583.0" name="top"/>
  <anchor x="435.7" y="571.0" name="topright"/>
  <anchor x="263.73333333333335" y="0.0" name="vedic"/>
  <outline>
    <contour>
      <point x="448.6333333333333" y="-24.0" type="line"/>
      <point x="457.6333333333334" y="-22.0" type="line"/>
      <point x="457.6333333333334" y="550.0" type="line"/>
      <point x="561.0" y="550.0" type="line"/>
      <point x="520.4666666666667" y="622.0" type="line"/>
      <point x="-33.53333333333333" y="622.0" type="line"/>
      <point x="7.0" y="550.0" type="line"/>
      <point x="369.09999999999997" y="550.0" type="line"/>
      <point x="369.09999999999997" y="82.96666666666667" type="line"/>
      <point x="384.56666666666666" y="93.36666666666667" type="line"/>
      <point x="329.03333333333336" y="214.93333333333334"/>
      <point x="234.9333333333333" y="267.3666666666667"/>
      <point x="133.7" y="293.7333333333333" type="curve"/>
      <point x="151.33333333333331" y="259.3333333333333" type="line"/>
      <point x="201.3" y="297.1333333333333"/>
      <point x="272.7666666666667" y="332.3"/>
      <point x="342.23333333333335" y="364.1" type="curve"/>
      <point x="289.70000000000005" y="467.0" type="line"/>
      <point x="266.0" y="449.7333333333333"/>
      <point x="242.76666666666665" y="440.46666666666664"/>
      <point x="215.06666666666666" y="440.46666666666664" type="curve" smooth="yes"/>
      <point x="180.36666666666667" y="440.46666666666664"/>
      <point x="158.1" y="460.73333333333335"/>
      <point x="158.1" y="492.3666666666667" type="curve" smooth="yes"/>
      <point x="158.1" y="528.6333333333333"/>
      <point x="182.0" y="550.0"/>
      <point x="219.56666666666666" y="561.0" type="curve"/>
      <point x="97.43333333333334" y="604.7" type="line"/>
      <point x="63.3" y="590.4333333333333"/>
      <point x="27.033333333333335" y="559.0666666666666"/>
      <point x="27.033333333333335" y="505.7" type="curve" smooth="yes"/>
      <point x="27.033333333333335" y="429.1666666666667"/>
      <point x="95.73333333333333" y="396.3666666666667"/>
      <point x="162.4" y="391.1" type="curve"/>
      <point x="168.29999999999998" y="412.1666666666667" type="line"/>
      <point x="125.13333333333334" y="392.1666666666667"/>
      <point x="74.46666666666667" y="366.3666666666667"/>
      <point x="31.766666666666666" y="338.1" type="curve"/>
      <point x="91.23333333333333" y="198.93333333333334" type="line"/>
      <point x="210.0666666666667" y="183.79999999999998"/>
      <point x="319.6" y="123.53333333333333"/>
      <point x="383.29999999999995" y="16.533333333333335" type="curve"/>
    </contour>
  </outline>
</glyph>
<glyph name="nga-beng" format="2">
  <advance width="582.0666666666667"/>
  <unicode hex="0999"/>
  <anchor x="400.76666666666665" y="3.3666666666666667" name="bottom"/>
  <anchor x="515.5333333333333" y="-8.366666666666667" name="bottom.rakaar"/>
  <anchor x="421.6666666666667" y="-16.266666666666666" name="bottom.rvocalic"/>
  <anchor x="385.0666666666667" y="0.0" name="bottom.virama"/>
  <anchor x="348.26666666666665" y="582.6333333333333" name="top"/>
  <anchor x="340.8333333333333" y="571.0" name="topright"/>
  <anchor x="290.53333333333336" y="0.0" name="vedic"/>
  <outline>
    <contour>
      <point x="349.23333333333335" y="4.366666666666666" type="curve" smooth="yes"/>
      <point x="495.43333333333334" y="4.366666666666666"/>
      <point x="561.0333333333333" y="111.69999999999999"/>
      <point x="561.0333333333333" y="251.43333333333334" type="curve" smooth="yes"/>
      <point x="561.0333333333333" y="338.8"/>
      <point x="520.7666666666667" y="409.16666666666663"/>
      <point x="481.7" y="452.16666666666663" type="curve"/>
      <point x="431.56666666666666" y="373.3333333333333"/>
      <point x="364.9666666666667" y="322.8"/>
      <point x="317.46666666666664" y="322.8" type="curve" smooth="yes"/>
      <point x="300.2" y="322.8"/>
      <point x="288.56666666666666" y="332.8"/>
      <point x="288.56666666666666" y="353.8" type="curve" smooth="yes"/>
      <point x="288.56666666666666" y="465.6333333333333" type="line" smooth="yes"/>
      <point x="288.56666666666666" y="528.1666666666667"/>
      <point x="306.3666666666666" y="563.3666666666667"/>
      <point x="343.7" y="563.3666666666667" type="curve" smooth="yes"/>
      <point x="369.6666666666667" y="563.3666666666667"/>
      <point x="384.2" y="547.4666666666667"/>
      <point x="384.2" y="523.3666666666667" type="curve" smooth="yes"/>
      <point x="384.2" y="495.73333333333335"/>
      <point x="367.83333333333337" y="470.3666666666667"/>
      <point x="318.8" y="470.3666666666667" type="curve" smooth="yes"/>
      <point x="227.96666666666667" y="470.3666666666667"/>
      <point x="190.0" y="519.6333333333333"/>
      <point x="143.93333333333334" y="624.6333333333333" type="curve"/>
      <point x="95.03333333333333" y="604.0" type="line"/>
      <point x="144.73333333333335" y="485.0"/>
      <point x="202.23333333333335" y="397.3666666666667"/>
      <point x="322.16666666666663" y="397.3666666666667" type="curve" smooth="yes"/>
      <point x="415.1" y="397.3666666666667"/>
      <point x="457.3666666666667" y="457.53333333333336"/>
      <point x="457.3666666666667" y="517.0" type="curve" smooth="yes"/>
      <point x="457.3666666666667" y="583.0"/>
      <point x="419.3" y="634.0"/>
      <point x="339.06666666666666" y="634.0" type="curve" smooth="yes"/>
      <point x="255.56666666666666" y="634.0"/>
      <point x="203.76666666666668" y="571.0"/>
      <point x="203.76666666666668" y="472.0" type="curve" smooth="yes"/>
      <point x="203.76666666666668" y="339.8" type="line" smooth="yes"/>
      <point x="203.76666666666668" y="294.1666666666667"/>
      <point x="222.76666666666665" y="263.1666666666667"/>
      <point x="243.9333333333333" y="243.26666666666668" type="curve" smooth="yes"/>
      <point x="268.2" y="219.9"/>
      <point x="298.4666666666667" y="209.63333333333335"/>
      <point x="333.9" y="209.63333333333335" type="curve" smooth="yes"/>
      <point x="398.6" y="209.63333333333335"/>
      <point x="477.8333333333333" y="262.9"/>
      <point x="512.6" y="324.26666666666665" type="curve"/>
      <point x="465.8" y="350.8333333333333" type="line"/>
      <point x="482.9666666666667" y="325.2"/>
      <point x="495.8666666666667" y="294.2"/>
      <point x="495.8666666666667" y="261.56666666666666" type="curve" smooth="yes"/>
      <point x="495.8666666666667" y="181.76666666666668"/>
      <point x="442.06666666666666" y="129.16666666666666"/>
      <point x="342.6" y="129.16666666666666" type="curve" smooth="yes"/>
      <point x="200.39999999999998" y="129.16666666666666"/>
      <point x="128.56666666666666" y="231.16666666666666"/>
      <point x="63.1" y="494.0" type="curve"/>
      <point x="8.2" y="479.7333333333333" type="line"/>
      <point x="69.66666666666666" y="161.26666666666665"/>
      <point x="168.56666666666666" y="4.366666666666666"/>
    </contour>
  </outline>
</glyph>
<glyph name="ca-beng" format="2">
  <advance width="493.3"/>
  <unicode hex="099A"/>
  <anchor x="333.3666666666667" y="7.0" name="bottom"/>
  <anchor x="404.5333333333333" y="0.0" name="bottom.rakaar"/>
  <anchor x="347.0" y="-3.966666666666667" name="bottom.rvocalic"/>
  <anchor x="272.3666666666667" y="27.0" name="bottom.virama"/>
  <anchor x="136.16666666666666" y="583.0" name="top"/>
  <anchor x="137.8" y="571.0" name="topright"/>
  <anchor x="246.46666666666667" y="0.0" name="vedic"/>
  <outline>
    <contour>
      <point x="220.5" y="6.0" type="curve" smooth="yes"/>
      <point x="373.43333333333334" y="6.0"/>
      <point x="458.9" y="195.0"/>
      <point x="458.9" y="305.0" type="curve" smooth="yes"/>
      <point x="458.9" y="362.6333333333333"/>
      <point x="410.0" y="401.0"/>
      <point x="382.6333333333333" y="415.0" type="curve"/>
      <point x="303.5" y="420.0"/>
      <point x="207.33333333333334" y="453.73333333333335"/>
      <point x="153.1" y="554.0" type="curve"/>
      <point x="151.73333333333332" y="473.26666666666665" type="line"/>
      <point x="187.33333333333334" y="380.0"/>
      <point x="266.0" y="310.7333333333333"/>
      <point x="380.4666666666667" y="302.1" type="curve"/>
      <point x="337.3" y="345.3666666666666" type="line"/>
      <point x="329.3" y="203.33333333333334"/>
      <point x="258.0" y="104.9"/>
      <point x="203.13333333333333" y="104.9" type="curve" smooth="yes"/>
      <point x="176.16666666666669" y="104.9"/>
      <point x="158.73333333333332" y="119.8"/>
      <point x="158.73333333333332" y="149.06666666666666" type="curve" smooth="yes"/>
      <point x="158.73333333333332" y="550.0" type="line"/>
      <point x="526.8333333333333" y="550.0" type="line"/>
      <point x="487.3" y="622.0" type="line"/>
      <point x="-33.53333333333333" y="622.0" type="line"/>
      <point x="9.0" y="550.0" type="line"/>
      <point x="70.83333333333333" y="550.0" type="line"/>
      <point x="70.83333333333333" y="146.86666666666667" type="line" smooth="yes"/>
      <point x="70.83333333333333" y="64.23333333333333"/>
      <point x="143.16666666666669" y="6.0"/>
    </contour>
  </outline>
</glyph>
<glyph name="cha-beng" format="2">
  <advance width="526.5666666666666"/>
  <unicode hex="099B"/>
  <anchor x="324.90000000000003" y="7.299999999999999" name="bottom"/>
  <anchor x="447.3666666666667" y="-132.43333333333334" name="bottom.rakaar"/>
  <anchor x="402.9666666666667" y="-1.4333333333333336" name="bottom.rvocalic"/>
  <anchor x="317.3666666666667" y="5.566666666666666" name="bottom.virama"/>
  <anchor x="112.56666666666666" y="583.0" name="top"/>
  <anchor x="114.2" y="571.0" name="topright"/>
  <anchor x="262.96666666666664" y="0.0" name="vedic"/>
  <outline>
    <contour>
      <point x="512.2333333333333" y="-140.53333333333333" type="curve"/>
      <point x="549.1333333333334" y="-99.53333333333333" type="line"/>
      <point x="462.6" y="-4.433333333333334"/>
      <point x="338.96666666666664" y="87.66666666666667"/>
      <point x="224.4" y="114.03333333333333" type="curve"/>
      <point x="203.5" y="77.60000000000001" type="line"/>
      <point x="214.70000000000002" y="71.4"/>
      <point x="242.86666666666667" y="67.76666666666667"/>
      <point x="268.23333333333335" y="67.76666666666667" type="curve" smooth="yes"/>
      <point x="399.43333333333334" y="67.76666666666667"/>
      <point x="497.03333333333336" y="146.76666666666668"/>
      <point x="497.03333333333336" y="284.93333333333334" type="curve" smooth="yes"/>
      <point x="497.03333333333336" y="418.3666666666667"/>
      <point x="399.70000000000005" y="489.6333333333333"/>
      <point x="286.2" y="489.6333333333333" type="curve" smooth="yes"/>
      <point x="217.0" y="489.6333333333333"/>
      <point x="159.1" y="506.0"/>
      <point x="129.13333333333333" y="551.0" type="curve"/>
      <point x="125.13333333333334" y="503.0" type="line"/>
      <point x="153.93333333333334" y="443.0"/>
      <point x="211.53333333333333" y="412.09999999999997"/>
      <point x="262.8333333333333" y="405.4666666666667" type="curve"/>
      <point x="234.5" y="450.0" type="line"/>
      <point x="231.39999999999998" y="366.0"/>
      <point x="201.96666666666667" y="304.6333333333333"/>
      <point x="164.1" y="304.6333333333333" type="curve" smooth="yes"/>
      <point x="146.3" y="304.6333333333333"/>
      <point x="134.76666666666665" y="316.5333333333333"/>
      <point x="134.76666666666665" y="334.5333333333333" type="curve" smooth="yes"/>
      <point x="134.76666666666665" y="550.0" type="line"/>
      <point x="560.1" y="550.0" type="line"/>
      <point x="518.1999999999999" y="622.0" type="line"/>
      <point x="-33.53333333333333" y="622.0" type="line"/>
      <point x="7.0" y="550.0" type="line"/>
      <point x="47.96666666666666" y="550.0" type="line"/>
      <point x="47.96666666666666" y="335.43333333333334" type="line" smooth="yes"/>
      <point x="47.96666666666666" y="274.8"/>
      <point x="110.3" y="218.0"/>
      <point x="183.2" y="218.0" type="curve" smooth="yes"/>
      <point x="273.3333333333333" y="218.0"/>
      <point x="337.4666666666667" y="283.3666666666667"/>
      <point x="354.26666666666665" y="444.0" type="curve"/>
      <point x="309.3" y="418.26666666666665" type="line"/>
      <point x="357.90000000000003" y="418.26666666666665"/>
      <point x="407.03333333333336" y="391.53333333333336"/>
      <point x="407.03333333333336" y="313.53333333333336" type="curve" smooth="yes"/>
      <point x="407.03333333333336" y="219.70000000000002"/>
      <point x="329.8" y="173.73333333333332"/>
      <point x="227.93333333333334" y="173.73333333333332" type="curve" smooth="yes"/>
      <point x="173.66666666666666" y="173.73333333333332"/>
      <point x="120.53333333333333" y="183.20000000000002"/>
      <point x="76.03333333333333" y="207.83333333333331" type="curve"/>
      <point x="107.3" y="56.5" type="line"/>
      <point x="240.9" y="31.4"/>
      <point x="364.1" y="-11.166666666666668"/>
    </contour>
  </outline>
</glyph>
<glyph name="ja-beng" format="2">
  <advance width="774.3000000000001"/>
  <unicode hex="099C"/>
  <anchor x="691.3333333333334" y="49.43333333333334" name="bottom"/>
  <anchor x="703.6" y="54.833333333333336" name="bottom.rakaar"/>
  <anchor x="703.3333333333334" y="-29.0" name="bottom.rvocalic"/>
  <anchor x="687.4333333333334" y="-29.8" name="bottom.virama"/>
  <anchor x="423.2" y="582.6333333333333" name="top"/>
  <anchor x="424.20000000000005" y="571.0" name="topright"/>
  <anchor x="386.9666666666667" y="0.0" name="vedic"/>
  <outline>
    <contour>
      <point x="339.1666666666667" y="-9.533333333333333" type="curve" smooth="yes"/>
      <point x="477.09999999999997" y="-9.533333333333333"/>
      <point x="536.3333333333334" y="84.73333333333333"/>
      <point x="536.3333333333334" y="212.89999999999998" type="curve" smooth="yes"/>
      <point x="536.3333333333334" y="304.3666666666667"/>
      <point x="494.6" y="376.0"/>
      <point x="450.0" y="419.26666666666665" type="curve"/>
      <point x="402.1333333333333" y="356.3666666666667"/>
      <point x="360.06666666666666" y="321.73333333333335"/>
      <point x="322.73333333333335" y="321.73333333333335" type="curve" smooth="yes"/>
      <point x="293.0333333333333" y="321.73333333333335"/>
      <point x="271.8666666666667" y="339.7333333333333"/>
      <point x="271.8666666666667" y="372.09999999999997" type="curve" smooth="yes"/>
      <point x="271.8666666666667" y="431.46666666666664"/>
      <point x="361.56666666666666" y="502.83333333333337"/>
      <point x="465.76666666666665" y="550.0" type="curve"/>
      <point x="807.8333333333334" y="550.0" type="line"/>
      <point x="767.9333333333334" y="622.0" type="line"/>
      <point x="-33.53333333333333" y="622.0" type="line"/>
      <point x="7.0" y="550.0" type="line"/>
      <point x="333.26666666666665" y="550.0" type="line"/>
      <point x="306.3666666666667" y="581.0" type="line"/>
      <point x="254.96666666666667" y="549.8333333333334"/>
      <point x="178.33333333333334" y="476.3666666666667"/>
      <point x="178.33333333333334" y="383.3666666666667" type="curve" smooth="yes"/>
      <point x="178.33333333333334" y="281.0"/>
      <point x="251.76666666666668" y="207.46666666666667"/>
      <point x="333.6333333333333" y="207.46666666666667" type="curve" smooth="yes"/>
      <point x="393.6" y="207.46666666666667"/>
      <point x="452.5666666666667" y="246.46666666666667"/>
      <point x="496.2666666666667" y="310.73333333333335" type="curve"/>
      <point x="446.26666666666665" y="322.1333333333333" type="line"/>
      <point x="463.1666666666667" y="298.5"/>
      <point x="476.06666666666666" y="270.76666666666665"/>
      <point x="476.06666666666666" y="234.86666666666667" type="curve" smooth="yes"/>
      <point x="476.06666666666666" y="165.96666666666667"/>
      <point x="423.8333333333333" y="119.16666666666667"/>
      <point x="339.7" y="119.16666666666667" type="curve" smooth="yes"/>
      <point x="200.43333333333334" y="119.16666666666667"/>
      <point x="119.46666666666667" y="234.76666666666668"/>
      <point x="69.36666666666666" y="482.53333333333336" type="curve"/>
      <point x="14.266666666666666" y="470.0" type="line"/>
      <point x="64.2" y="144.6"/>
      <point x="163.43333333333334" y="-9.533333333333333"/>
    </contour>
    <contour>
      <point x="652.4333333333333" y="-63.06666666666666" type="curve"/>
      <point x="703.3333333333334" y="-43.8" type="line"/>
      <point x="679.8" y="28.833333333333332"/>
      <point x="673.8" y="83.9"/>
      <point x="673.8" y="147.53333333333333" type="curve" smooth="yes"/>
      <point x="673.8" y="228.13333333333333"/>
      <point x="701.3333333333334" y="311.5"/>
      <point x="752.4" y="380.0" type="curve"/>
      <point x="688.5" y="469.0" type="line"/>
      <point x="571.3000000000001" y="459.3666666666667"/>
      <point x="497.6333333333333" y="499.6333333333333"/>
      <point x="461.40000000000003" y="588.2666666666667" type="curve"/>
      <point x="415.4" y="549.0" type="line"/>
      <point x="458.79999999999995" y="419.3666666666667"/>
      <point x="561.4000000000001" y="364.4666666666667"/>
      <point x="654.6999999999999" y="348.3" type="curve"/>
      <point x="633.4333333333333" y="402.79999999999995" type="line"/>
      <point x="605.1666666666666" y="334.1666666666667"/>
      <point x="592.9" y="267.0"/>
      <point x="592.9" y="192.43333333333334" type="curve" smooth="yes"/>
      <point x="592.9" y="91.36666666666667"/>
      <point x="618.0" y="12.266666666666666"/>
    </contour>
  </outline>
</glyph>
<glyph name="jha-beng" format="2">
  <advance width="669.5666666666667"/>
  <unicode hex="099D"/>
  <anchor x="429.7666666666667" y="34.0" name="bottom"/>
  <anchor x="435.2" y="86.36666666666666" name="bottom.rakaar"/>
  <anchor x="436.3" y="8.9" name="bottom.rvocalic"/>
  <anchor x="420.3" y="16.2" name="bottom.virama"/>
  <anchor x="400.7" y="583.0" name="top"/>
  <anchor x="460.3666666666667" y="583.0" name="topleft"/>
  <anchor x="401.7" y="571.0" name="topright"/>
  <anchor x="334.6" y="0.0" name="vedic"/>
  <outline>
    <contour>
      <point x="427.3" y="-24.0" type="line"/>
      <point x="436.3" y="-22.0" type="line"/>
      <point x="436.3" y="622.0" type="line"/>
      <point x="-33.53333333333333" y="622.0" type="line"/>
      <point x="7.0" y="550.0" type="line"/>
      <point x="347.76666666666665" y="550.0" type="line"/>
      <point x="347.76666666666665" y="469.6333333333334" type="line"/>
      <point x="357.76666666666665" y="517.6333333333333" type="line"/>
      <point x="232.66666666666666" y="479.8"/>
      <point x="111.96666666666665" y="420.96666666666664"/>
      <point x="8.333333333333334" y="349.53333333333336" type="curve"/>
      <point x="67.36666666666666" y="203.26666666666668" type="line"/>
      <point x="191.53333333333336" y="184.96666666666667"/>
      <point x="296.3666666666667" y="124.16666666666666"/>
      <point x="361.96666666666664" y="17.166666666666668" type="curve"/>
    </contour>
    <contour>
      <point x="347.76666666666665" y="86.13333333333333" type="line"/>
      <point x="363.2333333333333" y="99.06666666666666" type="line"/>
      <point x="310.2333333333333" y="214.93333333333334"/>
      <point x="214.86666666666665" y="272.6"/>
      <point x="138.33333333333331" y="295.53333333333336" type="curve"/>
      <point x="144.86666666666667" y="273.3666666666666" type="line"/>
      <point x="209.16666666666666" y="321.0"/>
      <point x="294.2" y="360.43333333333334"/>
      <point x="364.03333333333336" y="384.43333333333334" type="curve"/>
      <point x="347.76666666666665" y="420.7333333333333" type="line"/>
    </contour>
    <contour>
      <point x="591.3666666666667" y="57.733333333333334" type="line"/>
      <point x="599.7333333333333" y="59.733333333333334" type="line"/>
      <point x="599.7333333333333" y="550.0" type="line"/>
      <point x="703.1" y="550.0" type="line"/>
      <point x="662.5666666666666" y="622.0" type="line"/>
      <point x="592.0" y="622.0" type="line"/>
      <point x="584.0" y="677.0" type="line"/>
      <point x="518.9333333333334" y="713.0" type="line"/>
      <point x="511.93333333333334" y="710.0" type="line"/>
      <point x="511.93333333333334" y="168.23333333333332" type="line"/>
      <point x="527.4" y="178.26666666666668" type="line"/>
      <point x="495.2666666666667" y="257.40000000000003"/>
      <point x="453.3666666666667" y="301.70000000000005"/>
      <point x="400.4" y="336.06666666666666" type="curve"/>
      <point x="391.03333333333336" y="237.23333333333332" type="line"/>
      <point x="448.8" y="206.23333333333335"/>
      <point x="490.70000000000005" y="163.86666666666667"/>
      <point x="525.5" y="98.89999999999999" type="curve"/>
    </contour>
  </outline>
</glyph>
<glyph name="nya-beng" format="2">
  <advance width="899.8"/>
  <unicode hex="099E"/>
  <anchor x="561.5" y="29.0" name="bottom"/>
  <anchor x="615.4333333333333" y="82.0" name="bottom.rakaar"/>
  <anchor x="568.0333333333334" y="3.9000000000000004" name="bottom.rvocalic"/>
  <anchor x="549.5" y="9.0" name="bottom.virama"/>
  <anchor x="472.1666666666667" y="582.6333333333333" name="top"/>
  <anchor x="473.43333333333334" y="571.0" name="topright"/>
  <anchor x="449.9" y="0.0" name="vedic"/>
  <outline>
    <contour>
      <point x="715.6666666666667" y="32.8" type="curve" smooth="yes"/>
      <point x="804.5333333333333" y="32.8"/>
      <point x="849.8666666666667" y="102.8"/>
      <point x="849.8666666666667" y="186.8" type="curve" smooth="yes"/>
      <point x="849.8666666666667" y="242.70000000000002"/>
      <point x="829.3333333333334" y="299.43333333333334"/>
      <point x="781.5333333333333" y="339.43333333333334" type="curve"/>
      <point x="798.5333333333333" y="292.43333333333334" type="line"/>
      <point x="826.3333333333333" y="322.06666666666666"/>
      <point x="848.2333333333333" y="375.06666666666666"/>
      <point x="848.2333333333333" y="439.43333333333334" type="curve" smooth="yes"/>
      <point x="848.2333333333333" y="530.0666666666666"/>
      <point x="801.1666666666667" y="602.0666666666666"/>
      <point x="723.3000000000001" y="602.0666666666666" type="curve" smooth="yes"/>
      <point x="611.2666666666667" y="602.0666666666666"/>
      <point x="544.5" y="456.43333333333334"/>
      <point x="536.2333333333332" y="372.43333333333334" type="curve"/>
      <point x="536.2333333333332" y="266.43333333333334" type="line"/>
      <point x="553.1333333333333" y="142.43333333333334"/>
      <point x="619.5333333333333" y="32.8"/>
    </contour>
    <contour>
      <point x="708.3000000000001" y="143.43333333333334" type="curve" smooth="yes"/>
      <point x="638.2666666666667" y="143.43333333333334"/>
      <point x="573.1333333333334" y="218.79999999999998"/>
      <point x="573.1333333333334" y="314.06666666666666" type="curve" smooth="yes"/>
      <point x="573.1333333333334" y="400.06666666666666"/>
      <point x="632.3666666666667" y="500.8"/>
      <point x="716.3000000000001" y="500.8" type="curve" smooth="yes"/>
      <point x="749.1666666666666" y="500.8"/>
      <point x="771.6" y="484.06666666666666"/>
      <point x="771.6" y="449.43333333333334" type="curve" smooth="yes"/>
      <point x="771.6" y="411.8"/>
      <point x="740.8" y="378.43333333333334"/>
      <point x="705.4666666666666" y="362.43333333333334" type="curve"/>
      <point x="760.5333333333333" y="353.43333333333334" type="line"/>
      <point x="742.0" y="377.43333333333334"/>
      <point x="719.5666666666667" y="393.43333333333334"/>
      <point x="687.6666666666667" y="393.43333333333334" type="curve" smooth="yes"/>
      <point x="645.2333333333333" y="393.43333333333334"/>
      <point x="617.0666666666667" y="362.06666666666666"/>
      <point x="617.0666666666667" y="315.43333333333334" type="curve" smooth="yes"/>
      <point x="617.0666666666667" y="265.43333333333334"/>
      <point x="649.2333333333333" y="235.8"/>
      <point x="692.6666666666667" y="235.8" type="curve" smooth="yes"/>
      <point x="731.0999999999999" y="235.8"/>
      <point x="759.6333333333333" y="252.8"/>
      <point x="784.1666666666666" y="282.43333333333334" type="curve"/>
      <point x="739.6333333333333" y="306.43333333333334" type="line"/>
      <point x="758.4333333333333" y="288.43333333333334"/>
      <point x="782.9666666666667" y="262.06666666666666"/>
      <point x="782.9666666666667" y="221.43333333333334" type="curve" smooth="yes"/>
      <point x="782.9666666666667" y="171.43333333333334"/>
      <point x="755.1666666666666" y="143.43333333333334"/>
    </contour>
    <component base="e-beng"/>
  </outline>
</glyph>
<glyph name="tta-beng" format="2">
  <advance width="509.8666666666667"/>
  <unicode hex="099F"/>
  <anchor x="336.1" y="7.0" name="bottom"/>
  <anchor x="406.0" y="1.2666666666666666" name="bottom.rakaar"/>
  <anchor x="341.5" y="10.6" name="bottom.rvocalic"/>
  <anchor x="273.8333333333333" y="28.26666666666667" name="bottom.virama"/>
  <anchor x="270.6666666666667" y="672.3666666666667" name="top"/>
  <anchor x="194.23333333333335" y="636.7333333333333" name="topright"/>
  <anchor x="254.93333333333334" y="0.0" name="vedic"/>
  <anchor x="224.5" y="-100.0" name="nukta"/>
  <outline>
    <contour>
      <point x="378.4" y="598.0" type="curve"/>
      <point x="436.20000000000005" y="598.0" type="line"/>
      <point x="432.2" y="742.3"/>
      <point x="382.3" y="817.4333333333333"/>
      <point x="287.06666666666666" y="817.4333333333333" type="curve" smooth="yes"/>
      <point x="236.36666666666667" y="817.4333333333333"/>
      <point x="202.2" y="808.0666666666666"/>
      <point x="152.13333333333335" y="808.0666666666666" type="curve" smooth="yes"/>
      <point x="86.26666666666667" y="808.0666666666666"/>
      <point x="56.46666666666667" y="831.0666666666667"/>
      <point x="56.46666666666667" y="888.8000000000001" type="curve" smooth="yes"/>
      <point x="56.46666666666667" y="901.1666666666667"/>
      <point x="57.46666666666667" y="915.5333333333333"/>
      <point x="59.46666666666667" y="927.2666666666667" type="curve"/>
      <point x="10.3" y="932.6333333333333" type="line"/>
      <point x="5.300000000000001" y="910.5333333333333"/>
      <point x="2.666666666666667" y="883.5333333333333"/>
      <point x="2.666666666666667" y="859.9" type="curve" smooth="yes"/>
      <point x="2.666666666666667" y="761.8"/>
      <point x="52.733333333333334" y="694.7333333333333"/>
      <point x="159.76666666666668" y="694.7333333333333" type="curve" smooth="yes"/>
      <point x="219.2" y="694.7333333333333"/>
      <point x="258.06666666666666" y="705.3666666666667"/>
      <point x="299.23333333333335" y="705.3666666666667" type="curve" smooth="yes"/>
      <point x="347.93333333333334" y="705.3666666666667"/>
      <point x="376.93333333333334" y="682.0"/>
    </contour>
    <component base="ddha-beng"/>
  </outline>
</glyph>
<glyph name="ttha-beng" format="2">
  <advance width="523.7333333333333"/>
  <unicode hex="09A0"/>
  <anchor x="321.73333333333335" y="-29.0" name="bottom"/>
  <anchor x="459.66666666666663" y="-29.0" name="bottom.rakaar"/>
  <anchor x="372.1" y="-33.0" name="bottom.rvocalic"/>
  <anchor x="306.4" y="-12.0" name="bottom.virama"/>
  <anchor x="430.1333333333333" y="563.9000000000001" name="top"/>
  <anchor x="416.20000000000005" y="608.0" name="topleft"/>
  <anchor x="320.66666666666663" y="571.0" name="topright"/>
  <anchor x="261.8666666666667" y="0.0" name="vedic"/>
  <outline>
    <contour>
      <point x="272.5" y="-29.0" type="curve" smooth="yes"/>
      <point x="399.43333333333334" y="-29.0"/>
      <point x="479.6666666666667" y="53.06666666666666"/>
      <point x="479.6666666666667" y="196.66666666666666" type="curve" smooth="yes"/>
      <point x="479.6666666666667" y="332.3"/>
      <point x="393.06666666666666" y="444.8"/>
      <point x="298.4" y="550.0" type="curve"/>
      <point x="557.2666666666667" y="550.0" type="line"/>
      <point x="516.7333333333333" y="622.0" type="line"/>
      <point x="236.79999999999998" y="622.0" type="line"/>
      <point x="201.36666666666667" y="658.0"/>
      <point x="182.56666666666666" y="691.7333333333333"/>
      <point x="182.56666666666666" y="725.7333333333333" type="curve" smooth="yes"/>
      <point x="182.56666666666666" y="763.3666666666667"/>
      <point x="211.1" y="799.0"/>
      <point x="255.7" y="824.0" type="curve"/>
      <point x="168.8" y="898.0" type="line"/>
      <point x="108.56666666666668" y="862.0"/>
      <point x="77.03333333333333" y="813.0"/>
      <point x="77.03333333333333" y="766.0" type="curve" smooth="yes"/>
      <point x="77.03333333333333" y="704.6333333333333"/>
      <point x="115.1" y="665.0"/>
      <point x="158.26666666666668" y="622.0" type="curve"/>
      <point x="-33.53333333333333" y="622.0" type="line"/>
      <point x="7.0" y="550.0" type="line"/>
      <point x="199.26666666666665" y="550.0" type="line"/>
      <point x="209.43333333333334" y="524.2666666666667"/>
      <point x="215.7" y="494.1"/>
      <point x="215.7" y="457.0" type="curve" smooth="yes"/>
      <point x="215.7" y="351.3333333333333"/>
      <point x="147.06666666666666" y="272.3333333333333"/>
      <point x="20.266666666666666" y="245.96666666666667" type="curve"/>
      <point x="34.6" y="80.9"/>
      <point x="122.46666666666667" y="-29.0"/>
    </contour>
    <contour>
      <point x="249.23333333333335" y="61.9" type="curve" smooth="yes"/>
      <point x="185.83333333333331" y="61.9"/>
      <point x="144.33333333333334" y="115.33333333333334"/>
      <point x="143.60000000000002" y="178.60000000000002" type="curve"/>
      <point x="129.43333333333334" y="145.70000000000002" type="line"/>
      <point x="238.70000000000002" y="177.70000000000002"/>
      <point x="294.03333333333336" y="255.16666666666666"/>
      <point x="294.03333333333336" y="365.7" type="curve" smooth="yes"/>
      <point x="294.03333333333336" y="436.90000000000003"/>
      <point x="272.7" y="499.0"/>
      <point x="237.8" y="557.0" type="curve"/>
      <point x="225.53333333333333" y="557.0" type="line"/>
      <point x="320.46666666666664" y="443.20000000000005"/>
      <point x="362.7" y="345.76666666666665"/>
      <point x="362.7" y="225.06666666666666" type="curve" smooth="yes"/>
      <point x="362.7" y="119.06666666666666"/>
      <point x="318.53333333333336" y="61.9"/>
    </contour>
  </outline>
</glyph>
<glyph name="dda-beng" format="2">
  <advance width="589.6"/>
  <unicode hex="09A1"/>
  <anchor x="423.56666666666666" y="-1.0" name="bottom"/>
  <anchor x="516.3333333333334" y="-9.0" name="bottom.rakaar"/>
  <anchor x="428.83333333333337" y="3.0" name="bottom.rvocalic"/>
  <anchor x="385.8666666666667" y="-1.0" name="bottom.virama"/>
  <anchor x="317.3333333333333" y="-108.0" name="nukta"/>
  <anchor x="278.43333333333334" y="583.0" name="top"/>
  <anchor x="279.43333333333334" y="571.0" name="topright"/>
  <anchor x="294.8" y="0.0" name="vedic"/>
  <outline>
    <contour>
      <point x="345.3" y="5.0" type="curve" smooth="yes"/>
      <point x="492.5" y="5.0"/>
      <point x="566.0999999999999" y="104.89999999999999"/>
      <point x="566.0999999999999" y="244.53333333333333" type="curve" smooth="yes"/>
      <point x="566.0999999999999" y="350.9"/>
      <point x="524.2" y="427.43333333333334"/>
      <point x="468.8666666666667" y="478.3333333333333" type="curve"/>
      <point x="421.26666666666665" y="403.1333333333334"/>
      <point x="370.0333333333333" y="358.23333333333335"/>
      <point x="332.06666666666666" y="358.23333333333335" type="curve" smooth="yes"/>
      <point x="315.26666666666665" y="358.23333333333335"/>
      <point x="301.0" y="365.59999999999997"/>
      <point x="301.0" y="388.23333333333335" type="curve" smooth="yes"/>
      <point x="301.0" y="550.0" type="line"/>
      <point x="623.1333333333333" y="550.0" type="line"/>
      <point x="581.2333333333333" y="622.0" type="line"/>
      <point x="-33.53333333333333" y="622.0" type="line"/>
      <point x="8.0" y="550.0" type="line"/>
      <point x="212.46666666666667" y="550.0" type="line"/>
      <point x="212.46666666666667" y="376.0" type="line" smooth="yes"/>
      <point x="212.46666666666667" y="330.3666666666666"/>
      <point x="226.26666666666665" y="299.6333333333333"/>
      <point x="251.53333333333333" y="274.6333333333333" type="curve" smooth="yes"/>
      <point x="276.16666666666663" y="250.26666666666668"/>
      <point x="306.96666666666664" y="236.36666666666667"/>
      <point x="345.8666666666667" y="236.36666666666667" type="curve" smooth="yes"/>
      <point x="405.6666666666667" y="236.36666666666667"/>
      <point x="474.8" y="284.6333333333333"/>
      <point x="517.3" y="357.6333333333333" type="curve"/>
      <point x="462.6" y="349.8666666666667" type="line"/>
      <point x="484.0333333333333" y="330.23333333333335"/>
      <point x="497.93333333333334" y="301.8666666666667"/>
      <point x="497.93333333333334" y="264.0666666666667" type="curve" smooth="yes"/>
      <point x="497.93333333333334" y="187.23333333333332"/>
      <point x="441.8666666666667" y="132.8"/>
      <point x="345.03333333333336" y="132.8" type="curve" smooth="yes"/>
      <point x="187.03333333333333" y="132.8"/>
      <point x="116.26666666666667" y="254.79999999999998"/>
      <point x="71.86666666666667" y="481.2666666666667" type="curve"/>
      <point x="14.6" y="470.0" type="line"/>
      <point x="59.366666666666674" y="163.33333333333334"/>
      <point x="158.10000000000002" y="5.0"/>
    </contour>
  </outline>
</glyph>
<glyph name="ddha-beng" format="2">
  <advance width="509.8666666666667"/>
  <unicode hex="09A2"/>
  <anchor x="337.3666666666667" y="7.0" name="bottom"/>
  <anchor x="406.0" y="1.2666666666666666" name="bottom.rakaar"/>
  <anchor x="341.5" y="9.966666666666669" name="bottom.rvocalic"/>
  <anchor x="273.8333333333333" y="28.26666666666667" name="bottom.virama"/>
  <anchor x="224.5" y="-100.0" name="nukta"/>
  <anchor x="137.63333333333333" y="583.0" name="top"/>
  <anchor x="139.26666666666668" y="571.0" name="topright"/>
  <anchor x="254.93333333333334" y="0.0" name="vedic"/>
  <outline>
    <contour>
      <point x="220.86666666666665" y="7.266666666666667" type="curve" smooth="yes"/>
      <point x="364.1666666666667" y="7.266666666666667"/>
      <point x="473.90000000000003" y="177.0"/>
      <point x="473.90000000000003" y="318.0" type="curve" smooth="yes"/>
      <point x="473.90000000000003" y="417.6333333333333"/>
      <point x="418.7333333333333" y="460.0"/>
      <point x="357.03333333333336" y="460.0" type="curve" smooth="yes"/>
      <point x="291.96666666666664" y="460.0"/>
      <point x="252.0666666666667" y="415.1"/>
      <point x="252.0666666666667" y="360.0" type="curve" smooth="yes"/>
      <point x="252.0666666666667" y="303.73333333333335"/>
      <point x="285.6" y="263.7333333333333"/>
      <point x="342.76666666666665" y="263.7333333333333" type="curve" smooth="yes"/>
      <point x="366.46666666666664" y="263.7333333333333"/>
      <point x="386.2" y="276.7333333333333"/>
      <point x="402.83333333333337" y="297.7333333333333" type="curve"/>
      <point x="352.03333333333336" y="332.0" type="line"/>
      <point x="346.3" y="203.43333333333334"/>
      <point x="263.06666666666666" y="106.16666666666667"/>
      <point x="201.86666666666667" y="106.16666666666667" type="curve" smooth="yes"/>
      <point x="176.43333333333334" y="106.16666666666667"/>
      <point x="158.73333333333332" y="122.06666666666666"/>
      <point x="158.73333333333332" y="151.33333333333331" type="curve" smooth="yes"/>
      <point x="158.73333333333332" y="550.0" type="line"/>
      <point x="543.4" y="550.0" type="line"/>
      <point x="504.23333333333335" y="622.0" type="line"/>
      <point x="-33.53333333333333" y="622.0" type="line"/>
      <point x="9.0" y="550.0" type="line"/>
      <point x="70.83333333333333" y="550.0" type="line"/>
      <point x="70.83333333333333" y="149.13333333333333" type="line" smooth="yes"/>
      <point x="70.83333333333333" y="64.86666666666667"/>
      <point x="143.53333333333333" y="7.266666666666667"/>
    </contour>
  </outline>
</glyph>
<glyph name="nna-beng" format="2">
  <advance width="583.2"/>
  <unicode hex="09A3"/>
  <anchor x="496.56666666666666" y="62.13333333333333" name="bottom"/>
  <anchor x="512.3666666666667" y="-15.0" name="bottom.rakaar"/>
  <anchor x="512.3666666666667" y="-3.0" name="bottom.rvocalic"/>
  <anchor x="478.16666666666663" y="8.0" name="bottom.virama"/>
  <anchor x="485.7" y="573.0" name="top"/>
  <anchor x="469.26666666666665" y="564.0" name="topright"/>
  <anchor x="291.1" y="0.0" name="vedic"/>
  <outline>
    <contour>
      <point x="504.3666666666667" y="-35.0" type="line"/>
      <point x="512.3666666666667" y="-33.0" type="line"/>
      <point x="512.3666666666667" y="550.0" type="line"/>
      <point x="616.7333333333333" y="550.0" type="line"/>
      <point x="575.1999999999999" y="622.0" type="line"/>
      <point x="504.6333333333333" y="622.0" type="line"/>
      <point x="497.26666666666665" y="677.0" type="line"/>
      <point x="432.56666666666666" y="713.0" type="line"/>
      <point x="425.56666666666666" y="710.0" type="line"/>
      <point x="425.56666666666666" y="579.5" type="line" smooth="yes"/>
      <point x="425.56666666666666" y="515.3333333333334"/>
      <point x="429.2" y="441.9666666666667"/>
      <point x="433.83333333333337" y="389.93333333333334" type="curve"/>
      <point x="442.2" y="397.6333333333334" type="line"/>
      <point x="374.8666666666667" y="550.2666666666667"/>
      <point x="301.96666666666664" y="629.0"/>
      <point x="200.73333333333332" y="629.0" type="curve" smooth="yes"/>
      <point x="108.13333333333334" y="629.0"/>
      <point x="31.8" y="558.1"/>
      <point x="31.8" y="435.09999999999997" type="curve" smooth="yes"/>
      <point x="31.8" y="292.83333333333337"/>
      <point x="126.43333333333334" y="226.73333333333332"/>
      <point x="214.56666666666666" y="226.73333333333332" type="curve" smooth="yes"/>
      <point x="285.0" y="226.73333333333332"/>
      <point x="324.1666666666667" y="268.3666666666667"/>
      <point x="324.1666666666667" y="329.73333333333335" type="curve" smooth="yes"/>
      <point x="324.1666666666667" y="386.0"/>
      <point x="289.2666666666667" y="429.6333333333333"/>
      <point x="231.20000000000002" y="429.6333333333333" type="curve" smooth="yes"/>
      <point x="183.03333333333333" y="429.6333333333333"/>
      <point x="148.86666666666667" y="394.3666666666667"/>
      <point x="148.86666666666667" y="344.3666666666667" type="curve" smooth="yes"/>
      <point x="148.86666666666667" y="325.0"/>
      <point x="153.23333333333332" y="305.3666666666667"/>
      <point x="161.6" y="294.73333333333335" type="curve"/>
      <point x="209.10000000000002" y="332.0" type="line"/>
      <point x="197.83333333333331" y="328.6333333333333"/>
      <point x="185.20000000000002" y="326.9"/>
      <point x="173.56666666666666" y="326.9" type="curve" smooth="yes"/>
      <point x="141.5" y="326.9"/>
      <point x="115.60000000000001" y="355.0"/>
      <point x="115.60000000000001" y="405.2" type="curve" smooth="yes"/>
      <point x="115.60000000000001" y="468.7333333333333"/>
      <point x="159.73333333333335" y="507.93333333333334"/>
      <point x="225.63333333333333" y="507.93333333333334" type="curve" smooth="yes"/>
      <point x="304.43333333333334" y="507.93333333333334"/>
      <point x="370.6333333333333" y="454.8333333333333"/>
      <point x="435.7333333333333" y="299.7" type="curve"/>
      <point x="424.4666666666667" y="365.4666666666667" type="line"/>
      <point x="424.4666666666667" y="1.0" type="line"/>
    </contour>
  </outline>
</glyph>
<glyph name="ta-beng" format="2">
  <advance width="598.7333333333333"/>
  <unicode hex="09A4"/>
  <anchor x="444.6" y="9.0" name="bottom"/>
  <anchor x="525.4" y="0.0" name="bottom.rakaar"/>
  <anchor x="453.8666666666667" y="12.0" name="bottom.rvocalic"/>
  <anchor x="384.6666666666667" y="9.0" name="bottom.virama"/>
  <anchor x="361.8666666666667" y="583.0" name="top"/>
  <anchor x="362.8666666666667" y="571.0" name="topright"/>
  <anchor x="299.3666666666667" y="0.0" name="vedic"/>
  <outline>
    <contour>
      <point x="359.6" y="15.0" type="curve" smooth="yes"/>
      <point x="476.26666666666665" y="15.0"/>
      <point x="574.5999999999999" y="83.73333333333333"/>
      <point x="574.5999999999999" y="248.1" type="curve" smooth="yes"/>
      <point x="574.5999999999999" y="393.6666666666667"/>
      <point x="488.0" y="505.0"/>
      <point x="339.6333333333333" y="505.0" type="curve" smooth="yes"/>
      <point x="247.66666666666666" y="505.0"/>
      <point x="197.76666666666668" y="450.3666666666667"/>
      <point x="197.76666666666668" y="373.0" type="curve" smooth="yes"/>
      <point x="197.76666666666668" y="305.3666666666666"/>
      <point x="239.66666666666666" y="250.46666666666667"/>
      <point x="315.73333333333335" y="250.46666666666667" type="curve" smooth="yes"/>
      <point x="384.16666666666663" y="250.46666666666667"/>
      <point x="420.3333333333333" y="296.83333333333337"/>
      <point x="420.3333333333333" y="356.0" type="curve" smooth="yes"/>
      <point x="420.3333333333333" y="397.6333333333333"/>
      <point x="398.3333333333333" y="431.0"/>
      <point x="382.43333333333334" y="447.0" type="curve"/>
      <point x="345.1666666666667" y="374.0" type="line"/>
      <point x="356.43333333333334" y="380.0"/>
      <point x="377.70000000000005" y="388.0"/>
      <point x="399.9666666666667" y="388.0" type="curve" smooth="yes"/>
      <point x="454.6666666666667" y="388.0"/>
      <point x="498.7" y="354.0"/>
      <point x="498.7" y="276.7333333333333" type="curve" smooth="yes"/>
      <point x="498.7" y="190.9"/>
      <point x="441.73333333333335" y="144.43333333333334"/>
      <point x="354.8666666666666" y="144.43333333333334" type="curve" smooth="yes"/>
      <point x="222.3" y="144.43333333333334"/>
      <point x="126.76666666666667" y="232.6"/>
      <point x="58.833333333333336" y="492.2666666666667" type="curve"/>
      <point x="3.1999999999999997" y="478.0" type="line"/>
      <point x="71.76666666666667" y="156.5"/>
      <point x="175.60000000000002" y="15.0"/>
    </contour>
    <contour>
      <point x="6.366666666666666" y="550.0" type="line"/>
      <point x="632.2666666666667" y="550.0" type="line"/>
      <point x="590.7333333333333" y="622.0" type="line"/>
      <point x="-33.53333333333333" y="622.0" type="line"/>
    </contour>
  </outline>
</glyph>
<glyph name="tha-beng" format="2">
  <advance width="562.4333333333334"/>
  <unicode hex="09A5"/>
  <anchor x="485.7" y="34.0" name="bottom"/>
  <anchor x="492.23333333333335" y="87.0" name="bottom.rakaar"/>
  <anchor x="492.23333333333335" y="10.266666666666667" name="bottom.rvocalic"/>
  <anchor x="472.9666666666667" y="14.0" name="bottom.virama"/>
  <anchor x="463.8333333333333" y="573.0" name="top"/>
  <anchor x="448.4" y="564.0" name="topright"/>
  <anchor x="280.90000000000003" y="0.0" name="vedic"/>
  <outline>
    <contour>
      <point x="483.6" y="-24.0" type="line"/>
      <point x="492.23333333333335" y="-22.0" type="line"/>
      <point x="492.23333333333335" y="550.0" type="line"/>
      <point x="595.9666666666667" y="550.0" type="line"/>
      <point x="555.4333333333334" y="622.0" type="line"/>
      <point x="484.8666666666667" y="622.0" type="line"/>
      <point x="476.8666666666667" y="677.0" type="line"/>
      <point x="410.7" y="713.0" type="line"/>
      <point x="404.06666666666666" y="710.0" type="line"/>
      <point x="404.06666666666666" y="83.7" type="line"/>
      <point x="418.8" y="95.2" type="line"/>
      <point x="366.43333333333334" y="216.0"/>
      <point x="257.96666666666664" y="267.76666666666665"/>
      <point x="165.63333333333333" y="296.4" type="curve"/>
      <point x="190.26666666666668" y="255.93333333333334" type="line"/>
      <point x="303.2" y="271.9666666666667"/>
      <point x="356.5" y="334.5"/>
      <point x="356.5" y="434.56666666666666" type="curve" smooth="yes"/>
      <point x="356.5" y="553.4"/>
      <point x="273.1" y="625.7333333333333"/>
      <point x="169.6" y="625.7333333333333" type="curve" smooth="yes"/>
      <point x="80.03333333333333" y="625.7333333333333"/>
      <point x="20.666666666666668" y="573.4333333333333"/>
      <point x="20.666666666666668" y="502.7" type="curve" smooth="yes"/>
      <point x="20.666666666666668" y="436.2666666666667"/>
      <point x="60.93333333333334" y="404.0"/>
      <point x="109.89999999999999" y="404.0" type="curve" smooth="yes"/>
      <point x="159.7" y="404.0"/>
      <point x="188.96666666666667" y="433.6333333333333"/>
      <point x="188.96666666666667" y="478.5333333333333" type="curve" smooth="yes"/>
      <point x="188.96666666666667" y="511.9"/>
      <point x="175.7" y="532.8"/>
      <point x="150.53333333333333" y="544.6" type="curve"/>
      <point x="152.26666666666668" y="505.0" type="line"/>
      <point x="164.33333333333334" y="526.0"/>
      <point x="181.6" y="538.2"/>
      <point x="206.5" y="538.2" type="curve" smooth="yes"/>
      <point x="245.46666666666667" y="538.2"/>
      <point x="269.2666666666667" y="507.2"/>
      <point x="269.2666666666667" y="462.73333333333335" type="curve" smooth="yes"/>
      <point x="269.2666666666667" y="372.7666666666667"/>
      <point x="171.03333333333333" y="344.56666666666666"/>
      <point x="61.666666666666664" y="345.73333333333335" type="curve"/>
      <point x="111.46666666666667" y="201.93333333333334" type="line"/>
      <point x="240.93333333333334" y="187.1"/>
      <point x="352.8333333333333" y="125.9"/>
      <point x="417.90000000000003" y="17.633333333333333" type="curve"/>
    </contour>
  </outline>
</glyph>
<glyph name="da-beng" format="2">
  <advance width="515.4333333333333"/>
  <unicode hex="09A6"/>
  <anchor x="434.76666666666665" y="69.7" name="bottom"/>
  <anchor x="448.93333333333334" y="58.0" name="bottom.rakaar"/>
  <anchor x="448.93333333333334" y="-25.833333333333332" name="bottom.rvocalic"/>
  <anchor x="432.76666666666665" y="-26.0" name="bottom.virama"/>
  <anchor x="126.2" y="583.0" name="top"/>
  <anchor x="127.83333333333334" y="571.0" name="topright"/>
  <anchor x="257.4" y="0.0" name="vedic"/>
  <outline>
    <contour>
      <point x="398.03333333333336" y="-59.9" type="curve"/>
      <point x="448.93333333333334" y="-40.0" type="line"/>
      <point x="427.0333333333333" y="33.266666666666666"/>
      <point x="418.7666666666667" y="85.16666666666666"/>
      <point x="418.7666666666667" y="148.16666666666666" type="curve" smooth="yes"/>
      <point x="418.7666666666667" y="233.1"/>
      <point x="442.40000000000003" y="323.0"/>
      <point x="485.1" y="398.0" type="curve"/>
      <point x="372.4" y="494.16666666666663" type="line"/>
      <point x="280.56666666666666" y="439.8"/>
      <point x="185.36666666666667" y="360.5333333333333"/>
      <point x="125.5" y="289.90000000000003" type="curve"/>
      <point x="149.03333333333333" y="252.0" type="line"/>
      <point x="149.03333333333333" y="550.0" type="line"/>
      <point x="548.9666666666667" y="550.0" type="line"/>
      <point x="509.06666666666666" y="622.0" type="line"/>
      <point x="-33.53333333333333" y="622.0" type="line"/>
      <point x="7.366666666666666" y="550.0" type="line"/>
      <point x="60.5" y="550.0" type="line"/>
      <point x="60.5" y="197.46666666666667" type="line"/>
      <point x="147.4" y="133.20000000000002" type="line"/>
      <point x="231.70000000000002" y="227.46666666666667"/>
      <point x="317.7333333333333" y="310.73333333333335"/>
      <point x="409.3" y="374.3666666666667" type="curve"/>
      <point x="374.96666666666664" y="399.0" type="line"/>
      <point x="348.9666666666667" y="331.6333333333333"/>
      <point x="336.3333333333333" y="264.4666666666667"/>
      <point x="336.3333333333333" y="192.43333333333334" type="curve" smooth="yes"/>
      <point x="336.3333333333333" y="97.06666666666666"/>
      <point x="364.8666666666667" y="11.633333333333335"/>
    </contour>
  </outline>
</glyph>
<glyph name="dha-beng" format="2">
  <advance width="515.4333333333333"/>
  <unicode hex="09A7"/>
  <anchor x="437.7" y="34.0" name="bottom"/>
  <anchor x="443.5" y="87.0" name="bottom.rakaar"/>
  <anchor x="444.2333333333333" y="9.533333333333333" name="bottom.rvocalic"/>
  <anchor x="425.7" y="14.0" name="bottom.virama"/>
  <anchor x="421.3" y="583.0" name="top"/>
  <anchor x="422.3" y="571.0" name="topright"/>
  <anchor x="257.4" y="0.0" name="vedic"/>
  <outline>
    <contour>
      <point x="435.2333333333333" y="-24.0" type="line"/>
      <point x="444.2333333333333" y="-22.0" type="line"/>
      <point x="444.2333333333333" y="550.0" type="line"/>
      <point x="548.6" y="550.0" type="line"/>
      <point x="507.06666666666666" y="622.0" type="line"/>
      <point x="355.7" y="622.0" type="line"/>
      <point x="355.7" y="455.0" type="line"/>
      <point x="366.3333333333333" y="500.6333333333334" type="line"/>
      <point x="241.60000000000002" y="458.2666666666667"/>
      <point x="118.63333333333333" y="402.9"/>
      <point x="17.166666666666668" y="334.2" type="curve"/>
      <point x="78.46666666666667" y="188.56666666666666" type="line"/>
      <point x="197.3" y="170.26666666666668"/>
      <point x="302.40000000000003" y="119.10000000000001"/>
      <point x="369.9" y="16.533333333333335" type="curve"/>
    </contour>
    <contour>
      <point x="355.7" y="87.39999999999999" type="line"/>
      <point x="371.1666666666667" y="97.16666666666667" type="line"/>
      <point x="327.03333333333336" y="196.56666666666666"/>
      <point x="227.86666666666667" y="258.2666666666667"/>
      <point x="142.46666666666667" y="283.3666666666667" type="curve"/>
      <point x="150.26666666666665" y="258.76666666666665" type="line"/>
      <point x="213.93333333333334" y="304.2"/>
      <point x="300.23333333333335" y="345.26666666666665"/>
      <point x="372.3333333333333" y="369.2666666666667" type="curve"/>
      <point x="355.7" y="403.56666666666666" type="line"/>
    </contour>
    <contour>
      <point x="197.46666666666667" y="397.3666666666667" type="curve"/>
      <point x="222.76666666666665" y="432.3666666666667" type="line"/>
      <point x="170.76666666666668" y="437.6333333333333"/>
      <point x="138.86666666666667" y="469.4666666666667"/>
      <point x="138.86666666666667" y="502.46666666666664" type="curve" smooth="yes"/>
      <point x="138.86666666666667" y="536.1"/>
      <point x="158.03333333333333" y="555.0"/>
      <point x="187.83333333333334" y="555.0" type="curve" smooth="yes"/>
      <point x="195.1" y="555.0"/>
      <point x="203.36666666666667" y="554.0"/>
      <point x="212.0" y="551.0" type="curve"/>
      <point x="173.1" y="590.0" type="line"/>
      <point x="164.83333333333334" y="577.0"/>
      <point x="162.20000000000002" y="562.0"/>
      <point x="162.20000000000002" y="545.0" type="curve" smooth="yes"/>
      <point x="162.20000000000002" y="506.0"/>
      <point x="191.73333333333332" y="484.0"/>
      <point x="224.9" y="484.0" type="curve" smooth="yes"/>
      <point x="261.43333333333334" y="484.0"/>
      <point x="290.3333333333333" y="511.0"/>
      <point x="290.3333333333333" y="552.0" type="curve" smooth="yes"/>
      <point x="290.3333333333333" y="600.0"/>
      <point x="257.43333333333334" y="640.0"/>
      <point x="186.1" y="640.0" type="curve" smooth="yes"/>
      <point x="107.5" y="640.0"/>
      <point x="55.800000000000004" y="592.0"/>
      <point x="55.800000000000004" y="522.0" type="curve" smooth="yes"/>
      <point x="55.800000000000004" y="430.3666666666667"/>
      <point x="144.66666666666669" y="397.3666666666667"/>
    </contour>
  </outline>
</glyph>
<glyph name="na-beng" format="2">
  <advance width="531.9000000000001"/>
  <unicode hex="09A8"/>
  <anchor x="445.4" y="73.03333333333333" name="bottom"/>
  <anchor x="458.5" y="87.0" name="bottom.rakaar"/>
  <anchor x="457.0333333333333" y="5.0" name="bottom.rvocalic"/>
  <anchor x="437.7666666666667" y="14.0" name="bottom.virama"/>
  <anchor x="434.4666666666667" y="583.0" name="top"/>
  <anchor x="436.4666666666667" y="571.0" name="topright"/>
  <anchor x="265.7666666666667" y="0.0" name="vedic"/>
  <outline>
    <contour>
      <point x="449.0333333333333" y="-26.0" type="line"/>
      <point x="457.0333333333333" y="-24.0" type="line"/>
      <point x="457.0333333333333" y="550.0" type="line"/>
      <point x="565.0666666666667" y="550.0" type="line"/>
      <point x="525.1666666666666" y="622.0" type="line"/>
      <point x="-33.53333333333333" y="622.0" type="line"/>
      <point x="7.0" y="550.0" type="line"/>
      <point x="369.5" y="550.0" type="line"/>
      <point x="369.5" y="359.0" type="line" smooth="yes"/>
      <point x="369.5" y="298.93333333333334"/>
      <point x="375.76666666666665" y="213.96666666666667"/>
      <point x="380.5" y="170.03333333333333" type="curve"/>
      <point x="394.2" y="174.63333333333333" type="line"/>
      <point x="372.93333333333334" y="299.90000000000003"/>
      <point x="293.3666666666667" y="435.56666666666666"/>
      <point x="155.73333333333335" y="435.56666666666666" type="curve" smooth="yes"/>
      <point x="78.86666666666666" y="435.56666666666666"/>
      <point x="23.066666666666666" y="388.2"/>
      <point x="23.066666666666666" y="305.3" type="curve" smooth="yes"/>
      <point x="23.066666666666666" y="232.03333333333333"/>
      <point x="68.60000000000001" y="178.03333333333333"/>
      <point x="143.2" y="178.03333333333333" type="curve" smooth="yes"/>
      <point x="212.63333333333333" y="178.03333333333333"/>
      <point x="248.16666666666669" y="226.4"/>
      <point x="248.16666666666669" y="282.93333333333334" type="curve" smooth="yes"/>
      <point x="248.16666666666669" y="308.56666666666666"/>
      <point x="239.16666666666669" y="334.56666666666666"/>
      <point x="216.9" y="349.93333333333334" type="curve"/>
      <point x="186.63333333333333" y="281.6333333333333" type="line"/>
      <point x="196.26666666666668" y="288.3666666666667"/>
      <point x="214.8" y="293.73333333333335"/>
      <point x="231.53333333333336" y="293.73333333333335" type="curve" smooth="yes"/>
      <point x="322.90000000000003" y="293.73333333333335"/>
      <point x="374.1333333333333" y="128.63333333333333"/>
      <point x="387.5" y="19.633333333333333" type="curve"/>
    </contour>
  </outline>
</glyph>
<glyph name="pa-beng" format="2">
  <advance width="646.3666666666667"/>
  <unicode hex="09AA"/>
  <anchor x="559.7333333333333" y="62.13333333333333" name="bottom"/>
  <anchor x="575.5333333333334" y="-15.0" name="bottom.rakaar"/>
  <anchor x="575.5333333333334" y="-3.0" name="bottom.rvocalic"/>
  <anchor x="541.9666666666667" y="8.0" name="bottom.virama"/>
  <anchor x="548.5" y="573.0" name="top"/>
  <anchor x="533.0666666666666" y="564.0" name="topright"/>
  <anchor x="322.8666666666667" y="0.0" name="vedic"/>
  <outline>
    <contour>
      <point x="568.1666666666667" y="-35.0" type="line"/>
      <point x="575.5333333333334" y="-33.0" type="line"/>
      <point x="575.5333333333334" y="550.0" type="line"/>
      <point x="679.9" y="550.0" type="line"/>
      <point x="638.3666666666667" y="622.0" type="line"/>
      <point x="567.8000000000001" y="622.0" type="line"/>
      <point x="560.4333333333334" y="677.0" type="line"/>
      <point x="495.3666666666667" y="713.0" type="line"/>
      <point x="488.73333333333335" y="710.0" type="line"/>
      <point x="488.73333333333335" y="543.4333333333334" type="line" smooth="yes"/>
      <point x="488.73333333333335" y="492.53333333333336"/>
      <point x="492.3666666666667" y="445.93333333333334"/>
      <point x="496.3666666666667" y="388.6666666666667" type="curve"/>
      <point x="500.8333333333333" y="397.3333333333333" type="line"/>
      <point x="440.8" y="550.0333333333333"/>
      <point x="352.33333333333337" y="629.6333333333333"/>
      <point x="247.36666666666665" y="629.6333333333333" type="curve" smooth="yes"/>
      <point x="143.83333333333331" y="629.6333333333333"/>
      <point x="55.800000000000004" y="544.4000000000001"/>
      <point x="1.7333333333333334" y="420.1333333333333" type="curve"/>
      <point x="98.96666666666667" y="336.6333333333333" type="line"/>
      <point x="116.66666666666666" y="354.26666666666665"/>
      <point x="136.5666666666667" y="363.2666666666667"/>
      <point x="157.1" y="363.2666666666667" type="curve" smooth="yes"/>
      <point x="182.0" y="363.2666666666667"/>
      <point x="197.9" y="349.16666666666663"/>
      <point x="197.9" y="321.26666666666665" type="curve" smooth="yes"/>
      <point x="197.9" y="287.3"/>
      <point x="175.3" y="257.40000000000003"/>
      <point x="144.96666666666667" y="232.76666666666668" type="curve"/>
      <point x="234.13333333333333" y="146.20000000000002" type="line"/>
      <point x="458.2333333333333" y="398.1333333333333" type="line"/>
      <point x="382.7333333333333" y="491.56666666666666" type="line"/>
      <point x="226.33333333333334" y="308.9" type="line"/>
      <point x="236.7" y="292.09999999999997" type="line"/>
      <point x="247.33333333333334" y="314.6333333333333"/>
      <point x="254.96666666666667" y="336.0"/>
      <point x="254.96666666666667" y="362.6333333333333" type="curve" smooth="yes"/>
      <point x="254.96666666666667" y="408.96666666666664"/>
      <point x="225.9" y="440.7"/>
      <point x="182.36666666666667" y="440.7" type="curve" smooth="yes"/>
      <point x="155.66666666666666" y="440.7"/>
      <point x="130.5" y="430.5333333333333"/>
      <point x="113.96666666666667" y="415.16666666666663" type="curve"/>
      <point x="145.83333333333334" y="395.16666666666663" type="line"/>
      <point x="167.29999999999998" y="469.23333333333335"/>
      <point x="216.1" y="526.3"/>
      <point x="274.3666666666667" y="526.3" type="curve" smooth="yes"/>
      <point x="354.8" y="526.3"/>
      <point x="434.73333333333335" y="430.2"/>
      <point x="493.3666666666667" y="281.56666666666666" type="curve"/>
      <point x="487.6333333333333" y="359.3" type="line"/>
      <point x="487.6333333333333" y="1.0" type="line"/>
    </contour>
  </outline>
</glyph>
<glyph name="pha-beng" format="2">
  <advance width="688.0333333333333"/>
  <unicode hex="09AB"/>
  <anchor x="455.83333333333337" y="34.0" name="bottom"/>
  <anchor x="461.2666666666667" y="87.0" name="bottom.rakaar"/>
  <anchor x="462.3666666666667" y="9.533333333333333" name="bottom.rvocalic"/>
  <anchor x="443.8333333333333" y="14.0" name="bottom.virama"/>
  <anchor x="439.43333333333334" y="583.0" name="top"/>
  <anchor x="441.06666666666666" y="571.0" name="topright"/>
  <anchor x="343.7" y="0.0" name="vedic"/>
  <outline>
    <contour>
      <point x="454.0" y="-24.0" type="line"/>
      <point x="462.3666666666667" y="-22.0" type="line"/>
      <point x="462.3666666666667" y="423.1" type="line"/>
      <point x="441.40000000000003" y="394.1" type="line"/>
      <point x="459.3" y="397.56666666666666"/>
      <point x="475.73333333333335" y="398.56666666666666"/>
      <point x="493.0" y="398.56666666666666" type="curve" smooth="yes"/>
      <point x="576.2" y="398.56666666666666"/>
      <point x="625.2333333333333" y="354.56666666666666"/>
      <point x="625.2333333333333" y="301.3" type="curve" smooth="yes"/>
      <point x="625.2333333333333" y="286.9333333333333"/>
      <point x="622.2333333333333" y="276.2"/>
      <point x="614.9666666666667" y="264.56666666666666" type="curve"/>
      <point x="634.7" y="261.4666666666667" type="line"/>
      <point x="629.8" y="303.4666666666667"/>
      <point x="605.9" y="325.1"/>
      <point x="566.7333333333333" y="325.1" type="curve" smooth="yes"/>
      <point x="525.9333333333334" y="325.1"/>
      <point x="496.3" y="295.4666666666667"/>
      <point x="496.3" y="249.46666666666667" type="curve" smooth="yes"/>
      <point x="496.3" y="204.46666666666667"/>
      <point x="523.5666666666666" y="166.46666666666667"/>
      <point x="576.6333333333333" y="166.46666666666667" type="curve" smooth="yes"/>
      <point x="637.3333333333334" y="166.46666666666667"/>
      <point x="676.8666666666667" y="218.73333333333335"/>
      <point x="676.8666666666667" y="303.3666666666667" type="curve" smooth="yes"/>
      <point x="676.8666666666667" y="438.3666666666667"/>
      <point x="562.9666666666666" y="516.0"/>
      <point x="434.3666666666667" y="516.0" type="curve" smooth="yes"/>
      <point x="409.73333333333335" y="516.0"/>
      <point x="396.1" y="515.0"/>
      <point x="374.4666666666667" y="512.0" type="curve"/>
      <point x="374.4666666666667" y="77.1" type="line"/>
      <point x="389.93333333333334" y="97.8" type="line"/>
      <point x="331.8666666666667" y="214.93333333333334"/>
      <point x="232.79999999999998" y="260.9"/>
      <point x="144.86666666666667" y="286.43333333333334" type="curve"/>
      <point x="153.0" y="240.53333333333333" type="line"/>
      <point x="202.66666666666666" y="280.6"/>
      <point x="271.40000000000003" y="320.3"/>
      <point x="335.2666666666667" y="356.56666666666666" type="curve"/>
      <point x="286.0" y="449.29999999999995"/>
      <point x="222.26666666666668" y="515.0"/>
      <point x="107.83333333333333" y="572.0" type="curve"/>
      <point x="103.53333333333333" y="550.0" type="line"/>
      <point x="721.1999999999999" y="550.0" type="line"/>
      <point x="681.0333333333333" y="622.0" type="line"/>
      <point x="-33.53333333333333" y="622.0" type="line"/>
      <point x="49.7" y="466.1" type="line"/>
      <point x="120.1" y="455.7333333333333"/>
      <point x="187.23333333333335" y="434.7333333333333"/>
      <point x="228.0" y="395.7333333333333" type="curve"/>
      <point x="225.76666666666668" y="432.26666666666665" type="line"/>
      <point x="176.63333333333333" y="411.26666666666665"/>
      <point x="84.2" y="358.26666666666665"/>
      <point x="40.233333333333334" y="325.0" type="curve"/>
      <point x="100.96666666666667" y="189.2" type="line"/>
      <point x="222.86666666666667" y="172.36666666666667"/>
      <point x="323.7" y="119.10000000000001"/>
      <point x="388.03333333333336" y="17.166666666666668" type="curve"/>
    </contour>
  </outline>
</glyph>
<glyph name="ba-beng" format="2">
  <advance width="507.1333333333333"/>
  <unicode hex="09AC"/>
  <anchor x="429.7666666666667" y="34.0" name="bottom"/>
  <anchor x="435.2" y="87.0" name="bottom.rakaar"/>
  <anchor x="436.3" y="8.9" name="bottom.rvocalic"/>
  <anchor x="417.76666666666665" y="14.0" name="bottom.virama"/>
  <anchor x="202.66666666666666" y="43.46666666666666" name="nukta"/>
  <anchor x="412.73333333333335" y="583.0" name="top"/>
  <anchor x="414.3666666666667" y="571.0" name="topright"/>
  <anchor x="253.56666666666666" y="0.0" name="vedic"/>
  <outline>
    <contour>
      <point x="427.3" y="-24.0" type="line"/>
      <point x="436.3" y="-22.0" type="line"/>
      <point x="436.3" y="550.0" type="line"/>
      <point x="540.3" y="550.0" type="line"/>
      <point x="499.1333333333333" y="622.0" type="line"/>
      <point x="-33.53333333333333" y="622.0" type="line"/>
      <point x="7.0" y="550.0" type="line"/>
      <point x="347.76666666666665" y="550.0" type="line"/>
      <point x="347.76666666666665" y="470.2666666666667" type="line"/>
      <point x="357.76666666666665" y="517.6333333333333" type="line"/>
      <point x="232.03333333333333" y="479.1666666666667"/>
      <point x="110.69999999999999" y="420.3333333333333"/>
      <point x="8.333333333333334" y="349.53333333333336" type="curve"/>
      <point x="67.36666666666666" y="203.26666666666668" type="line"/>
      <point x="192.8" y="184.33333333333334"/>
      <point x="295.1" y="125.43333333333332"/>
      <point x="361.96666666666664" y="17.166666666666668" type="curve"/>
    </contour>
    <contour>
      <point x="347.76666666666665" y="86.13333333333333" type="line"/>
      <point x="363.2333333333333" y="99.06666666666666" type="line"/>
      <point x="312.76666666666665" y="211.13333333333333"/>
      <point x="221.2" y="271.33333333333337"/>
      <point x="138.33333333333331" y="295.53333333333336" type="curve"/>
      <point x="144.86666666666667" y="274.0" type="line"/>
      <point x="208.53333333333333" y="320.3666666666667"/>
      <point x="294.2" y="360.43333333333334"/>
      <point x="364.03333333333336" y="384.43333333333334" type="curve"/>
      <point x="347.76666666666665" y="422.0" type="line"/>
    </contour>
  </outline>
</glyph>
<glyph name="bha-beng" format="2">
  <advance width="604.5666666666667"/>
  <unicode hex="09AD"/>
  <anchor x="433.23333333333335" y="12.0" name="bottom"/>
  <anchor x="523.4666666666667" y="4.0" name="bottom.rakaar"/>
  <anchor x="450.96666666666664" y="14.0" name="bottom.rvocalic"/>
  <anchor x="393.2666666666667" y="13.0" name="bottom.virama"/>
  <anchor x="341.93333333333334" y="583.0" name="top"/>
  <anchor x="343.56666666666666" y="571.0" name="topright"/>
  <anchor x="302.1" y="0.0" name="vedic"/>
  <outline>
    <contour>
      <point x="358.53333333333336" y="19.0" type="curve" smooth="yes"/>
      <point x="489.09999999999997" y="19.0"/>
      <point x="582.9666666666666" y="101.0"/>
      <point x="582.9666666666666" y="266.0" type="curve" smooth="yes"/>
      <point x="582.9666666666666" y="386.0"/>
      <point x="526.2666666666667" y="461.0"/>
      <point x="478.46666666666664" y="500.6333333333333" type="curve"/>
      <point x="418.6333333333333" y="404.53333333333336"/>
      <point x="367.3666666666667" y="363.43333333333334"/>
      <point x="305.66666666666663" y="359.06666666666666" type="curve"/>
      <point x="327.6666666666667" y="333.9" type="line"/>
      <point x="345.56666666666666" y="350.9"/>
      <point x="355.93333333333334" y="372.0"/>
      <point x="355.93333333333334" y="401.9" type="curve" smooth="yes"/>
      <point x="355.93333333333334" y="453.9"/>
      <point x="318.76666666666665" y="487.5333333333333"/>
      <point x="270.5" y="487.5333333333333" type="curve" smooth="yes"/>
      <point x="211.4333333333333" y="487.5333333333333"/>
      <point x="177.16666666666666" y="443.16666666666663"/>
      <point x="177.16666666666666" y="387.9" type="curve" smooth="yes"/>
      <point x="177.16666666666666" y="310.26666666666665"/>
      <point x="236.23333333333335" y="252.53333333333333"/>
      <point x="323.6666666666667" y="252.53333333333333" type="curve" smooth="yes"/>
      <point x="397.06666666666666" y="252.53333333333333"/>
      <point x="469.8666666666667" y="294.43333333333334"/>
      <point x="525.7333333333333" y="376.0" type="curve"/>
      <point x="489.53333333333336" y="376.06666666666666" type="line"/>
      <point x="506.8" y="353.7"/>
      <point x="517.4333333333333" y="323.9"/>
      <point x="517.4333333333333" y="285.53333333333336" type="curve" smooth="yes"/>
      <point x="517.4333333333333" y="199.0"/>
      <point x="451.4" y="146.79999999999998"/>
      <point x="355.1666666666667" y="146.79999999999998" type="curve" smooth="yes"/>
      <point x="224.86666666666667" y="146.79999999999998"/>
      <point x="128.76666666666665" y="235.6"/>
      <point x="61.099999999999994" y="493.2666666666667" type="curve"/>
      <point x="6.366666666666666" y="479.0" type="line"/>
      <point x="73.86666666666667" y="158.5"/>
      <point x="177.5" y="19.0"/>
    </contour>
    <contour>
      <point x="7.0" y="550.0" type="line"/>
      <point x="638.1" y="550.0" type="line"/>
      <point x="596.2" y="622.0" type="line"/>
      <point x="-33.53333333333333" y="622.0" type="line"/>
    </contour>
  </outline>
</glyph>
<glyph name="ma-beng" format="2">
  <advance width="548.4333333333334"/>
  <unicode hex="09AE"/>
  <anchor x="464.1" y="50.86666666666667" name="bottom"/>
  <anchor x="475.03333333333336" y="87.0" name="bottom.rakaar"/>
  <anchor x="473.56666666666666" y="8.799999999999999" name="bottom.rvocalic"/>
  <anchor x="453.93333333333334" y="14.0" name="bottom.virama"/>
  <anchor x="451.0" y="583.0" name="top"/>
  <anchor x="453.00000000000006" y="571.0" name="topright"/>
  <anchor x="274.03333333333336" y="0.0" name="vedic"/>
  <outline>
    <contour>
      <point x="465.56666666666666" y="-24.733333333333334" type="line"/>
      <point x="473.56666666666666" y="-22.733333333333334" type="line"/>
      <point x="473.56666666666666" y="550.0" type="line"/>
      <point x="581.6" y="550.0" type="line"/>
      <point x="541.0666666666667" y="622.0" type="line"/>
      <point x="-33.53333333333333" y="622.0" type="line"/>
      <point x="7.0" y="550.0" type="line"/>
      <point x="39.63333333333333" y="550.0" type="line"/>
      <point x="22.166666666666668" y="585.0" type="line"/>
      <point x="17.9" y="576.0"/>
      <point x="15.633333333333333" y="555.0"/>
      <point x="15.633333333333333" y="545.0" type="curve" smooth="yes"/>
      <point x="15.633333333333333" y="496.4666666666667"/>
      <point x="48.96666666666667" y="467.3666666666667"/>
      <point x="125.30000000000001" y="439.26666666666665" type="curve" smooth="yes"/>
      <point x="178.96666666666667" y="419.0"/>
      <point x="202.36666666666667" y="396.1666666666667"/>
      <point x="202.36666666666667" y="357.43333333333334" type="curve" smooth="yes"/>
      <point x="202.36666666666667" y="326.1666666666667"/>
      <point x="182.3" y="304.43333333333334"/>
      <point x="167.4" y="292.59999999999997" type="curve"/>
      <point x="268.5" y="319.6333333333333" type="line"/>
      <point x="246.6" y="329.6333333333333"/>
      <point x="224.8" y="337.6333333333333"/>
      <point x="193.63333333333333" y="337.6333333333333" type="curve" smooth="yes"/>
      <point x="118.66666666666667" y="338.0"/>
      <point x="79.13333333333334" y="296.6333333333334"/>
      <point x="79.13333333333334" y="233.0" type="curve" smooth="yes"/>
      <point x="79.13333333333334" y="165.73333333333332"/>
      <point x="125.03333333333333" y="124.46666666666667"/>
      <point x="185.36666666666665" y="124.46666666666667" type="curve" smooth="yes"/>
      <point x="249.9" y="124.10000000000001"/>
      <point x="282.6" y="166.36666666666665"/>
      <point x="299.50000000000006" y="223.1" type="curve"/>
      <point x="263.3" y="210.56666666666666" type="line"/>
      <point x="333.8666666666667" y="195.76666666666668"/>
      <point x="370.0333333333333" y="118.86666666666667"/>
      <point x="399.6" y="18.366666666666667" type="curve"/>
    </contour>
    <contour>
      <point x="396.5" y="98.23333333333333" type="curve"/>
      <point x="408.3" y="112.53333333333333" type="line"/>
      <point x="383.43333333333334" y="222.26666666666665"/>
      <point x="337.7" y="283.2"/>
      <point x="284.7666666666667" y="312.90000000000003" type="curve"/>
      <point x="304.56666666666666" y="253.0" type="line"/>
      <point x="311.93333333333334" y="279.6333333333333"/>
      <point x="313.3" y="298.6333333333333"/>
      <point x="313.3" y="319.0" type="curve" smooth="yes"/>
      <point x="313.3" y="389.26666666666665"/>
      <point x="281.1333333333333" y="427.90000000000003"/>
      <point x="225.13333333333335" y="459.96666666666664" type="curve" smooth="yes"/>
      <point x="183.26666666666665" y="483.96666666666664"/>
      <point x="158.53333333333333" y="507.23333333333335"/>
      <point x="158.53333333333333" y="543.0" type="curve" smooth="yes"/>
      <point x="158.53333333333333" y="554.6333333333333"/>
      <point x="161.53333333333333" y="566.0"/>
      <point x="167.53333333333333" y="574.0" type="curve"/>
      <point x="105.33333333333333" y="550.0" type="line"/>
      <point x="385.6666666666667" y="550.0" type="line"/>
      <point x="385.6666666666667" y="312.8666666666667" type="line" smooth="yes"/>
      <point x="385.6666666666667" y="255.66666666666666"/>
      <point x="390.93333333333334" y="159.79999999999998"/>
    </contour>
  </outline>
</glyph>
<glyph name="ya-beng" format="2">
  <advance width="538.3333333333334"/>
  <unicode hex="09AF"/>
  <anchor x="456.93333333333334" y="34.0" name="bottom"/>
  <anchor x="462.73333333333335" y="87.0" name="bottom.rakaar"/>
  <anchor x="463.4666666666667" y="9.533333333333333" name="bottom.rvocalic"/>
  <anchor x="444.93333333333334" y="14.0" name="bottom.virama"/>
  <anchor x="230.46666666666667" y="44.2" name="nukta"/>
  <anchor x="440.5333333333333" y="583.0" name="top"/>
  <anchor x="442.5333333333333" y="571.0" name="topright"/>
  <anchor x="268.6666666666667" y="0.0" name="vedic"/>
  <outline>
    <contour>
      <point x="455.46666666666664" y="-24.0" type="line"/>
      <point x="463.4666666666667" y="-22.0" type="line"/>
      <point x="463.4666666666667" y="550.0" type="line"/>
      <point x="571.5" y="550.0" type="line"/>
      <point x="529.9666666666667" y="622.0" type="line"/>
      <point x="-33.53333333333333" y="622.0" type="line"/>
      <point x="49.06666666666667" y="466.73333333333335" type="line"/>
      <point x="122.0" y="457.0"/>
      <point x="187.23333333333335" y="434.7333333333333"/>
      <point x="228.0" y="395.7333333333333" type="curve"/>
      <point x="225.76666666666668" y="432.26666666666665" type="line"/>
      <point x="176.63333333333333" y="411.26666666666665"/>
      <point x="82.93333333333334" y="357.6333333333333"/>
      <point x="40.233333333333334" y="325.0" type="curve"/>
      <point x="100.96666666666667" y="189.2" type="line"/>
      <point x="222.86666666666667" y="171.73333333333335"/>
      <point x="324.8" y="119.10000000000001"/>
      <point x="389.1333333333333" y="17.166666666666668" type="curve"/>
    </contour>
    <contour>
      <point x="375.93333333333334" y="77.1" type="line"/>
      <point x="391.03333333333336" y="97.8" type="line"/>
      <point x="333.96666666666664" y="214.93333333333334"/>
      <point x="232.79999999999998" y="260.9"/>
      <point x="144.86666666666667" y="286.43333333333334" type="curve"/>
      <point x="153.0" y="240.53333333333333" type="line"/>
      <point x="201.4" y="279.9666666666667"/>
      <point x="271.40000000000003" y="320.93333333333334"/>
      <point x="335.2666666666667" y="355.93333333333334" type="curve"/>
      <point x="284.1" y="451.2"/>
      <point x="222.26666666666668" y="515.0"/>
      <point x="107.83333333333333" y="572.0" type="curve"/>
      <point x="105.36666666666666" y="550.0" type="line"/>
      <point x="375.93333333333334" y="550.0" type="line"/>
    </contour>
  </outline>
</glyph>
<glyph name="la-beng" format="2">
  <advance width="637.0"/>
  <unicode hex="09B2"/>
  <anchor x="549.3666666666667" y="62.13333333333333" name="bottom"/>
  <anchor x="565.8000000000001" y="-15.0" name="bottom.rakaar"/>
  <anchor x="565.8000000000001" y="-3.0" name="bottom.rvocalic"/>
  <anchor x="531.5999999999999" y="8.0" name="bottom.virama"/>
  <anchor x="543.9666666666667" y="582.6333333333333" name="top"/>
  <anchor x="545.3333333333333" y="571.0" name="topright"/>
  <anchor x="318.0" y="0.0" name="vedic"/>
  <outline>
    <contour>
      <point x="557.8000000000001" y="-35.0" type="line"/>
      <point x="565.8000000000001" y="-33.0" type="line"/>
      <point x="565.8000000000001" y="550.0" type="line"/>
      <point x="670.1666666666667" y="550.0" type="line"/>
      <point x="628.0" y="622.0" type="line"/>
      <point x="-33.53333333333333" y="622.0" type="line"/>
      <point x="7.0" y="550.0" type="line"/>
      <point x="477.2666666666667" y="550.0" type="line"/>
      <point x="477.2666666666667" y="454.2" type="line" smooth="yes"/>
      <point x="477.2666666666667" y="397.93333333333334"/>
      <point x="482.5333333333333" y="355.3"/>
      <point x="489.16666666666663" y="304.56666666666666" type="curve"/>
      <point x="496.1666666666667" y="309.6666666666667" type="line"/>
      <point x="464.56666666666666" y="416.0"/>
      <point x="424.1333333333333" y="479.9"/>
      <point x="365.96666666666664" y="479.9" type="curve" smooth="yes"/>
      <point x="320.90000000000003" y="479.9"/>
      <point x="284.09999999999997" y="430.0"/>
      <point x="286.53333333333336" y="345.2" type="curve"/>
      <point x="306.46666666666664" y="347.3666666666667" type="line"/>
      <point x="289.4666666666667" y="424.0"/>
      <point x="237.03333333333333" y="486.0"/>
      <point x="155.63333333333333" y="486.0" type="curve" smooth="yes"/>
      <point x="71.4" y="486.0"/>
      <point x="8.8" y="419.7333333333333"/>
      <point x="8.8" y="304.46666666666664" type="curve" smooth="yes"/>
      <point x="8.8" y="176.10000000000002"/>
      <point x="84.33333333333333" y="93.36666666666666"/>
      <point x="186.20000000000002" y="93.36666666666666" type="curve" smooth="yes"/>
      <point x="248.36666666666665" y="93.36666666666666"/>
      <point x="285.90000000000003" y="128.73333333333332"/>
      <point x="285.90000000000003" y="188.0" type="curve" smooth="yes"/>
      <point x="285.90000000000003" y="242.63333333333335"/>
      <point x="253.36666666666667" y="279.6333333333333"/>
      <point x="201.2" y="279.6333333333333" type="curve" smooth="yes"/>
      <point x="157.93333333333334" y="279.6333333333333"/>
      <point x="125.76666666666667" y="247.63333333333333"/>
      <point x="125.76666666666667" y="199.0" type="curve" smooth="yes"/>
      <point x="125.76666666666667" y="177.73333333333332"/>
      <point x="131.03333333333333" y="158.36666666666667"/>
      <point x="144.23333333333332" y="145.36666666666667" type="curve"/>
      <point x="181.83333333333334" y="183.66666666666666" type="line"/>
      <point x="171.56666666666666" y="180.2"/>
      <point x="159.66666666666669" y="178.46666666666667"/>
      <point x="148.20000000000002" y="178.46666666666667" type="curve" smooth="yes"/>
      <point x="118.39999999999999" y="178.46666666666667"/>
      <point x="94.13333333333333" y="210.10000000000002"/>
      <point x="94.13333333333333" y="259.20000000000005" type="curve" smooth="yes"/>
      <point x="94.13333333333333" y="317.93333333333334"/>
      <point x="129.76666666666668" y="353.2"/>
      <point x="190.9" y="353.2" type="curve" smooth="yes"/>
      <point x="248.60000000000002" y="353.2"/>
      <point x="294.93333333333334" y="323.46666666666664"/>
      <point x="316.7333333333333" y="260.2" type="curve"/>
      <point x="345.5333333333333" y="251.56666666666666" type="line"/>
      <point x="344.26666666666665" y="313.8333333333333"/>
      <point x="365.3333333333333" y="343.93333333333334"/>
      <point x="397.1333333333333" y="343.93333333333334" type="curve" smooth="yes"/>
      <point x="431.46666666666664" y="343.93333333333334"/>
      <point x="463.0" y="311.4666666666667"/>
      <point x="484.1666666666667" y="220.4" type="curve"/>
      <point x="477.2666666666667" y="278.1666666666667" type="line"/>
      <point x="477.2666666666667" y="1.0" type="line"/>
    </contour>
  </outline>
</glyph>
